<svg xmlns="http://www.w3.org/2000/svg" width="980" height="520" viewBox="0 0 980 520">
<rect width="100%" height="100%" fill="#ffffff"/>
<text x="490.0" y="30" text-anchor="middle" font-family="Arial" font-size="22" font-weight="700">Contact Force and Insertion Depth</text>
<rect x="74" y="58" width="880" height="400" fill="#fafafa" stroke="#c8c8c8"/>
<line x1="74" y1="58.00" x2="954" y2="58.00" stroke="#e5e5e5"/>
<text x="64" y="62.00" text-anchor="end" font-family="Arial" font-size="12">75.4</text>
<line x1="74" y1="138.00" x2="954" y2="138.00" stroke="#e5e5e5"/>
<text x="64" y="142.00" text-anchor="end" font-family="Arial" font-size="12">59.2</text>
<line x1="74" y1="218.00" x2="954" y2="218.00" stroke="#e5e5e5"/>
<text x="64" y="222.00" text-anchor="end" font-family="Arial" font-size="12">43</text>
<line x1="74" y1="298.00" x2="954" y2="298.00" stroke="#e5e5e5"/>
<text x="64" y="302.00" text-anchor="end" font-family="Arial" font-size="12">26.8</text>
<line x1="74" y1="378.00" x2="954" y2="378.00" stroke="#e5e5e5"/>
<text x="64" y="382.00" text-anchor="end" font-family="Arial" font-size="12">10.6</text>
<line x1="74" y1="458.00" x2="954" y2="458.00" stroke="#e5e5e5"/>
<text x="64" y="462.00" text-anchor="end" font-family="Arial" font-size="12">-5.59</text>
<line x1="74.00" y1="58" x2="74.00" y2="458" stroke="#efefef"/>
<text x="74.00" y="492" text-anchor="middle" font-family="Arial" font-size="12">0.00</text>
<line x1="250.00" y1="58" x2="250.00" y2="458" stroke="#efefef"/>
<text x="250.00" y="492" text-anchor="middle" font-family="Arial" font-size="12">2.13</text>
<line x1="426.00" y1="58" x2="426.00" y2="458" stroke="#efefef"/>
<text x="426.00" y="492" text-anchor="middle" font-family="Arial" font-size="12">4.27</text>
<line x1="602.00" y1="58" x2="602.00" y2="458" stroke="#efefef"/>
<text x="602.00" y="492" text-anchor="middle" font-family="Arial" font-size="12">6.40</text>
<line x1="778.00" y1="58" x2="778.00" y2="458" stroke="#efefef"/>
<text x="778.00" y="492" text-anchor="middle" font-family="Arial" font-size="12">8.53</text>
<line x1="954.00" y1="58" x2="954.00" y2="458" stroke="#efefef"/>
<text x="954.00" y="492" text-anchor="middle" font-family="Arial" font-size="12">10.66</text>
<polyline fill="none" stroke="#d62728" stroke-width="2.4" points="74.00,430.41 74.50,430.41 74.99,430.41 75.49,430.41 75.98,430.41 76.48,430.41 76.97,430.41 77.47,430.41 77.96,430.41 78.46,430.41 78.95,430.41 79.45,430.41 79.94,430.41 80.44,430.41 80.93,430.41 81.43,430.41 81.92,430.41 82.42,430.41 82.91,430.41 83.41,430.41 83.90,430.41 84.40,430.41 84.89,430.41 85.39,430.41 85.89,430.41 86.38,430.41 86.88,430.41 87.37,430.41 87.87,430.41 88.36,430.41 88.86,430.41 89.35,430.41 89.85,430.41 90.34,430.41 90.84,430.41 91.33,430.41 91.83,430.41 92.32,430.41 92.82,430.41 93.31,430.41 93.81,430.41 94.30,430.41 94.80,430.41 95.29,430.41 95.79,430.41 96.28,430.41 96.78,430.41 97.28,430.41 97.77,430.41 98.27,430.41 98.76,430.41 99.26,430.41 99.75,430.41 100.25,430.41 100.74,430.41 101.24,430.41 101.73,430.41 102.23,430.41 102.72,430.41 103.22,430.41 103.71,430.41 104.21,430.41 104.70,430.41 105.20,430.41 105.69,430.41 106.19,430.41 106.68,430.41 107.18,430.41 107.67,430.41 108.17,430.41 108.67,430.41 109.16,430.41 109.66,430.41 110.15,430.41 110.65,430.41 111.14,430.41 111.64,430.41 112.13,430.41 112.63,430.41 113.12,430.41 113.62,430.41 114.11,430.41 114.61,430.41 115.10,430.41 115.60,430.41 116.09,430.41 116.59,430.41 117.08,430.41 117.58,430.41 118.07,430.41 118.57,430.41 119.06,430.41 119.56,430.41 120.06,430.41 120.55,430.41 121.05,430.41 121.54,430.41 122.04,430.41 122.53,430.41 123.03,430.41 123.52,430.41 124.02,430.41 124.51,430.41 125.01,430.41 125.50,430.41 126.00,430.41 126.49,430.41 126.99,430.41 127.48,430.41 127.98,430.41 128.47,430.41 128.97,430.41 129.46,430.41 129.96,430.41 130.45,430.41 130.95,430.41 131.45,430.41 131.94,430.41 132.44,430.41 132.93,430.41 133.43,430.41 133.92,430.41 134.42,430.41 134.91,430.41 135.41,430.41 135.90,430.41 136.40,430.41 136.89,430.41 137.39,430.41 137.88,430.41 138.38,430.41 138.87,430.41 139.37,430.41 139.86,430.41 140.36,430.41 140.85,430.41 141.35,430.41 141.84,430.41 142.34,430.41 142.84,430.41 143.33,430.41 143.83,430.41 144.32,430.41 144.82,430.41 145.31,430.41 145.81,430.41 146.30,430.41 146.80,430.41 147.29,430.41 147.79,430.41 148.28,430.41 148.78,430.41 149.27,430.41 149.77,430.41 150.26,430.41 150.76,430.41 151.25,430.41 151.75,430.41 152.24,430.41 152.74,430.41 153.23,430.41 153.73,430.41 154.23,430.41 154.72,430.41 155.22,430.41 155.71,430.41 156.21,430.41 156.70,430.41 157.20,430.41 157.69,430.41 158.19,430.41 158.68,430.41 159.18,430.41 159.67,430.41 160.17,430.41 160.66,430.41 161.16,430.41 161.65,430.41 162.15,430.41 162.64,430.41 163.14,430.41 163.63,430.41 164.13,430.41 164.62,430.41 165.12,430.41 165.62,430.41 166.11,430.41 166.61,430.41 167.10,430.41 167.60,430.41 168.09,430.41 168.59,430.41 169.08,430.41 169.58,430.41 170.07,430.41 170.57,430.41 171.06,430.41 171.56,430.41 172.05,430.41 172.55,430.41 173.04,430.41 173.54,430.41 174.03,430.41 174.53,430.41 175.02,430.41 175.52,430.41 176.01,430.41 176.51,430.41 177.01,430.41 177.50,430.41 178.00,430.41 178.49,430.41 178.99,430.41 179.48,430.41 179.98,430.41 180.47,430.41 180.97,430.41 181.46,430.41 181.96,430.41 182.45,430.41 182.95,430.41 183.44,430.41 183.94,430.41 184.43,430.41 184.93,430.41 185.42,430.41 185.92,430.41 186.41,430.41 186.91,430.41 187.40,430.41 187.90,430.41 188.40,430.41 188.89,430.41 189.39,430.41 189.88,430.41 190.38,430.41 190.87,430.41 191.37,430.41 191.86,430.41 192.36,430.41 192.85,430.41 193.35,430.41 193.84,430.41 194.34,430.41 194.83,430.41 195.33,430.41 195.82,430.41 196.32,430.41 196.81,430.41 197.31,430.41 197.80,430.41 198.30,430.41 198.79,430.41 199.29,430.41 199.79,430.41 200.28,430.41 200.78,430.41 201.27,430.41 201.77,430.41 202.26,430.41 202.76,430.41 203.25,430.41 203.75,430.41 204.24,430.41 204.74,430.41 205.23,430.41 205.73,430.41 206.22,430.41 206.72,430.41 207.21,430.41 207.71,430.41 208.20,430.41 208.70,430.41 209.19,430.41 209.69,430.41 210.18,430.41 210.68,430.41 211.18,430.41 211.67,430.41 212.17,430.41 212.66,430.41 213.16,430.41 213.65,430.41 214.15,430.41 214.64,430.41 215.14,430.41 215.63,430.41 216.13,430.41 216.62,430.41 217.12,430.41 217.61,430.41 218.11,430.41 218.60,430.41 219.10,430.41 219.59,430.41 220.09,430.41 220.58,430.41 221.08,430.41 221.57,430.41 222.07,430.41 222.56,430.41 223.06,430.41 223.56,430.41 224.05,430.41 224.55,430.41 225.04,430.41 225.54,430.41 226.03,430.41 226.53,430.41 227.02,430.41 227.52,430.41 228.01,430.41 228.51,430.41 229.00,430.41 229.50,430.41 229.99,430.41 230.49,430.41 230.98,430.41 231.48,430.41 231.97,430.41 232.47,430.41 232.96,430.41 233.46,430.41 233.95,430.41 234.45,430.41 234.95,430.41 235.44,430.41 235.94,430.41 236.43,430.41 236.93,430.41 237.42,430.41 237.92,430.41 238.41,430.41 238.91,430.41 239.40,430.41 239.90,430.41 240.39,430.41 240.89,430.41 241.38,430.41 241.88,430.41 242.37,430.41 242.87,430.41 243.36,430.41 243.86,430.41 244.35,430.41 244.85,430.41 245.34,430.41 245.84,430.41 246.34,430.41 246.83,430.41 247.33,430.41 247.82,430.41 248.32,430.41 248.81,430.41 249.31,430.41 249.80,430.41 250.30,430.41 250.79,430.41 251.29,430.41 251.78,430.41 252.28,430.41 252.77,430.41 253.27,430.41 253.76,430.41 254.26,430.41 254.75,430.41 255.25,430.41 255.74,430.41 256.24,430.41 256.73,366.98 257.23,359.83 257.73,350.53 258.22,358.40 258.72,340.74 259.21,344.12 259.71,315.07 260.20,348.02 260.70,335.49 261.19,346.78 261.69,332.41 262.18,348.19 262.68,333.70 263.17,338.43 263.67,348.25 264.16,349.85 264.66,341.42 265.15,347.99 265.65,349.78 266.14,349.76 266.64,349.68 267.13,350.79 267.63,350.58 268.12,350.06 268.62,335.31 269.12,350.99 269.61,350.61 270.11,350.22 270.60,343.93 271.10,334.81 271.59,350.80 272.09,351.35 272.58,350.91 273.08,350.31 273.57,351.26 274.07,350.52 274.56,335.56 275.06,346.21 275.55,338.74 276.05,349.05 276.54,350.11 277.04,346.02 277.53,350.42 278.03,351.20 278.52,350.47 279.02,351.31 279.51,350.62 280.01,343.88 280.51,350.91 281.00,351.57 281.50,351.73 281.99,350.90 282.49,351.58 282.98,346.99 283.48,351.05 283.97,335.90 284.47,351.33 284.96,335.91 285.46,346.42 285.95,349.73 286.45,350.83 286.94,351.37 287.44,351.73 287.93,336.32 288.43,351.50 288.92,351.81 289.42,352.03 289.91,351.34 290.41,351.82 290.90,336.34 291.40,351.57 291.90,351.75 292.39,350.36 292.89,351.53 293.38,351.80 293.88,350.86 294.37,351.58 294.87,351.98 295.36,351.15 295.86,351.80 296.35,344.33 296.85,351.32 297.34,351.75 297.84,336.30 298.33,351.53 298.83,351.78 299.32,350.88 299.82,351.53 300.31,347.01 300.81,351.04 301.30,351.62 301.80,351.92 302.29,336.41 302.79,351.61 303.29,351.80 303.78,350.93 304.28,351.58 304.77,350.23 305.27,120.39 305.76,146.83 306.26,171.43 306.75,184.38 307.25,206.05 307.74,216.11 308.24,233.02 308.73,240.19 309.23,254.32 309.72,258.32 310.22,270.17 310.71,273.18 311.21,282.98 311.70,285.26 312.20,293.29 312.69,295.04 313.19,301.58 313.68,302.91 314.18,308.94 314.68,310.19 315.17,314.29 315.67,315.93 316.16,318.39 316.66,319.76 317.15,321.78 317.65,322.63 318.14,326.46 318.64,326.75 319.13,328.12 319.63,328.00 320.12,329.37 320.62,330.80 321.11,332.73 321.61,331.37 322.10,336.23 322.60,334.64 323.09,331.14 323.59,337.61 324.08,338.66 324.58,336.89 325.07,338.60 325.57,336.94 326.07,336.18 326.56,340.79 327.06,340.26 327.55,343.61 328.05,343.24 328.54,346.06 329.04,345.44 329.53,347.38 330.03,347.17 330.52,348.65 331.02,348.43 331.51,349.48 332.01,349.86 332.50,350.20 333.00,350.72 333.49,350.64 333.99,351.26 334.48,350.93 334.98,351.50 335.47,351.53 335.97,351.13 336.46,351.66 336.96,351.97 337.46,352.01 337.95,351.49 338.45,351.99 338.94,352.23 339.44,352.25 339.93,351.69 340.43,352.16 340.92,352.38 341.42,352.37 341.91,351.82 342.41,352.24 342.90,352.46 343.40,352.42 343.89,351.88 344.39,352.28 344.88,352.51 345.38,352.45 345.87,351.91 346.37,354.13 346.86,352.54 347.36,356.08 347.85,358.88 348.35,372.45 348.85,376.23 349.34,379.09 349.84,381.30 350.33,383.01 350.83,384.34 351.32,385.36 351.82,386.16 352.31,386.79 352.81,387.28 353.30,387.71 353.80,388.06 354.29,388.35 354.79,388.62 355.28,388.88 355.78,389.13 356.27,389.37 356.77,389.62 357.26,389.42 357.76,389.04 358.25,389.31 358.75,389.58 359.24,389.83 359.74,390.05 360.24,390.27 360.73,390.47 361.23,390.65 361.72,390.83 362.22,390.99 362.71,391.14 363.21,391.28 363.70,391.41 364.20,391.53 364.69,391.64 365.19,391.75 365.68,391.85 366.18,391.94 366.67,392.03 367.17,392.11 367.66,392.18 368.16,392.25 368.65,392.32 369.15,392.38 369.64,392.43 370.14,392.49 370.63,392.54 371.13,392.59 371.63,392.63 372.12,392.67 372.62,392.71 373.11,392.75 373.61,392.78 374.10,392.74 374.60,392.67 375.09,392.61 375.59,392.56 376.08,392.50 376.58,392.46 377.07,392.41 377.57,392.37 378.06,392.32 378.56,392.30 379.05,392.26 379.55,392.23 380.04,392.20 380.54,392.17 381.03,392.14 381.53,392.12 382.02,392.09 382.52,392.07 383.02,392.05 383.51,392.03 384.01,392.01 384.50,391.99 385.00,391.97 385.49,391.96 385.99,391.94 386.48,391.93 386.98,391.92 387.47,391.91 387.97,391.90 388.46,391.89 388.96,391.88 389.45,391.87 389.95,391.86 390.44,391.85 390.94,391.84 391.43,391.84 391.93,391.83 392.42,391.83 392.92,391.81 393.41,391.83 393.91,391.77 394.41,391.88 394.90,391.61 395.40,392.25 395.89,390.69 396.39,391.41 396.88,390.46 397.38,391.18 397.87,390.17 398.37,391.35 398.86,390.20 399.36,391.42 399.85,390.12 400.35,391.51 400.84,390.08 401.34,391.57 401.83,390.03 402.33,391.63 402.82,389.99 403.32,391.67 403.81,389.96 404.31,391.71 404.80,389.93 405.30,391.74 405.80,389.92 406.29,391.76 406.79,389.91 407.28,391.79 407.78,389.91 408.27,391.81 408.77,389.91 409.26,391.82 409.76,389.92 410.25,391.84 410.75,389.93 411.24,391.85 411.74,389.95 412.23,391.86 412.73,389.96 413.22,391.86 413.72,389.98 414.21,391.87 414.71,390.00 415.20,391.87 415.70,390.01 416.19,391.88 416.69,390.03 417.19,391.88 417.68,390.05 418.18,391.88 418.67,390.06 419.17,391.88 419.66,390.08 420.16,391.88 420.65,390.09 421.15,391.88 421.64,390.11 422.14,391.88 422.63,390.12 423.13,391.88 423.62,390.13 424.12,391.50 424.61,390.73 425.11,391.96 425.60,390.54 426.10,391.71 426.59,390.21 427.09,391.83 427.58,390.30 428.08,391.81 428.58,390.20 429.07,390.60 429.57,391.43 430.06,389.64 430.56,391.90 431.05,390.88 431.55,392.44 432.04,389.80 432.54,392.86 433.03,390.39 433.53,392.95 434.02,390.57 434.52,392.35 435.01,390.90 435.51,392.00 436.00,391.11 436.50,391.53 436.99,391.35 437.49,391.15 437.98,391.54 438.48,390.77 438.97,391.73 439.47,390.44 439.97,391.89 440.46,390.12 440.96,392.05 441.45,389.82 441.95,392.19 442.44,389.55 442.94,392.32 443.43,389.30 443.93,392.44 444.42,389.06 444.92,392.55 445.41,388.85 445.91,392.46 446.40,388.65 446.90,392.27 447.39,388.47 447.89,392.11 448.38,388.31 448.88,391.96 449.37,388.16 449.87,391.82 450.36,388.03 450.86,391.70 451.36,387.92 451.85,391.59 452.35,387.81 452.84,391.50 453.34,387.73 453.83,391.42 454.33,387.65 454.82,391.35 455.32,387.59 455.81,391.29 456.31,387.54 456.80,391.25 457.30,387.50 457.79,391.22 458.29,387.48 458.78,391.20 459.28,387.46 459.77,391.19 460.27,387.46 460.76,391.20 461.26,387.47 461.75,391.21 462.25,387.48 462.75,391.23 463.24,387.51 463.74,391.26 464.23,387.55 464.73,391.31 465.22,387.59 465.72,391.36 466.21,387.64 466.71,391.42 467.20,387.71 467.70,391.48 468.19,387.78 468.69,391.56 469.18,387.86 469.68,391.64 470.17,387.94 470.67,391.74 471.16,387.99 471.66,391.78 472.15,388.08 472.65,391.87 473.14,388.18 473.64,391.97 474.14,388.28 474.63,392.08 475.13,388.40 475.62,392.21 476.12,388.53 476.61,392.32 477.11,388.66 477.60,392.45 478.10,388.79 478.59,392.37 479.09,388.92 479.58,392.29 480.08,389.05 480.57,392.19 481.07,389.19 481.56,391.91 482.06,389.21 482.55,391.82 483.05,389.35 483.54,391.72 484.04,389.50 484.53,391.64 485.03,389.65 485.53,391.55 486.02,389.96 486.52,391.44 487.01,390.10 487.51,391.35 488.00,390.25 488.50,391.26 488.99,390.40 489.49,391.18 489.98,390.56 490.48,391.10 490.97,390.72 491.47,391.02 491.96,390.88 492.46,390.95 492.95,391.04 493.45,390.87 493.94,391.20 494.44,390.80 494.93,391.35 495.43,390.73 495.92,391.18 496.42,387.00 496.92,390.72 497.41,386.42 497.91,390.50 498.40,386.03 498.90,390.41 499.39,385.77 499.89,390.41 500.38,385.59 500.88,390.37 501.37,385.43 501.87,390.42 502.36,385.31 502.86,390.50 503.35,385.20 503.85,390.58 504.34,385.12 504.84,390.66 505.33,385.05 505.83,390.75 506.32,384.99 506.82,390.69 507.31,384.93 507.81,390.65 508.31,384.89 508.80,390.61 509.30,384.85 509.79,390.58 510.29,384.81 510.78,390.55 511.28,384.78 511.77,390.53 512.27,384.76 512.76,390.51 513.26,384.75 513.75,390.50 514.25,384.74 514.74,390.50 515.24,384.74 515.73,390.50 516.23,384.75 516.72,390.51 517.22,384.76 517.71,390.53 518.21,384.79 518.70,390.55 519.20,384.82 519.69,390.58 520.19,384.86 520.69,390.62 521.18,384.90 521.68,390.67 522.17,384.96 522.67,390.73 523.16,385.03 523.66,390.73 524.15,385.10 524.65,390.61 525.14,385.19 525.64,390.47 526.13,388.88 526.63,391.12 527.12,389.56 527.62,391.39 528.11,390.05 528.61,391.32 529.10,390.45 529.60,391.19 530.09,390.70 530.59,391.04 531.08,390.86 531.58,390.89 532.08,390.97 532.57,390.77 533.07,391.04 533.56,390.66 534.06,391.09 534.55,390.56 535.05,391.12 535.54,390.49 536.04,391.13 536.53,390.42 537.03,391.13 537.52,390.36 538.02,391.13 538.51,390.31 539.01,391.12 539.50,390.26 540.00,391.11 540.49,390.22 540.99,391.10 541.48,390.17 541.98,391.08 542.47,390.13 542.97,391.07 543.47,390.08 543.96,391.06 544.46,390.04 544.95,391.06 545.45,389.99 545.94,391.05 546.44,389.94 546.93,391.06 547.43,389.89 547.92,391.06 548.42,389.84 548.91,391.07 549.41,389.79 549.90,391.09 550.40,389.74 550.89,391.11 551.39,389.69 551.88,391.12 552.38,389.65 552.87,391.14 553.37,389.61 553.86,391.16 554.36,389.58 554.86,391.18 555.35,389.56 555.85,391.20 556.34,389.55 556.84,391.22 557.33,389.53 557.83,391.23 558.32,389.51 558.82,395.59 559.31,394.14 559.81,396.80 560.30,394.04 560.80,396.64 561.29,392.15 561.79,394.17 562.28,390.35 562.78,391.27 563.27,393.03 563.77,394.31 564.26,393.95 564.76,393.67 565.25,391.62 565.75,391.51 566.25,391.43 566.74,391.39 567.24,391.33 567.73,391.34 568.23,391.26 568.72,391.24 569.22,391.23 569.71,391.24 570.21,391.24 570.70,391.26 571.20,391.25 571.69,391.30 572.19,391.24 572.68,391.25 573.18,391.26 573.67,391.28 574.17,391.29 574.66,391.31 575.16,391.30 575.65,391.36 576.15,391.30 576.64,391.32 577.14,391.33 577.64,391.34 578.13,391.34 578.63,391.37 579.12,391.35 579.62,391.35 580.11,391.36 580.61,391.37 581.10,391.38 581.60,391.39 582.09,391.39 582.59,391.42 583.08,391.39 583.58,391.40 584.07,391.40 584.57,391.41 585.06,391.42 585.56,391.43 586.05,391.42 586.55,391.45 587.04,391.43 587.54,391.43 588.03,391.44 588.53,391.45 589.03,391.45 589.52,391.46 590.02,391.45 590.51,391.45 591.01,391.45 591.50,391.46 592.00,391.46 592.49,391.47 592.99,391.47 593.48,391.48 593.98,391.47 594.47,391.47 594.97,391.48 595.46,391.48 595.96,391.48 596.45,391.49 596.95,391.49 597.44,391.50 597.94,391.49 598.43,391.49 598.93,391.49 599.42,391.50 599.92,391.50 600.42,391.50 600.91,391.50 601.41,391.50 601.90,391.50 602.40,391.50 602.89,391.50 603.39,391.51 603.88,391.51 604.38,391.51 604.87,391.51 605.37,391.51 605.86,391.51 606.36,391.51 606.85,391.51 607.35,391.51 607.84,391.51 608.34,391.52 608.83,391.51 609.33,391.52 609.82,391.52 610.32,391.52 610.81,391.52 611.31,391.52 611.81,391.52 612.30,391.52 612.80,391.52 613.29,391.52 613.79,391.52 614.28,391.52 614.78,391.52 615.27,391.52 615.77,391.52 616.26,391.52 616.76,391.52 617.25,391.52 617.75,391.53 618.24,391.53 618.74,391.53 619.23,391.53 619.73,391.53 620.22,391.53 620.72,391.53 621.21,391.53 621.71,391.53 622.20,391.53 622.70,391.53 623.20,391.53 623.69,391.53 624.19,391.53 624.68,391.53 625.18,391.53 625.67,391.53 626.17,391.53 626.66,391.53 627.16,391.53 627.65,391.53 628.15,391.53 628.64,391.53 629.14,391.53 629.63,391.53 630.13,391.53 630.62,391.53 631.12,391.53 631.61,391.53 632.11,391.53 632.60,391.53 633.10,391.53 633.59,391.54 634.09,391.54 634.59,391.54 635.08,391.54 635.58,391.54 636.07,391.54 636.57,391.54 637.06,391.54 637.56,391.54 638.05,391.54 638.55,391.54 639.04,391.54 639.54,391.54 640.03,391.54 640.53,391.54 641.02,391.54 641.52,391.54 642.01,391.54 642.51,391.54 643.00,391.54 643.50,391.54 643.99,391.54 644.49,391.54 644.98,391.54 645.48,391.54 645.98,391.54 646.47,391.54 646.97,391.54 647.46,391.54 647.96,391.54 648.45,391.54 648.95,391.54 649.44,391.54 649.94,391.54 650.43,391.54 650.93,391.54 651.42,391.54 651.92,391.54 652.41,391.54 652.91,391.54 653.40,391.54 653.90,391.54 654.39,391.54 654.89,391.54 655.38,391.54 655.88,391.54 656.37,391.54 656.87,391.54 657.37,391.54 657.86,391.54 658.36,391.54 658.85,391.54 659.35,391.55 659.84,391.54 660.34,391.54 660.83,391.54 661.33,391.54 661.82,391.54 662.32,391.54 662.81,391.54 663.31,391.55 663.80,391.55 664.30,391.55 664.79,391.54 665.29,391.54 665.78,391.54 666.28,391.55 666.77,391.55 667.27,391.55 667.76,391.55 668.26,391.55 668.76,391.54 669.25,391.55 669.75,391.54 670.24,391.55 670.74,391.55 671.23,391.55 671.73,391.55 672.22,391.55 672.72,391.54 673.21,391.55 673.71,391.54 674.20,391.55 674.70,391.54 675.19,391.54 675.69,391.54 676.18,391.54 676.68,391.54 677.17,391.54 677.67,391.54 678.16,391.54 678.66,391.54 679.15,391.54 679.65,391.54 680.15,391.54 680.64,391.54 681.14,391.54 681.63,391.54 682.13,391.54 682.62,391.54 683.12,391.54 683.61,391.54 684.11,391.54 684.60,391.54 685.10,391.54 685.59,391.54 686.09,391.54 686.58,391.54 687.08,391.54 687.57,391.54 688.07,391.54 688.56,391.54 689.06,391.54 689.55,391.54 690.05,391.54 690.54,391.54 691.04,391.54 691.54,391.54 692.03,391.54 692.53,391.54 693.02,391.54 693.52,391.54 694.01,391.54 694.51,391.54 695.00,391.54 695.50,391.54 695.99,391.67 696.49,391.67 696.98,391.68 697.48,391.68 697.97,391.68 698.47,391.68 698.96,391.69 699.46,391.69 699.95,391.69 700.45,391.69 700.94,391.69 701.44,391.69 701.93,391.69 702.43,391.69 702.93,391.69 703.42,391.69 703.92,391.69 704.41,391.69 704.91,391.69 705.40,391.69 705.90,391.69 706.39,391.69 706.89,391.69 707.38,391.69 707.88,391.69 708.37,391.69 708.87,391.69 709.36,391.69 709.86,391.69 710.35,391.69 710.85,391.69 711.34,391.69 711.84,391.69 712.33,391.69 712.83,391.69 713.32,391.69 713.82,391.69 714.32,391.69 714.81,391.69 715.31,391.69 715.80,391.69 716.30,391.69 716.79,391.69 717.29,391.69 717.78,391.69 718.28,391.69 718.77,391.69 719.27,391.69 719.76,391.69 720.26,391.69 720.75,391.69 721.25,391.69 721.74,391.69 722.24,391.69 722.73,391.69 723.23,391.69 723.72,391.69 724.22,391.69 724.71,391.57 725.21,391.56 725.71,391.56 726.20,391.55 726.70,391.55 727.19,391.55 727.69,391.54 728.18,391.54 728.68,391.54 729.17,391.54 729.67,391.54 730.16,391.54 730.66,391.54 731.15,391.54 731.65,391.54 732.14,391.54 732.64,391.54 733.13,391.54 733.63,391.54 734.12,391.54 734.62,391.54 735.11,391.54 735.61,391.54 736.10,391.54 736.60,391.54 737.10,391.54 737.59,391.54 738.09,391.54 738.58,391.54 739.08,391.54 739.57,391.54 740.07,391.54 740.56,391.54 741.06,391.54 741.55,391.54 742.05,391.54 742.54,391.54 743.04,391.55 743.53,391.55 744.03,391.55 744.52,391.55 745.02,391.55 745.51,391.55 746.01,391.55 746.50,391.55 747.00,391.55 747.49,391.55 747.99,391.55 748.49,391.55 748.98,391.55 749.48,391.55 749.97,391.55 750.47,391.55 750.96,391.55 751.46,391.55 751.95,391.55 752.45,391.55 752.94,391.55 753.44,391.55 753.93,391.55 754.43,391.55 754.92,391.55 755.42,391.55 755.91,391.55 756.41,391.55 756.90,391.55 757.40,391.55 757.89,391.55 758.39,391.55 758.88,391.55 759.38,391.55 759.88,391.55 760.37,391.55 760.87,391.55 761.36,391.55 761.86,391.55 762.35,391.55 762.85,391.55 763.34,391.55 763.84,391.55 764.33,391.55 764.83,391.55 765.32,391.55 765.82,391.55 766.31,391.55 766.81,391.55 767.30,391.55 767.80,391.55 768.29,391.55 768.79,391.55 769.28,391.55 769.78,391.55 770.27,391.55 770.77,391.55 771.27,391.55 771.76,391.55 772.26,391.55 772.75,391.55 773.25,391.55 773.74,391.55 774.24,391.55 774.73,391.55 775.23,391.55 775.72,391.54 776.22,391.54 776.71,391.54 777.21,391.54 777.70,391.54 778.20,391.54 778.69,391.54 779.19,391.54 779.68,391.54 780.18,391.54 780.67,391.54 781.17,391.54 781.66,391.54 782.16,391.54 782.66,391.54 783.15,391.54 783.65,391.54 784.14,391.54 784.64,391.54 785.13,391.54 785.63,391.54 786.12,391.54 786.62,391.66 787.11,391.67 787.61,391.67 788.10,391.68 788.60,391.68 789.09,391.68 789.59,391.68 790.08,391.69 790.58,391.69 791.07,391.69 791.57,391.69 792.06,391.69 792.56,391.69 793.05,391.69 793.55,391.69 794.05,391.69 794.54,391.69 795.04,391.69 795.53,391.69 796.03,391.69 796.52,391.69 797.02,391.69 797.51,391.69 798.01,391.69 798.50,391.69 799.00,391.70 799.49,391.71 799.99,391.72 800.48,391.73 800.98,391.74 801.47,391.76 801.97,391.74 802.46,391.78 802.96,391.60 803.45,391.72 803.95,390.42 804.44,388.68 804.94,386.59 805.44,384.45 805.93,382.28 806.43,379.94 806.92,377.63 807.42,375.10 807.91,372.52 808.41,369.90 808.90,368.49 809.40,355.20 809.89,346.49 810.39,354.39 810.88,341.41 811.38,343.71 811.87,343.86 812.37,328.24 812.86,324.13 813.36,320.88 813.85,318.39 814.35,315.86 814.84,315.10 815.34,314.34 815.83,314.78 816.33,316.10 816.82,318.01 817.32,320.28 817.82,323.21 818.31,326.49 818.81,330.49 819.30,334.78 819.80,339.59 820.29,344.83 820.79,349.88 821.28,354.31 821.78,359.18 822.27,374.07 822.77,379.12 823.26,380.62 823.76,380.67 824.25,380.63 824.75,380.47 825.24,380.34 825.74,380.21 826.23,379.87 826.73,379.08 827.22,378.17 827.72,376.75 828.21,369.23 828.71,358.42 829.21,355.43 829.70,350.87 830.20,345.09 830.69,345.74 831.19,353.82 831.68,360.56 832.18,343.28 832.67,342.49 833.17,341.55 833.66,341.40 834.16,340.15 834.65,340.80 835.15,342.52 835.64,344.83 836.14,350.20 836.63,353.32 837.13,355.28 837.62,358.89 838.12,360.96 838.61,363.29 839.11,365.59 839.60,378.68 840.10,382.35 840.60,385.03 841.09,383.30 841.59,381.11 842.08,377.76 842.58,374.58 843.07,370.73 843.57,367.20 844.06,357.35 844.56,350.52 845.05,347.10 845.55,343.96 846.04,341.45 846.54,338.74 847.03,342.50 847.53,336.57 848.02,337.23 848.52,338.83 849.01,340.48 849.51,342.50 850.00,345.17 850.50,348.35 850.99,351.56 851.49,354.75 851.99,357.91 852.48,361.15 852.98,373.20 853.47,377.87 853.97,382.24 854.46,384.50 854.96,383.74 855.45,382.85 855.95,382.08 856.44,380.26 856.94,380.88 857.43,379.62 857.93,379.35 858.42,379.02 858.92,378.72 859.41,379.54 859.91,379.47 860.40,378.82 860.90,374.33 861.39,377.74 861.89,379.74 862.38,381.18 862.88,382.71 863.38,384.79 863.87,386.14 864.37,387.22 864.86,387.62 865.36,388.47 865.85,389.62 866.35,390.57 866.84,391.36 867.34,390.88 867.83,389.77 868.33,388.96 868.82,388.01 869.32,387.41 869.81,386.67 870.31,386.20 870.80,385.35 871.30,387.11 871.79,385.73 872.29,384.75 872.78,383.96 873.28,377.58 873.77,381.68 874.27,373.14 874.77,376.25 875.26,372.30 875.76,375.33 876.25,371.78 876.75,375.37 877.24,372.03 877.74,380.86 878.23,372.78 878.73,381.55 879.22,377.91 879.72,381.36 880.21,380.50 880.71,380.19 881.20,382.83 881.70,380.30 882.19,379.10 882.69,378.35 883.18,377.67 883.68,377.16 884.17,382.15 884.67,383.15 885.16,385.39 885.66,385.75 886.16,386.82 886.65,387.66 887.15,388.34 887.64,388.88 888.14,391.29 888.63,391.60 889.13,391.83 889.62,392.01 890.12,392.13 890.61,392.23 891.11,392.30 891.60,392.35 892.10,392.39 892.59,392.42 893.09,392.43 893.58,392.45 894.08,392.46 894.57,392.46 895.07,392.47 895.56,392.47 896.06,392.48 896.55,392.48 897.05,392.48 897.55,392.48 898.04,392.48 898.54,392.48 899.03,392.49 899.53,392.49 900.02,392.49 900.52,392.49 901.01,392.50 901.51,392.50 902.00,392.50 902.50,392.50 902.99,392.51 903.49,392.51 903.98,392.51 904.48,392.52 904.97,392.52 905.47,392.52 905.96,392.53 906.46,392.53 906.95,392.53 907.45,392.54 907.94,392.54 908.44,392.54 908.94,392.55 909.43,392.55 909.93,392.55 910.42,392.56 910.92,392.56 911.41,392.56 911.91,392.57 912.40,392.57 912.90,392.57 913.39,392.58 913.89,392.58 914.38,392.58 914.88,392.59 915.37,392.59 915.87,392.59 916.36,392.60 916.86,392.60 917.35,392.60 917.85,392.60 918.34,392.61 918.84,392.61 919.33,392.61 919.83,392.61 920.33,392.62 920.82,392.62 921.32,392.62 921.81,392.62 922.31,392.62 922.80,392.63 923.30,392.63 923.79,392.63 924.29,392.63 924.78,392.63 925.28,392.63 925.77,392.63 926.27,392.63 926.76,392.64 927.26,392.64 927.75,392.64 928.25,392.64 928.74,392.64 929.24,392.64 929.73,392.64 930.23,392.64 930.72,392.64 931.22,392.64 931.72,392.64 932.21,392.64 932.71,392.64 933.20,392.64 933.70,392.64 934.19,392.64 934.69,392.64 935.18,392.64 935.68,392.64 936.17,392.64 936.67,392.64 937.16,392.64 937.66,392.64 938.15,392.64 938.65,392.64 939.14,392.64 939.64,392.64 940.13,392.64 940.63,392.64 941.12,392.64 941.62,392.64 942.11,392.64 942.61,392.64 943.11,392.64 943.60,392.64 944.10,392.64 944.59,392.64 945.09,392.64 945.58,392.64 946.08,392.64 946.57,392.64 947.07,392.64 947.56,392.64 948.06,392.64 948.55,392.64 949.05,392.64 949.54,392.64 950.04,392.63 950.53,392.63 951.03,392.63 951.52,392.63 952.02,392.63 952.51,392.63 953.01,392.63 953.50,392.63 954.00,392.63"/>
<polyline fill="none" stroke="#1f77b4" stroke-width="2.4" points="74.00,430.02 74.50,430.02 74.99,430.02 75.49,430.02 75.98,430.02 76.48,430.02 76.97,430.02 77.47,430.02 77.96,430.02 78.46,430.02 78.95,430.02 79.45,430.02 79.94,430.02 80.44,430.02 80.93,430.02 81.43,430.02 81.92,430.02 82.42,430.02 82.91,430.02 83.41,430.02 83.90,430.02 84.40,430.02 84.89,430.02 85.39,430.02 85.89,430.02 86.38,430.02 86.88,430.02 87.37,430.02 87.87,430.02 88.36,430.02 88.86,430.02 89.35,430.02 89.85,430.02 90.34,430.02 90.84,430.02 91.33,430.02 91.83,430.02 92.32,430.02 92.82,430.02 93.31,430.02 93.81,430.02 94.30,430.02 94.80,430.02 95.29,430.02 95.79,430.02 96.28,430.02 96.78,430.02 97.28,430.02 97.77,430.02 98.27,430.02 98.76,430.02 99.26,430.02 99.75,430.02 100.25,430.02 100.74,430.02 101.24,430.02 101.73,430.02 102.23,430.02 102.72,430.02 103.22,430.02 103.71,430.02 104.21,430.02 104.70,430.02 105.20,430.02 105.69,430.02 106.19,430.02 106.68,430.02 107.18,430.02 107.67,430.02 108.17,430.02 108.67,430.02 109.16,430.02 109.66,430.02 110.15,430.02 110.65,430.02 111.14,430.02 111.64,430.02 112.13,430.02 112.63,430.02 113.12,430.02 113.62,430.02 114.11,430.02 114.61,430.02 115.10,430.02 115.60,430.02 116.09,430.02 116.59,430.02 117.08,430.02 117.58,430.02 118.07,430.02 118.57,430.02 119.06,430.02 119.56,430.02 120.06,430.02 120.55,430.02 121.05,430.02 121.54,430.02 122.04,430.02 122.53,430.02 123.03,430.02 123.52,430.02 124.02,430.02 124.51,430.02 125.01,430.02 125.50,430.02 126.00,430.02 126.49,430.02 126.99,430.02 127.48,430.02 127.98,430.02 128.47,430.02 128.97,430.02 129.46,430.02 129.96,430.02 130.45,430.02 130.95,430.02 131.45,430.02 131.94,430.02 132.44,430.02 132.93,430.02 133.43,430.02 133.92,430.02 134.42,430.02 134.91,430.02 135.41,430.02 135.90,430.02 136.40,430.02 136.89,430.02 137.39,430.02 137.88,430.02 138.38,430.02 138.87,430.02 139.37,430.02 139.86,430.02 140.36,430.02 140.85,430.02 141.35,430.02 141.84,430.02 142.34,430.02 142.84,430.02 143.33,430.02 143.83,430.02 144.32,430.02 144.82,430.02 145.31,430.02 145.81,430.02 146.30,430.02 146.80,430.02 147.29,430.02 147.79,430.02 148.28,430.02 148.78,430.02 149.27,430.02 149.77,430.02 150.26,430.02 150.76,430.02 151.25,430.02 151.75,430.02 152.24,430.02 152.74,430.02 153.23,430.02 153.73,430.02 154.23,430.02 154.72,430.02 155.22,430.02 155.71,430.02 156.21,430.02 156.70,430.02 157.20,430.02 157.69,430.02 158.19,430.02 158.68,430.02 159.18,430.02 159.67,430.02 160.17,430.02 160.66,430.02 161.16,430.02 161.65,430.02 162.15,430.02 162.64,430.02 163.14,430.02 163.63,430.02 164.13,430.02 164.62,430.02 165.12,430.02 165.62,430.02 166.11,430.02 166.61,430.02 167.10,430.02 167.60,430.02 168.09,430.02 168.59,430.02 169.08,430.02 169.58,430.02 170.07,430.02 170.57,430.02 171.06,430.02 171.56,430.02 172.05,430.02 172.55,430.02 173.04,430.02 173.54,430.02 174.03,430.02 174.53,430.02 175.02,430.02 175.52,430.02 176.01,430.02 176.51,430.02 177.01,430.02 177.50,430.02 178.00,430.02 178.49,430.02 178.99,430.02 179.48,430.02 179.98,430.02 180.47,430.02 180.97,430.02 181.46,430.02 181.96,430.02 182.45,430.02 182.95,430.02 183.44,430.02 183.94,430.02 184.43,430.02 184.93,430.02 185.42,430.02 185.92,430.02 186.41,430.02 186.91,430.02 187.40,430.02 187.90,430.02 188.40,430.02 188.89,430.02 189.39,430.02 189.88,430.02 190.38,430.02 190.87,430.02 191.37,430.02 191.86,430.02 192.36,430.02 192.85,430.02 193.35,430.02 193.84,430.02 194.34,430.02 194.83,430.02 195.33,430.02 195.82,430.02 196.32,430.02 196.81,430.02 197.31,430.02 197.80,430.02 198.30,430.02 198.79,430.02 199.29,430.02 199.79,430.02 200.28,430.02 200.78,430.02 201.27,430.02 201.77,430.02 202.26,430.02 202.76,430.02 203.25,430.02 203.75,430.02 204.24,430.02 204.74,430.02 205.23,430.02 205.73,430.02 206.22,430.02 206.72,430.02 207.21,430.02 207.71,430.02 208.20,430.02 208.70,430.02 209.19,430.02 209.69,430.02 210.18,430.02 210.68,430.02 211.18,430.02 211.67,430.02 212.17,430.02 212.66,430.02 213.16,430.02 213.65,430.02 214.15,430.02 214.64,430.02 215.14,430.02 215.63,430.02 216.13,430.02 216.62,430.02 217.12,430.02 217.61,430.02 218.11,430.02 218.60,430.02 219.10,430.02 219.59,430.02 220.09,430.02 220.58,430.02 221.08,430.02 221.57,430.02 222.07,430.02 222.56,430.02 223.06,430.02 223.56,430.02 224.05,430.02 224.55,430.02 225.04,430.02 225.54,430.02 226.03,430.02 226.53,430.02 227.02,430.02 227.52,430.02 228.01,430.02 228.51,430.02 229.00,430.02 229.50,430.02 229.99,430.02 230.49,430.02 230.98,430.02 231.48,430.02 231.97,430.02 232.47,430.02 232.96,430.02 233.46,430.02 233.95,430.02 234.45,430.02 234.95,430.02 235.44,430.02 235.94,430.02 236.43,430.02 236.93,430.02 237.42,430.02 237.92,430.02 238.41,430.02 238.91,430.02 239.40,430.02 239.90,430.02 240.39,430.02 240.89,430.02 241.38,430.02 241.88,430.02 242.37,430.02 242.87,430.02 243.36,430.02 243.86,430.02 244.35,430.02 244.85,430.02 245.34,430.02 245.84,430.02 246.34,430.02 246.83,430.02 247.33,430.02 247.82,430.02 248.32,430.02 248.81,430.02 249.31,430.02 249.80,430.02 250.30,430.02 250.79,430.02 251.29,430.02 251.78,430.02 252.28,430.02 252.77,430.02 253.27,430.02 253.76,430.02 254.26,430.02 254.75,430.02 255.25,430.02 255.74,430.02 256.24,430.02 256.73,430.02 257.23,430.02 257.73,430.02 258.22,430.02 258.72,430.02 259.21,430.02 259.71,430.02 260.20,430.02 260.70,430.02 261.19,430.02 261.69,430.02 262.18,430.02 262.68,430.02 263.17,430.02 263.67,430.02 264.16,430.02 264.66,430.02 265.15,430.02 265.65,430.02 266.14,430.02 266.64,430.02 267.13,430.02 267.63,430.02 268.12,430.02 268.62,430.02 269.12,430.02 269.61,430.02 270.11,430.02 270.60,430.02 271.10,430.02 271.59,430.02 272.09,430.02 272.58,430.02 273.08,430.02 273.57,430.02 274.07,430.02 274.56,430.02 275.06,430.02 275.55,430.02 276.05,430.02 276.54,430.02 277.04,430.02 277.53,430.02 278.03,430.02 278.52,430.02 279.02,430.02 279.51,430.02 280.01,430.02 280.51,430.02 281.00,430.02 281.50,430.02 281.99,430.02 282.49,430.02 282.98,430.02 283.48,430.02 283.97,430.02 284.47,430.02 284.96,430.02 285.46,430.02 285.95,430.02 286.45,430.02 286.94,430.02 287.44,430.02 287.93,430.02 288.43,430.02 288.92,430.02 289.42,430.02 289.91,430.02 290.41,430.02 290.90,430.02 291.40,430.02 291.90,430.02 292.39,430.02 292.89,430.02 293.38,430.02 293.88,430.02 294.37,430.02 294.87,430.02 295.36,430.02 295.86,430.02 296.35,430.02 296.85,430.02 297.34,430.02 297.84,430.02 298.33,430.02 298.83,430.02 299.32,430.02 299.82,430.02 300.31,430.02 300.81,430.02 301.30,430.02 301.80,430.02 302.29,430.02 302.79,430.02 303.29,430.02 303.78,430.02 304.28,430.02 304.77,430.02 305.27,430.02 305.76,430.02 306.26,430.02 306.75,430.02 307.25,430.02 307.74,430.02 308.24,430.02 308.73,430.02 309.23,430.02 309.72,430.02 310.22,430.02 310.71,430.02 311.21,430.02 311.70,430.02 312.20,430.02 312.69,430.02 313.19,430.02 313.68,430.02 314.18,430.02 314.68,430.02 315.17,430.02 315.67,430.02 316.16,430.02 316.66,430.02 317.15,430.02 317.65,430.02 318.14,430.02 318.64,430.02 319.13,430.02 319.63,430.02 320.12,430.02 320.62,430.02 321.11,430.02 321.61,430.02 322.10,430.02 322.60,430.02 323.09,430.02 323.59,430.02 324.08,430.02 324.58,430.02 325.07,430.02 325.57,430.02 326.07,430.02 326.56,430.02 327.06,430.02 327.55,430.02 328.05,430.02 328.54,430.02 329.04,430.02 329.53,430.02 330.03,430.02 330.52,430.02 331.02,430.02 331.51,430.02 332.01,430.02 332.50,430.02 333.00,430.02 333.49,430.02 333.99,430.02 334.48,430.02 334.98,430.02 335.47,430.02 335.97,430.02 336.46,430.02 336.96,430.02 337.46,430.02 337.95,430.02 338.45,430.02 338.94,430.02 339.44,430.02 339.93,430.02 340.43,430.02 340.92,430.02 341.42,430.02 341.91,430.02 342.41,430.02 342.90,430.02 343.40,430.02 343.89,430.02 344.39,430.02 344.88,430.02 345.38,430.02 345.87,430.02 346.37,430.02 346.86,430.02 347.36,430.02 347.85,430.02 348.35,430.02 348.85,430.02 349.34,430.02 349.84,430.02 350.33,430.02 350.83,430.02 351.32,430.02 351.82,430.02 352.31,430.02 352.81,430.02 353.30,430.02 353.80,430.02 354.29,430.02 354.79,430.02 355.28,430.02 355.78,430.02 356.27,430.02 356.77,430.02 357.26,430.02 357.76,430.02 358.25,430.02 358.75,430.02 359.24,430.03 359.74,430.03 360.24,430.03 360.73,430.03 361.23,430.04 361.72,430.04 362.22,430.04 362.71,430.05 363.21,430.05 363.70,430.06 364.20,430.06 364.69,430.07 365.19,430.07 365.68,430.08 366.18,430.08 366.67,430.09 367.17,430.10 367.66,430.10 368.16,430.11 368.65,430.12 369.15,430.12 369.64,430.13 370.14,430.14 370.63,430.15 371.13,430.15 371.63,430.16 372.12,430.17 372.62,430.18 373.11,430.19 373.61,430.19 374.10,430.20 374.60,430.21 375.09,430.22 375.59,430.23 376.08,430.24 376.58,430.25 377.07,430.26 377.57,430.27 378.06,430.28 378.56,430.29 379.05,430.30 379.55,430.31 380.04,430.32 380.54,430.33 381.03,430.34 381.53,430.35 382.02,430.36 382.52,430.37 383.02,430.38 383.51,430.39 384.01,430.40 384.50,430.41 385.00,430.41 385.49,430.41 385.99,430.41 386.48,430.41 386.98,430.41 387.47,430.41 387.97,430.41 388.46,430.41 388.96,430.41 389.45,430.41 389.95,430.41 390.44,430.41 390.94,430.41 391.43,430.41 391.93,430.41 392.42,430.41 392.92,430.41 393.41,430.41 393.91,430.41 394.41,430.41 394.90,430.41 395.40,430.41 395.89,430.41 396.39,430.41 396.88,430.41 397.38,430.41 397.87,430.41 398.37,430.41 398.86,430.41 399.36,430.41 399.85,430.41 400.35,430.41 400.84,430.41 401.34,430.41 401.83,430.41 402.33,430.41 402.82,430.41 403.32,430.41 403.81,430.41 404.31,430.41 404.80,430.41 405.30,430.41 405.80,430.41 406.29,430.41 406.79,430.41 407.28,430.41 407.78,430.41 408.27,430.41 408.77,430.41 409.26,430.41 409.76,430.41 410.25,430.41 410.75,430.41 411.24,430.41 411.74,430.41 412.23,430.41 412.73,430.41 413.22,430.41 413.72,430.41 414.21,430.41 414.71,430.41 415.20,430.41 415.70,430.41 416.19,430.41 416.69,430.41 417.19,430.41 417.68,430.41 418.18,430.41 418.67,430.41 419.17,430.41 419.66,430.41 420.16,430.41 420.65,430.41 421.15,430.41 421.64,430.41 422.14,430.41 422.63,430.41 423.13,430.41 423.62,430.41 424.12,430.41 424.61,430.41 425.11,430.41 425.60,430.41 426.10,430.41 426.59,430.41 427.09,430.41 427.58,430.41 428.08,430.41 428.58,430.41 429.07,430.41 429.57,430.41 430.06,430.41 430.56,430.41 431.05,430.41 431.55,430.41 432.04,430.41 432.54,430.41 433.03,430.41 433.53,430.41 434.02,430.41 434.52,430.41 435.01,430.41 435.51,430.41 436.00,430.41 436.50,430.41 436.99,430.41 437.49,430.41 437.98,430.41 438.48,430.41 438.97,430.41 439.47,430.41 439.97,430.41 440.46,430.41 440.96,430.41 441.45,430.41 441.95,430.41 442.44,430.41 442.94,430.41 443.43,430.41 443.93,430.41 444.42,430.41 444.92,430.41 445.41,430.41 445.91,430.41 446.40,430.41 446.90,430.41 447.39,430.41 447.89,430.41 448.38,430.41 448.88,430.41 449.37,430.41 449.87,430.41 450.36,430.41 450.86,430.41 451.36,430.41 451.85,430.41 452.35,430.41 452.84,430.41 453.34,430.41 453.83,430.41 454.33,430.41 454.82,430.41 455.32,430.41 455.81,430.41 456.31,430.41 456.80,430.41 457.30,430.41 457.79,430.41 458.29,430.41 458.78,430.41 459.28,430.41 459.77,430.41 460.27,430.41 460.76,430.41 461.26,430.41 461.75,430.41 462.25,430.41 462.75,430.41 463.24,430.41 463.74,430.41 464.23,430.41 464.73,430.41 465.22,430.41 465.72,430.41 466.21,430.41 466.71,430.41 467.20,430.41 467.70,430.41 468.19,430.41 468.69,430.41 469.18,430.41 469.68,430.41 470.17,430.41 470.67,430.41 471.16,430.41 471.66,430.41 472.15,430.41 472.65,430.41 473.14,430.41 473.64,430.41 474.14,430.41 474.63,430.41 475.13,430.41 475.62,430.41 476.12,430.41 476.61,430.41 477.11,430.41 477.60,430.41 478.10,430.41 478.59,430.41 479.09,430.41 479.58,430.41 480.08,430.41 480.57,430.41 481.07,430.41 481.56,430.41 482.06,430.41 482.55,430.41 483.05,430.41 483.54,430.41 484.04,430.41 484.53,430.41 485.03,430.41 485.53,430.41 486.02,430.41 486.52,430.41 487.01,430.41 487.51,430.41 488.00,430.41 488.50,430.41 488.99,430.41 489.49,430.41 489.98,430.41 490.48,430.41 490.97,430.41 491.47,430.41 491.96,430.41 492.46,430.41 492.95,430.41 493.45,430.41 493.94,430.41 494.44,430.41 494.93,430.41 495.43,430.41 495.92,430.41 496.42,430.41 496.92,430.41 497.41,430.41 497.91,430.41 498.40,430.41 498.90,430.41 499.39,430.41 499.89,430.41 500.38,430.41 500.88,430.41 501.37,430.41 501.87,430.41 502.36,430.41 502.86,430.41 503.35,430.41 503.85,430.41 504.34,430.41 504.84,430.41 505.33,430.41 505.83,430.41 506.32,430.41 506.82,430.41 507.31,430.41 507.81,430.41 508.31,430.41 508.80,430.41 509.30,430.41 509.79,430.41 510.29,430.41 510.78,430.41 511.28,430.41 511.77,430.41 512.27,430.41 512.76,430.41 513.26,430.41 513.75,430.41 514.25,430.41 514.74,430.41 515.24,430.41 515.73,430.41 516.23,430.41 516.72,430.41 517.22,430.41 517.71,430.41 518.21,430.41 518.70,430.41 519.20,430.41 519.69,430.41 520.19,430.41 520.69,430.41 521.18,430.41 521.68,430.41 522.17,430.41 522.67,430.41 523.16,430.41 523.66,430.41 524.15,430.41 524.65,430.41 525.14,430.41 525.64,430.41 526.13,430.41 526.63,430.41 527.12,430.41 527.62,430.41 528.11,430.41 528.61,430.41 529.10,430.41 529.60,430.41 530.09,430.41 530.59,430.41 531.08,430.41 531.58,430.41 532.08,430.41 532.57,430.41 533.07,430.41 533.56,430.41 534.06,430.41 534.55,430.41 535.05,430.41 535.54,430.41 536.04,430.41 536.53,430.41 537.03,430.41 537.52,430.41 538.02,430.41 538.51,430.41 539.01,430.41 539.50,430.41 540.00,430.41 540.49,430.41 540.99,430.41 541.48,430.41 541.98,430.41 542.47,430.41 542.97,430.41 543.47,430.41 543.96,430.41 544.46,430.41 544.95,430.41 545.45,430.41 545.94,430.41 546.44,430.41 546.93,430.41 547.43,430.41 547.92,430.41 548.42,430.41 548.91,430.41 549.41,430.41 549.90,430.41 550.40,430.41 550.89,430.41 551.39,430.41 551.88,430.41 552.38,430.41 552.87,430.41 553.37,430.41 553.86,430.41 554.36,430.41 554.86,430.41 555.35,430.41 555.85,430.41 556.34,430.41 556.84,430.41 557.33,430.41 557.83,430.41 558.32,430.41 558.82,430.41 559.31,430.41 559.81,430.41 560.30,430.41 560.80,430.41 561.29,430.41 561.79,430.41 562.28,430.41 562.78,430.41 563.27,430.41 563.77,430.41 564.26,430.41 564.76,430.41 565.25,430.41 565.75,430.41 566.25,430.41 566.74,430.41 567.24,430.41 567.73,430.41 568.23,430.41 568.72,430.41 569.22,430.41 569.71,430.41 570.21,430.41 570.70,430.41 571.20,430.41 571.69,430.41 572.19,430.41 572.68,430.41 573.18,430.41 573.67,430.41 574.17,430.41 574.66,430.41 575.16,430.41 575.65,430.41 576.15,430.41 576.64,430.41 577.14,430.41 577.64,430.41 578.13,430.41 578.63,430.41 579.12,430.41 579.62,430.41 580.11,430.41 580.61,430.41 581.10,430.41 581.60,430.41 582.09,430.41 582.59,430.41 583.08,430.41 583.58,430.41 584.07,430.41 584.57,430.41 585.06,430.41 585.56,430.41 586.05,430.41 586.55,430.41 587.04,430.41 587.54,430.41 588.03,430.41 588.53,430.41 589.03,430.41 589.52,430.41 590.02,430.41 590.51,430.41 591.01,430.41 591.50,430.41 592.00,430.41 592.49,430.41 592.99,430.41 593.48,430.41 593.98,430.41 594.47,430.41 594.97,430.41 595.46,430.41 595.96,430.41 596.45,430.41 596.95,430.41 597.44,430.41 597.94,430.41 598.43,430.41 598.93,430.41 599.42,430.41 599.92,430.41 600.42,430.41 600.91,430.41 601.41,430.41 601.90,430.41 602.40,430.41 602.89,430.41 603.39,430.41 603.88,430.41 604.38,430.41 604.87,430.41 605.37,430.41 605.86,430.41 606.36,430.41 606.85,430.41 607.35,430.41 607.84,430.41 608.34,430.41 608.83,430.41 609.33,430.41 609.82,430.41 610.32,430.41 610.81,430.41 611.31,430.41 611.81,430.41 612.30,430.41 612.80,430.41 613.29,430.41 613.79,430.41 614.28,430.41 614.78,430.41 615.27,430.41 615.77,430.41 616.26,430.41 616.76,430.41 617.25,430.41 617.75,430.41 618.24,430.41 618.74,430.41 619.23,430.41 619.73,430.41 620.22,430.41 620.72,430.41 621.21,430.41 621.71,430.41 622.20,430.41 622.70,430.41 623.20,430.41 623.69,430.41 624.19,430.41 624.68,430.41 625.18,430.41 625.67,430.41 626.17,430.41 626.66,430.41 627.16,430.41 627.65,430.41 628.15,430.41 628.64,430.41 629.14,430.41 629.63,430.41 630.13,430.41 630.62,430.41 631.12,430.41 631.61,430.41 632.11,430.41 632.60,430.41 633.10,430.41 633.59,430.41 634.09,430.41 634.59,430.41 635.08,430.41 635.58,430.41 636.07,430.41 636.57,430.41 637.06,430.41 637.56,430.41 638.05,430.41 638.55,430.41 639.04,430.41 639.54,430.41 640.03,430.41 640.53,430.41 641.02,430.41 641.52,430.41 642.01,430.41 642.51,430.41 643.00,430.41 643.50,430.41 643.99,430.41 644.49,430.41 644.98,430.41 645.48,430.41 645.98,430.41 646.47,430.41 646.97,430.41 647.46,430.41 647.96,430.41 648.45,430.41 648.95,430.41 649.44,430.41 649.94,430.41 650.43,430.41 650.93,430.41 651.42,430.41 651.92,430.41 652.41,430.41 652.91,430.41 653.40,430.41 653.90,430.41 654.39,430.41 654.89,430.41 655.38,430.41 655.88,430.41 656.37,430.41 656.87,430.41 657.37,430.41 657.86,430.41 658.36,430.41 658.85,430.41 659.35,430.41 659.84,430.41 660.34,430.41 660.83,430.41 661.33,430.41 661.82,430.41 662.32,430.41 662.81,430.41 663.31,430.41 663.80,430.41 664.30,430.41 664.79,430.41 665.29,430.41 665.78,430.41 666.28,430.41 666.77,430.41 667.27,430.41 667.76,430.41 668.26,430.41 668.76,430.41 669.25,430.41 669.75,430.41 670.24,430.41 670.74,430.41 671.23,430.41 671.73,430.41 672.22,430.41 672.72,430.41 673.21,430.41 673.71,430.41 674.20,430.41 674.70,430.41 675.19,430.41 675.69,430.41 676.18,430.41 676.68,430.41 677.17,430.41 677.67,430.41 678.16,430.41 678.66,430.41 679.15,430.41 679.65,430.41 680.15,430.41 680.64,430.41 681.14,430.41 681.63,430.41 682.13,430.41 682.62,430.41 683.12,430.41 683.61,430.41 684.11,430.41 684.60,430.41 685.10,430.41 685.59,430.41 686.09,430.41 686.58,430.41 687.08,430.41 687.57,430.41 688.07,430.41 688.56,430.41 689.06,430.41 689.55,430.41 690.05,430.41 690.54,430.41 691.04,430.41 691.54,430.41 692.03,430.41 692.53,430.41 693.02,430.41 693.52,430.41 694.01,430.41 694.51,430.41 695.00,430.41 695.50,430.41 695.99,430.41 696.49,430.41 696.98,430.41 697.48,430.41 697.97,430.41 698.47,430.41 698.96,430.41 699.46,430.41 699.95,430.41 700.45,430.41 700.94,430.41 701.44,430.41 701.93,430.41 702.43,430.41 702.93,430.41 703.42,430.41 703.92,430.41 704.41,430.41 704.91,430.41 705.40,430.41 705.90,430.41 706.39,430.41 706.89,430.41 707.38,430.41 707.88,430.41 708.37,430.41 708.87,430.41 709.36,430.41 709.86,430.41 710.35,430.41 710.85,430.41 711.34,430.41 711.84,430.41 712.33,430.41 712.83,430.41 713.32,430.41 713.82,430.41 714.32,430.41 714.81,430.41 715.31,430.41 715.80,430.41 716.30,430.41 716.79,430.41 717.29,430.41 717.78,430.41 718.28,430.41 718.77,430.41 719.27,430.41 719.76,430.41 720.26,430.41 720.75,430.41 721.25,430.41 721.74,430.41 722.24,430.41 722.73,430.41 723.23,430.41 723.72,430.41 724.22,430.41 724.71,430.41 725.21,430.41 725.71,430.41 726.20,430.41 726.70,430.41 727.19,430.41 727.69,430.41 728.18,430.41 728.68,430.41 729.17,430.41 729.67,430.41 730.16,430.41 730.66,430.41 731.15,430.41 731.65,430.41 732.14,430.41 732.64,430.41 733.13,430.41 733.63,430.41 734.12,430.41 734.62,430.41 735.11,430.41 735.61,430.41 736.10,430.41 736.60,430.41 737.10,430.41 737.59,430.41 738.09,430.41 738.58,430.41 739.08,430.41 739.57,430.41 740.07,430.41 740.56,430.41 741.06,430.41 741.55,430.41 742.05,430.41 742.54,430.41 743.04,430.41 743.53,430.41 744.03,430.41 744.52,430.41 745.02,430.41 745.51,430.41 746.01,430.41 746.50,430.41 747.00,430.41 747.49,430.41 747.99,430.41 748.49,430.41 748.98,430.41 749.48,430.41 749.97,430.41 750.47,430.41 750.96,430.41 751.46,430.41 751.95,430.41 752.45,430.41 752.94,430.41 753.44,430.41 753.93,430.41 754.43,430.41 754.92,430.41 755.42,430.41 755.91,430.41 756.41,430.41 756.90,430.41 757.40,430.41 757.89,430.41 758.39,430.41 758.88,430.41 759.38,430.41 759.88,430.41 760.37,430.41 760.87,430.41 761.36,430.41 761.86,430.41 762.35,430.41 762.85,430.41 763.34,430.41 763.84,430.41 764.33,430.41 764.83,430.41 765.32,430.41 765.82,430.41 766.31,430.41 766.81,430.41 767.30,430.41 767.80,430.41 768.29,430.41 768.79,430.41 769.28,430.41 769.78,430.41 770.27,430.41 770.77,430.41 771.27,430.41 771.76,430.41 772.26,430.41 772.75,430.41 773.25,430.41 773.74,430.41 774.24,430.41 774.73,430.41 775.23,430.41 775.72,430.41 776.22,430.41 776.71,430.41 777.21,430.41 777.70,430.41 778.20,430.41 778.69,430.41 779.19,430.41 779.68,430.41 780.18,430.41 780.67,430.41 781.17,430.41 781.66,430.41 782.16,430.41 782.66,430.41 783.15,430.41 783.65,430.41 784.14,430.41 784.64,430.41 785.13,430.41 785.63,430.41 786.12,430.41 786.62,430.41 787.11,430.41 787.61,430.41 788.10,430.41 788.60,430.41 789.09,430.41 789.59,430.41 790.08,430.41 790.58,430.41 791.07,430.41 791.57,430.41 792.06,430.41 792.56,430.41 793.05,430.41 793.55,430.41 794.05,430.41 794.54,430.41 795.04,430.41 795.53,430.41 796.03,430.41 796.52,430.41 797.02,430.41 797.51,430.41 798.01,430.41 798.50,430.41 799.00,430.41 799.49,430.41 799.99,430.41 800.48,430.41 800.98,430.41 801.47,430.41 801.97,430.41 802.46,430.41 802.96,430.41 803.45,430.41 803.95,430.41 804.44,430.41 804.94,430.41 805.44,430.41 805.93,430.41 806.43,430.41 806.92,430.41 807.42,430.41 807.91,430.41 808.41,430.41 808.90,430.41 809.40,430.41 809.89,430.41 810.39,430.41 810.88,430.41 811.38,430.41 811.87,430.41 812.37,430.41 812.86,430.41 813.36,430.41 813.85,430.41 814.35,430.40 814.84,430.40 815.34,430.40 815.83,430.40 816.33,430.40 816.82,430.40 817.32,430.40 817.82,430.39 818.31,430.39 818.81,430.39 819.30,430.39 819.80,430.39 820.29,430.39 820.79,430.38 821.28,430.38 821.78,430.38 822.27,430.38 822.77,430.38 823.26,430.37 823.76,430.37 824.25,430.37 824.75,430.37 825.24,430.36 825.74,430.36 826.23,430.36 826.73,430.36 827.22,430.35 827.72,430.35 828.21,430.35 828.71,430.34 829.21,430.34 829.70,430.34 830.20,430.33 830.69,430.33 831.19,430.33 831.68,430.33 832.18,430.32 832.67,430.32 833.17,430.32 833.66,430.31 834.16,430.31 834.65,430.31 835.15,430.30 835.64,430.30 836.14,430.30 836.63,430.29 837.13,430.29 837.62,430.29 838.12,430.28 838.61,430.28 839.11,430.28 839.60,430.27 840.10,430.27 840.60,430.27 841.09,430.26 841.59,430.26 842.08,430.26 842.58,430.25 843.07,430.25 843.57,430.25 844.06,430.24 844.56,430.24 845.05,430.24 845.55,430.23 846.04,430.23 846.54,430.23 847.03,430.22 847.53,430.22 848.02,430.22 848.52,430.21 849.01,430.21 849.51,430.21 850.00,430.20 850.50,430.20 850.99,430.20 851.49,430.19 851.99,430.19 852.48,430.19 852.98,430.18 853.47,430.18 853.97,430.18 854.46,430.18 854.96,430.17 855.45,430.17 855.95,430.17 856.44,430.16 856.94,430.16 857.43,430.16 857.93,430.16 858.42,430.15 858.92,430.15 859.41,430.15 859.91,430.14 860.40,430.14 860.90,430.14 861.39,430.14 861.89,430.14 862.38,430.13 862.88,430.13 863.38,430.13 863.87,430.13 864.37,430.12 864.86,430.12 865.36,430.12 865.85,430.12 866.35,430.12 866.84,430.12 867.34,430.11 867.83,430.11 868.33,430.11 868.82,430.11 869.32,430.11 869.81,430.11 870.31,430.10 870.80,430.10 871.30,430.10 871.79,430.10 872.29,430.10 872.78,430.10 873.28,430.10 873.77,430.10 874.27,430.10 874.77,430.09 875.26,430.09 875.76,430.09 876.25,430.09 876.75,430.09 877.24,430.09 877.74,430.09 878.23,430.09 878.73,430.09 879.22,430.09 879.72,430.09 880.21,430.09 880.71,430.09 881.20,430.09 881.70,430.09 882.19,430.09 882.69,430.09 883.18,430.09 883.68,430.09 884.17,430.09 884.67,430.09 885.16,430.09 885.66,430.09 886.16,430.09 886.65,430.09 887.15,430.09 887.64,430.09 888.14,430.09 888.63,430.09 889.13,430.09 889.62,430.09 890.12,430.09 890.61,430.09 891.11,430.09 891.60,430.09 892.10,430.09 892.59,430.09 893.09,430.09 893.58,430.09 894.08,430.09 894.57,430.09 895.07,430.09 895.56,430.09 896.06,430.09 896.55,430.09 897.05,430.09 897.55,430.09 898.04,430.09 898.54,430.09 899.03,430.09 899.53,430.09 900.02,430.09 900.52,430.09 901.01,430.09 901.51,430.09 902.00,430.09 902.50,430.09 902.99,430.09 903.49,430.09 903.98,430.09 904.48,430.09 904.97,430.09 905.47,430.09 905.96,430.09 906.46,430.09 906.95,430.09 907.45,430.09 907.94,430.09 908.44,430.09 908.94,430.09 909.43,430.09 909.93,430.09 910.42,430.09 910.92,430.09 911.41,430.09 911.91,430.09 912.40,430.09 912.90,430.09 913.39,430.09 913.89,430.09 914.38,430.09 914.88,430.09 915.37,430.09 915.87,430.09 916.36,430.09 916.86,430.09 917.35,430.09 917.85,430.09 918.34,430.09 918.84,430.09 919.33,430.09 919.83,430.09 920.33,430.09 920.82,430.09 921.32,430.09 921.81,430.09 922.31,430.09 922.80,430.09 923.30,430.09 923.79,430.09 924.29,430.09 924.78,430.09 925.28,430.09 925.77,430.09 926.27,430.09 926.76,430.09 927.26,430.09 927.75,430.09 928.25,430.09 928.74,430.09 929.24,430.09 929.73,430.09 930.23,430.09 930.72,430.09 931.22,430.09 931.72,430.09 932.21,430.09 932.71,430.09 933.20,430.09 933.70,430.09 934.19,430.09 934.69,430.09 935.18,430.09 935.68,430.09 936.17,430.09 936.67,430.09 937.16,430.09 937.66,430.09 938.15,430.09 938.65,430.09 939.14,430.09 939.64,430.09 940.13,430.09 940.63,430.09 941.12,430.09 941.62,430.09 942.11,430.09 942.61,430.09 943.11,430.09 943.60,430.09 944.10,430.09 944.59,430.09 945.09,430.09 945.58,430.09 946.08,430.09 946.57,430.09 947.07,430.09 947.56,430.09 948.06,430.09 948.55,430.09 949.05,430.09 949.54,430.09 950.04,430.09 950.53,430.09 951.03,430.09 951.52,430.09 952.02,430.09 952.51,430.09 953.01,430.09 953.50,430.09 954.00,430.09"/>
<line x1="86" y1="76" x2="116" y2="76" stroke="#d62728" stroke-width="3"/>
<text x="124" y="80" font-family="Arial" font-size="13">contact force (N)</text>
<line x1="86" y1="98" x2="116" y2="98" stroke="#1f77b4" stroke-width="3"/>
<text x="124" y="102" font-family="Arial" font-size="13">inserted depth (m)</text>
<text x="490.0" y="512" text-anchor="middle" font-family="Arial" font-size="14">time (s)</text>
<text x="20" y="260.0" transform="rotate(-90 20 260.0)" text-anchor="middle" font-family="Arial" font-size="14">force / depth</text>
</svg>