<svg xmlns="http://www.w3.org/2000/svg" width="980" height="520" viewBox="0 0 980 520">
<rect width="100%" height="100%" fill="#ffffff"/>
<text x="490.0" y="30" text-anchor="middle" font-family="Arial" font-size="22" font-weight="700">Joint Stability During Force-Controlled Task</text>
<rect x="74" y="58" width="880" height="400" fill="#fafafa" stroke="#c8c8c8"/>
<line x1="74" y1="58.00" x2="954" y2="58.00" stroke="#e5e5e5"/>
<text x="64" y="62.00" text-anchor="end" font-family="Arial" font-size="12">2.14</text>
<line x1="74" y1="138.00" x2="954" y2="138.00" stroke="#e5e5e5"/>
<text x="64" y="142.00" text-anchor="end" font-family="Arial" font-size="12">1.68</text>
<line x1="74" y1="218.00" x2="954" y2="218.00" stroke="#e5e5e5"/>
<text x="64" y="222.00" text-anchor="end" font-family="Arial" font-size="12">1.22</text>
<line x1="74" y1="298.00" x2="954" y2="298.00" stroke="#e5e5e5"/>
<text x="64" y="302.00" text-anchor="end" font-family="Arial" font-size="12">0.756</text>
<line x1="74" y1="378.00" x2="954" y2="378.00" stroke="#e5e5e5"/>
<text x="64" y="382.00" text-anchor="end" font-family="Arial" font-size="12">0.295</text>
<line x1="74" y1="458.00" x2="954" y2="458.00" stroke="#e5e5e5"/>
<text x="64" y="462.00" text-anchor="end" font-family="Arial" font-size="12">-0.167</text>
<line x1="74.00" y1="58" x2="74.00" y2="458" stroke="#efefef"/>
<text x="74.00" y="492" text-anchor="middle" font-family="Arial" font-size="12">0.00</text>
<line x1="250.00" y1="58" x2="250.00" y2="458" stroke="#efefef"/>
<text x="250.00" y="492" text-anchor="middle" font-family="Arial" font-size="12">2.13</text>
<line x1="426.00" y1="58" x2="426.00" y2="458" stroke="#efefef"/>
<text x="426.00" y="492" text-anchor="middle" font-family="Arial" font-size="12">4.27</text>
<line x1="602.00" y1="58" x2="602.00" y2="458" stroke="#efefef"/>
<text x="602.00" y="492" text-anchor="middle" font-family="Arial" font-size="12">6.40</text>
<line x1="778.00" y1="58" x2="778.00" y2="458" stroke="#efefef"/>
<text x="778.00" y="492" text-anchor="middle" font-family="Arial" font-size="12">8.53</text>
<line x1="954.00" y1="58" x2="954.00" y2="458" stroke="#efefef"/>
<text x="954.00" y="492" text-anchor="middle" font-family="Arial" font-size="12">10.66</text>
<polyline fill="none" stroke="#2ca02c" stroke-width="2.4" points="74.00,429.04 74.50,429.04 74.99,429.04 75.49,429.04 75.98,429.04 76.48,429.04 76.97,429.04 77.47,429.04 77.96,429.04 78.46,429.04 78.95,429.04 79.45,429.04 79.94,429.04 80.44,429.04 80.93,429.04 81.43,429.04 81.92,429.04 82.42,429.04 82.91,429.04 83.41,429.04 83.90,429.04 84.40,429.04 84.89,429.04 85.39,429.04 85.89,429.04 86.38,429.04 86.88,429.04 87.37,429.04 87.87,429.04 88.36,429.04 88.86,429.04 89.35,429.04 89.85,429.04 90.34,429.04 90.84,429.04 91.33,429.04 91.83,429.04 92.32,429.04 92.82,429.04 93.31,429.04 93.81,429.04 94.30,429.04 94.80,429.04 95.29,429.04 95.79,429.04 96.28,429.04 96.78,429.04 97.28,429.04 97.77,429.04 98.27,429.04 98.76,429.04 99.26,429.04 99.75,429.04 100.25,429.04 100.74,429.04 101.24,429.04 101.73,429.04 102.23,429.04 102.72,429.04 103.22,429.04 103.71,429.04 104.21,429.04 104.70,429.04 105.20,429.04 105.69,429.04 106.19,429.04 106.68,429.04 107.18,429.04 107.67,429.04 108.17,429.04 108.67,429.04 109.16,429.04 109.66,429.04 110.15,429.04 110.65,429.04 111.14,429.04 111.64,429.04 112.13,429.04 112.63,429.04 113.12,429.04 113.62,429.04 114.11,429.04 114.61,429.04 115.10,429.04 115.60,429.04 116.09,429.04 116.59,429.04 117.08,429.04 117.58,429.04 118.07,429.04 118.57,429.04 119.06,429.04 119.56,429.04 120.06,429.04 120.55,429.04 121.05,429.04 121.54,429.04 122.04,429.04 122.53,429.04 123.03,429.04 123.52,429.04 124.02,429.04 124.51,429.04 125.01,429.04 125.50,429.04 126.00,429.04 126.49,429.04 126.99,429.04 127.48,429.04 127.98,429.04 128.47,429.04 128.97,429.04 129.46,429.04 129.96,429.04 130.45,429.05 130.95,429.05 131.45,429.05 131.94,429.05 132.44,429.05 132.93,429.05 133.43,429.05 133.92,429.05 134.42,429.05 134.91,429.05 135.41,429.05 135.90,429.04 136.40,429.06 136.89,429.03 137.39,429.09 137.88,428.97 138.38,429.15 138.87,428.78 139.37,428.92 139.86,428.86 140.36,428.93 140.85,428.71 141.35,428.83 141.84,428.51 142.34,428.67 142.84,428.34 143.33,428.51 143.83,428.20 144.32,428.38 144.82,428.08 145.31,428.26 145.81,427.97 146.30,428.22 146.80,427.91 147.29,428.11 147.79,427.83 148.28,428.03 148.78,427.75 149.27,427.96 149.77,427.68 150.26,427.89 150.76,427.62 151.25,427.83 151.75,427.56 152.24,427.78 152.74,427.51 153.23,427.73 153.73,427.46 154.23,427.69 154.72,427.42 155.22,427.65 155.71,427.39 156.21,427.62 156.70,427.36 157.20,427.59 157.69,427.33 158.19,427.56 158.68,427.30 159.18,427.54 159.67,427.28 160.17,427.52 160.66,427.26 161.16,427.50 161.65,427.25 162.15,427.48 162.64,427.23 163.14,427.47 163.63,427.22 164.13,427.45 164.62,427.20 165.12,427.44 165.62,427.19 166.11,427.43 166.61,427.18 167.10,427.42 167.60,427.18 168.09,427.41 168.59,427.17 169.08,427.41 169.58,427.16 170.07,427.40 170.57,427.16 171.06,427.40 171.56,427.15 172.05,427.39 172.55,427.15 173.04,427.39 173.54,427.14 174.03,427.38 174.53,427.14 175.02,427.38 175.52,427.13 176.01,427.38 176.51,427.13 177.01,427.37 177.50,427.13 178.00,427.37 178.49,427.13 178.99,427.32 179.48,427.17 179.98,427.43 180.47,427.17 180.97,427.40 181.46,427.16 181.96,427.40 182.45,427.15 182.95,427.39 183.44,427.15 183.94,427.39 184.43,427.14 184.93,427.38 185.42,427.14 185.92,427.38 186.41,427.14 186.91,427.38 187.40,427.13 187.90,427.37 188.40,427.13 188.89,427.37 189.39,427.13 189.88,427.37 190.38,427.13 190.87,427.37 191.37,427.12 191.86,427.37 192.36,427.12 192.85,427.37 193.35,427.12 193.84,427.36 194.34,427.12 194.83,427.36 195.33,427.12 195.82,427.36 196.32,427.12 196.81,427.36 197.31,427.12 197.80,427.36 198.30,427.12 198.79,427.36 199.29,427.12 199.79,427.36 200.28,427.12 200.78,427.36 201.27,427.12 201.77,427.36 202.26,427.12 202.76,427.36 203.25,427.12 203.75,427.37 204.24,427.13 204.74,427.38 205.23,427.13 205.73,427.39 206.22,427.14 206.72,427.40 207.21,427.16 207.71,427.41 208.20,427.17 208.70,427.42 209.19,427.18 209.69,427.44 210.18,427.19 210.68,427.44 211.18,427.19 211.67,427.45 212.17,427.20 212.66,427.45 213.16,427.19 213.65,427.45 214.15,427.19 214.64,427.44 215.14,427.18 215.63,427.43 216.13,427.17 216.62,427.41 217.12,427.15 217.61,427.40 218.11,427.13 218.60,427.38 219.10,427.12 219.59,427.36 220.09,427.10 220.58,427.35 221.08,427.09 221.57,427.33 222.07,427.08 222.56,427.33 223.06,427.07 223.56,427.32 224.05,427.08 224.55,427.33 225.04,427.09 225.54,427.34 226.03,427.11 226.53,427.37 227.02,427.15 227.52,427.40 228.01,427.19 228.51,427.45 229.00,427.25 229.50,427.51 229.99,427.31 230.49,427.57 230.98,427.39 231.48,427.65 231.97,427.47 232.47,427.73 232.96,427.56 233.46,427.83 233.95,427.67 234.45,427.93 234.95,427.78 235.44,428.04 235.94,427.90 236.43,428.13 236.93,428.02 237.42,428.20 237.92,428.13 238.41,428.26 238.91,428.23 239.40,428.31 239.90,428.31 240.39,428.36 240.89,428.37 241.38,428.40 241.88,428.42 242.37,428.45 242.87,428.47 243.36,428.49 243.86,428.51 244.35,428.52 244.85,428.54 245.34,428.55 245.84,428.57 246.34,428.58 246.83,428.59 247.33,428.61 247.82,428.62 248.32,428.63 248.81,428.64 249.31,428.65 249.80,428.66 250.30,428.66 250.79,428.66 251.29,428.68 251.78,428.69 252.28,428.71 252.77,428.73 253.27,428.74 253.76,428.76 254.26,428.78 254.75,428.79 255.25,428.81 255.74,428.82 256.24,428.83 256.73,428.85 257.23,428.86 257.73,428.87 258.22,428.88 258.72,428.89 259.21,428.90 259.71,428.91 260.20,428.91 260.70,428.92 261.19,428.92 261.69,428.93 262.18,428.94 262.68,428.94 263.17,428.95 263.67,428.95 264.16,428.96 264.66,428.96 265.15,428.97 265.65,428.97 266.14,428.98 266.64,428.98 267.13,428.98 267.63,428.99 268.12,428.99 268.62,428.99 269.12,429.00 269.61,429.00 270.11,429.00 270.60,429.00 271.10,429.01 271.59,429.01 272.09,429.01 272.58,429.01 273.08,429.01 273.57,429.01 274.07,429.02 274.56,429.02 275.06,429.02 275.55,429.02 276.05,429.02 276.54,429.02 277.04,429.02 277.53,429.02 278.03,429.02 278.52,429.03 279.02,429.03 279.51,429.03 280.01,429.03 280.51,429.03 281.00,429.03 281.50,429.03 281.99,429.03 282.49,429.03 282.98,429.03 283.48,429.04 283.97,429.04 284.47,429.04 284.96,429.04 285.46,429.04 285.95,429.04 286.45,429.04 286.94,429.04 287.44,429.04 287.93,429.04 288.43,429.04 288.92,429.04 289.42,429.04 289.91,429.04 290.41,429.04 290.90,429.04 291.40,429.04 291.90,429.04 292.39,429.04 292.89,429.04 293.38,429.04 293.88,429.04 294.37,429.04 294.87,429.04 295.36,429.04 295.86,429.04 296.35,429.04 296.85,429.04 297.34,429.04 297.84,429.04 298.33,429.04 298.83,429.04 299.32,429.05 299.82,429.04 300.31,429.04 300.81,429.05 301.30,429.04 301.80,429.05 302.29,429.05 302.79,429.05 303.29,429.04 303.78,429.05 304.28,429.04 304.77,429.05 305.27,429.04 305.76,429.04 306.26,429.08 306.75,429.10 307.25,429.13 307.74,429.15 308.24,429.18 308.73,429.21 309.23,429.24 309.72,429.27 310.22,429.29 310.71,429.31 311.21,429.33 311.70,429.35 312.20,429.36 312.69,429.37 313.19,429.38 313.68,429.39 314.18,429.40 314.68,429.41 315.17,429.41 315.67,429.42 316.16,429.43 316.66,429.44 317.15,429.44 317.65,429.45 318.14,429.45 318.64,429.46 319.13,429.47 319.63,429.48 320.12,429.48 320.62,429.48 321.11,429.49 321.61,429.50 322.10,429.50 322.60,429.51 323.09,429.50 323.59,429.51 324.08,429.51 324.58,429.52 325.07,429.52 325.57,429.53 326.07,429.52 326.56,429.53 327.06,429.53 327.55,429.53 328.05,429.53 328.54,429.54 329.04,429.54 329.53,429.55 330.03,429.55 330.52,429.55 331.02,429.56 331.51,429.56 332.01,429.56 332.50,429.56 333.00,429.56 333.49,429.57 333.99,429.57 334.48,429.57 334.98,429.57 335.47,429.57 335.97,429.57 336.46,429.57 336.96,429.57 337.46,429.57 337.95,429.57 338.45,429.57 338.94,429.58 339.44,429.58 339.93,429.58 340.43,429.58 340.92,429.58 341.42,429.58 341.91,429.58 342.41,429.58 342.90,429.58 343.40,429.58 343.89,429.58 344.39,429.58 344.88,429.58 345.38,429.58 345.87,429.58 346.37,429.57 346.86,429.55 347.36,429.56 347.85,429.57 348.35,429.58 348.85,429.58 349.34,429.59 349.84,429.59 350.33,429.59 350.83,429.59 351.32,429.58 351.82,429.58 352.31,429.57 352.81,429.56 353.30,429.55 353.80,429.53 354.29,429.52 354.79,429.50 355.28,429.49 355.78,429.47 356.27,429.45 356.77,429.44 357.26,429.42 357.76,429.39 358.25,429.37 358.75,429.34 359.24,429.32 359.74,429.29 360.24,429.27 360.73,429.25 361.23,429.23 361.72,429.21 362.22,429.19 362.71,429.17 363.21,429.16 363.70,429.14 364.20,429.13 364.69,429.12 365.19,429.11 365.68,429.10 366.18,429.09 366.67,429.08 367.17,429.07 367.66,429.06 368.16,429.05 368.65,429.05 369.15,429.04 369.64,429.04 370.14,429.03 370.63,429.03 371.13,429.02 371.63,429.02 372.12,429.02 372.62,429.01 373.11,429.01 373.61,429.01 374.10,429.00 374.60,429.00 375.09,429.00 375.59,429.00 376.08,429.00 376.58,429.00 377.07,428.99 377.57,428.99 378.06,428.99 378.56,428.99 379.05,428.99 379.55,428.99 380.04,428.99 380.54,428.99 381.03,428.99 381.53,428.99 382.02,428.99 382.52,429.00 383.02,429.00 383.51,429.00 384.01,429.00 384.50,429.00 385.00,429.00 385.49,429.00 385.99,429.00 386.48,429.01 386.98,429.01 387.47,429.01 387.97,429.01 388.46,429.01 388.96,429.02 389.45,429.02 389.95,429.02 390.44,429.02 390.94,429.02 391.43,429.03 391.93,429.03 392.42,429.03 392.92,429.03 393.41,429.04 393.91,429.04 394.41,429.05 394.90,429.03 395.40,429.08 395.89,428.96 396.39,429.13 396.88,428.72 397.38,428.85 397.87,428.48 398.37,428.63 398.86,428.27 399.36,428.43 399.85,428.07 400.35,428.24 400.84,427.90 401.34,428.07 401.83,427.74 402.33,427.93 402.82,427.60 403.32,427.80 403.81,427.48 404.31,427.68 404.80,427.37 405.30,427.58 405.80,427.28 406.29,427.50 406.79,427.20 407.28,427.42 407.78,427.13 408.27,427.36 408.77,427.08 409.26,427.31 409.76,427.03 410.25,427.26 410.75,426.99 411.24,427.23 411.74,426.95 412.23,427.19 412.73,426.93 413.22,427.17 413.72,426.91 414.21,427.15 414.71,426.89 415.20,427.14 415.70,426.88 416.19,427.12 416.69,426.87 417.19,427.12 417.68,426.86 418.18,427.11 418.67,426.86 419.17,427.11 419.66,426.85 420.16,427.10 420.65,426.85 421.15,427.10 421.64,426.85 422.14,427.10 422.63,426.85 423.13,427.10 423.62,426.84 424.12,427.17 424.61,427.13 425.11,427.37 425.60,427.08 426.10,427.28 426.59,427.03 427.09,427.26 427.58,426.99 428.08,427.23 428.58,426.97 429.07,429.10 429.57,428.99 430.06,429.17 430.56,428.98 431.05,429.04 431.55,428.82 432.04,428.91 432.54,428.57 433.03,428.72 433.53,428.35 434.02,428.50 434.52,428.17 435.01,428.34 435.51,428.01 436.00,428.19 436.50,427.87 436.99,428.06 437.49,427.75 437.98,427.94 438.48,427.64 438.97,427.84 439.47,427.54 439.97,427.75 440.46,427.46 440.96,427.67 441.45,427.38 441.95,427.59 442.44,427.31 442.94,427.53 443.43,427.25 443.93,427.47 444.42,427.19 444.92,427.42 445.41,427.14 445.91,427.37 446.40,427.10 446.90,427.33 447.39,427.06 447.89,427.29 448.38,427.03 448.88,427.26 449.37,427.00 449.87,427.23 450.36,426.97 450.86,427.21 451.36,426.95 451.85,427.18 452.35,426.92 452.84,427.16 453.34,426.91 453.83,427.15 454.33,426.89 454.82,427.13 455.32,426.87 455.81,427.12 456.31,426.86 456.80,427.10 457.30,426.85 457.79,427.09 458.29,426.84 458.78,427.08 459.28,426.83 459.77,427.07 460.27,426.82 460.76,427.07 461.26,426.81 461.75,427.06 462.25,426.81 462.75,427.05 463.24,426.80 463.74,427.05 464.23,426.79 464.73,427.04 465.22,426.79 465.72,427.04 466.21,426.79 466.71,427.03 467.20,426.78 467.70,427.03 468.19,426.78 468.69,427.03 469.18,426.78 469.68,427.02 470.17,426.77 470.67,427.02 471.16,426.77 471.66,427.02 472.15,426.77 472.65,427.02 473.14,426.77 473.64,427.02 474.14,426.76 474.63,427.01 475.13,426.76 475.62,427.01 476.12,426.76 476.61,427.01 477.11,426.76 477.60,427.01 478.10,426.76 478.59,427.01 479.09,426.76 479.58,427.01 480.08,426.76 480.57,427.01 481.07,426.76 481.56,427.01 482.06,426.75 482.55,427.01 483.05,426.75 483.54,427.00 484.04,426.75 484.53,427.00 485.03,426.75 485.53,427.00 486.02,426.75 486.52,427.00 487.01,426.75 487.51,427.00 488.00,426.75 488.50,427.00 488.99,426.75 489.49,427.00 489.98,426.75 490.48,427.00 490.97,426.75 491.47,427.00 491.96,426.75 492.46,427.00 492.95,426.75 493.45,427.00 493.94,426.75 494.44,427.00 494.93,426.75 495.43,427.00 495.92,426.75 496.42,427.00 496.92,426.75 497.41,427.00 497.91,426.75 498.40,427.00 498.90,426.75 499.39,427.00 499.89,426.75 500.38,427.00 500.88,426.75 501.37,427.00 501.87,426.75 502.36,427.00 502.86,426.75 503.35,427.00 503.85,426.75 504.34,427.00 504.84,426.75 505.33,427.00 505.83,426.75 506.32,427.00 506.82,426.75 507.31,427.00 507.81,426.75 508.31,427.00 508.80,426.75 509.30,427.00 509.79,426.75 510.29,427.00 510.78,426.75 511.28,427.00 511.77,426.75 512.27,427.00 512.76,426.75 513.26,427.00 513.75,426.75 514.25,427.00 514.74,426.75 515.24,427.00 515.73,426.75 516.23,427.00 516.72,426.75 517.22,427.00 517.71,426.75 518.21,427.00 518.70,426.75 519.20,427.00 519.69,426.74 520.19,427.00 520.69,426.74 521.18,427.00 521.68,426.74 522.17,426.99 522.67,426.74 523.16,426.99 523.66,426.74 524.15,426.99 524.65,426.74 525.14,426.99 525.64,426.74 526.13,426.99 526.63,426.74 527.12,426.99 527.62,426.74 528.11,426.99 528.61,426.74 529.10,426.99 529.60,426.74 530.09,427.00 530.59,426.75 531.08,427.01 531.58,426.76 532.08,427.03 532.57,426.78 533.07,427.04 533.56,426.79 534.06,427.06 534.55,426.81 535.05,427.07 535.54,426.82 536.04,427.08 536.53,426.83 537.03,427.09 537.52,426.83 538.02,427.09 538.51,426.82 539.01,427.08 539.50,426.81 540.00,427.07 540.49,426.80 540.99,427.05 541.48,426.78 541.98,427.03 542.47,426.76 542.97,427.01 543.47,426.73 543.96,426.98 544.46,426.71 544.95,426.96 545.45,426.69 545.94,426.94 546.44,426.67 546.93,426.92 547.43,426.66 547.92,426.90 548.42,426.65 548.91,426.90 549.41,426.65 549.90,426.90 550.40,426.65 550.89,426.90 551.39,426.66 551.88,426.91 552.38,426.68 552.87,426.93 553.37,426.71 553.86,426.96 554.36,426.73 554.86,426.98 555.35,426.76 555.85,427.01 556.34,426.79 556.84,427.04 557.33,426.82 557.83,427.07 558.32,426.85 558.82,427.10 559.31,426.90 559.81,427.18 560.30,426.98 560.80,427.28 561.29,427.08 561.79,427.36 562.28,427.14 562.78,427.41 563.27,427.19 563.77,427.45 564.26,427.23 564.76,427.49 565.25,429.04 565.75,429.04 566.25,429.04 566.74,429.04 567.24,429.04 567.73,429.04 568.23,429.04 568.72,429.04 569.22,429.04 569.71,429.04 570.21,429.04 570.70,429.04 571.20,429.04 571.69,429.04 572.19,429.04 572.68,429.04 573.18,429.04 573.67,429.04 574.17,429.04 574.66,429.04 575.16,429.04 575.65,429.04 576.15,429.04 576.64,429.04 577.14,429.04 577.64,429.04 578.13,429.04 578.63,429.04 579.12,429.04 579.62,429.04 580.11,429.04 580.61,429.04 581.10,429.04 581.60,429.04 582.09,429.04 582.59,429.04 583.08,429.04 583.58,429.04 584.07,429.04 584.57,429.04 585.06,429.04 585.56,429.04 586.05,429.04 586.55,429.04 587.04,429.04 587.54,429.04 588.03,429.04 588.53,429.04 589.03,429.04 589.52,429.04 590.02,429.04 590.51,429.04 591.01,429.04 591.50,429.04 592.00,429.04 592.49,429.04 592.99,429.04 593.48,429.04 593.98,429.04 594.47,429.04 594.97,429.04 595.46,429.04 595.96,429.04 596.45,429.04 596.95,429.04 597.44,429.04 597.94,429.04 598.43,429.04 598.93,429.04 599.42,429.04 599.92,429.04 600.42,429.04 600.91,429.04 601.41,429.04 601.90,429.04 602.40,429.04 602.89,429.04 603.39,429.04 603.88,429.04 604.38,429.04 604.87,429.04 605.37,429.04 605.86,429.04 606.36,429.04 606.85,429.04 607.35,429.04 607.84,429.04 608.34,429.04 608.83,429.04 609.33,429.04 609.82,429.04 610.32,429.04 610.81,429.04 611.31,429.04 611.81,429.04 612.30,429.04 612.80,429.04 613.29,429.04 613.79,429.04 614.28,429.04 614.78,429.04 615.27,429.04 615.77,429.04 616.26,429.04 616.76,429.04 617.25,429.04 617.75,429.04 618.24,429.04 618.74,429.04 619.23,429.04 619.73,429.04 620.22,429.04 620.72,429.04 621.21,429.04 621.71,429.04 622.20,429.04 622.70,429.04 623.20,429.04 623.69,429.04 624.19,429.04 624.68,429.04 625.18,429.04 625.67,429.04 626.17,429.04 626.66,429.04 627.16,429.04 627.65,429.04 628.15,429.04 628.64,429.04 629.14,429.04 629.63,429.04 630.13,429.04 630.62,429.04 631.12,429.04 631.61,429.04 632.11,429.04 632.60,429.04 633.10,429.04 633.59,429.04 634.09,429.04 634.59,429.04 635.08,429.04 635.58,429.04 636.07,429.04 636.57,429.04 637.06,429.04 637.56,429.04 638.05,429.04 638.55,429.04 639.04,429.04 639.54,429.04 640.03,429.04 640.53,429.04 641.02,429.04 641.52,429.04 642.01,429.04 642.51,429.04 643.00,429.04 643.50,429.04 643.99,429.04 644.49,429.04 644.98,429.04 645.48,429.04 645.98,429.04 646.47,429.04 646.97,429.04 647.46,429.04 647.96,429.04 648.45,429.04 648.95,429.04 649.44,429.04 649.94,429.04 650.43,429.04 650.93,429.04 651.42,429.04 651.92,429.04 652.41,429.04 652.91,429.04 653.40,429.04 653.90,429.04 654.39,429.04 654.89,429.04 655.38,429.04 655.88,429.04 656.37,429.04 656.87,429.04 657.37,429.04 657.86,429.04 658.36,429.04 658.85,429.04 659.35,429.04 659.84,429.04 660.34,429.04 660.83,429.04 661.33,429.04 661.82,429.04 662.32,429.04 662.81,429.04 663.31,429.04 663.80,429.04 664.30,429.04 664.79,429.04 665.29,429.04 665.78,429.04 666.28,429.04 666.77,429.04 667.27,429.04 667.76,429.04 668.26,429.04 668.76,429.04 669.25,429.04 669.75,429.04 670.24,429.04 670.74,429.04 671.23,429.04 671.73,429.04 672.22,429.04 672.72,429.04 673.21,429.04 673.71,429.04 674.20,429.04 674.70,429.04 675.19,429.04 675.69,429.04 676.18,429.04 676.68,429.04 677.17,429.04 677.67,429.04 678.16,429.04 678.66,429.04 679.15,429.04 679.65,429.04 680.15,429.04 680.64,429.04 681.14,429.04 681.63,429.04 682.13,429.04 682.62,429.04 683.12,429.04 683.61,429.04 684.11,429.04 684.60,429.04 685.10,429.04 685.59,429.04 686.09,429.04 686.58,429.04 687.08,429.04 687.57,429.04 688.07,429.04 688.56,429.04 689.06,429.04 689.55,429.04 690.05,429.04 690.54,429.04 691.04,429.04 691.54,429.04 692.03,429.04 692.53,429.04 693.02,429.04 693.52,429.04 694.01,429.04 694.51,429.04 695.00,429.04 695.50,429.04 695.99,429.04 696.49,429.04 696.98,429.04 697.48,429.04 697.97,429.04 698.47,429.04 698.96,429.04 699.46,429.04 699.95,429.04 700.45,429.04 700.94,429.04 701.44,429.04 701.93,429.04 702.43,429.04 702.93,429.04 703.42,429.04 703.92,429.04 704.41,429.04 704.91,429.04 705.40,429.04 705.90,429.04 706.39,429.04 706.89,429.04 707.38,429.04 707.88,429.04 708.37,429.04 708.87,429.04 709.36,429.04 709.86,429.04 710.35,429.04 710.85,429.04 711.34,429.04 711.84,429.04 712.33,429.04 712.83,429.04 713.32,429.04 713.82,429.04 714.32,429.04 714.81,429.04 715.31,429.04 715.80,429.04 716.30,429.04 716.79,429.04 717.29,429.04 717.78,429.04 718.28,429.04 718.77,429.04 719.27,429.04 719.76,429.04 720.26,429.04 720.75,429.04 721.25,429.04 721.74,429.04 722.24,429.04 722.73,429.04 723.23,429.04 723.72,429.04 724.22,429.04 724.71,429.04 725.21,429.04 725.71,429.04 726.20,429.04 726.70,429.04 727.19,429.04 727.69,429.04 728.18,429.04 728.68,429.04 729.17,429.04 729.67,429.04 730.16,429.04 730.66,429.04 731.15,429.04 731.65,429.04 732.14,429.04 732.64,429.04 733.13,429.04 733.63,429.04 734.12,429.04 734.62,429.04 735.11,429.04 735.61,429.04 736.10,429.04 736.60,429.04 737.10,429.04 737.59,429.04 738.09,429.04 738.58,429.04 739.08,429.04 739.57,429.04 740.07,429.04 740.56,429.04 741.06,429.04 741.55,429.04 742.05,429.04 742.54,429.04 743.04,429.04 743.53,429.04 744.03,429.04 744.52,429.04 745.02,429.04 745.51,429.04 746.01,429.04 746.50,429.04 747.00,429.04 747.49,429.04 747.99,429.04 748.49,429.04 748.98,429.04 749.48,429.04 749.97,429.04 750.47,429.04 750.96,429.04 751.46,429.04 751.95,429.04 752.45,429.04 752.94,429.04 753.44,429.04 753.93,429.04 754.43,429.04 754.92,429.04 755.42,429.04 755.91,429.04 756.41,429.04 756.90,429.04 757.40,429.04 757.89,429.04 758.39,429.04 758.88,429.04 759.38,429.04 759.88,429.04 760.37,429.04 760.87,429.04 761.36,429.04 761.86,429.04 762.35,429.04 762.85,429.04 763.34,429.04 763.84,429.04 764.33,429.04 764.83,429.04 765.32,429.04 765.82,429.04 766.31,429.04 766.81,429.04 767.30,429.04 767.80,429.04 768.29,429.04 768.79,429.04 769.28,429.04 769.78,429.04 770.27,429.04 770.77,429.04 771.27,429.04 771.76,429.04 772.26,429.04 772.75,429.04 773.25,429.04 773.74,429.04 774.24,429.04 774.73,429.04 775.23,429.04 775.72,429.04 776.22,429.04 776.71,429.04 777.21,429.04 777.70,429.04 778.20,429.04 778.69,429.04 779.19,429.04 779.68,429.04 780.18,429.04 780.67,429.04 781.17,429.04 781.66,429.04 782.16,429.04 782.66,429.04 783.15,429.04 783.65,429.04 784.14,429.04 784.64,429.04 785.13,429.04 785.63,429.04 786.12,429.04 786.62,429.04 787.11,429.04 787.61,429.04 788.10,429.04 788.60,429.04 789.09,429.04 789.59,429.04 790.08,429.04 790.58,429.04 791.07,429.04 791.57,429.04 792.06,429.04 792.56,429.04 793.05,429.04 793.55,429.04 794.05,429.04 794.54,429.04 795.04,429.04 795.53,429.04 796.03,429.04 796.52,429.04 797.02,429.04 797.51,429.04 798.01,429.04 798.50,429.04 799.00,429.04 799.49,429.04 799.99,429.04 800.48,429.04 800.98,429.05 801.47,429.03 801.97,429.07 802.46,429.00 802.96,429.13 803.45,428.89 803.95,429.05 804.44,428.73 804.94,428.89 805.44,428.56 805.93,428.73 806.43,428.40 806.92,428.56 807.42,428.22 807.91,428.39 808.41,428.05 808.90,428.22 809.40,427.87 809.89,428.05 810.39,427.70 810.88,427.88 811.38,427.54 811.87,427.73 812.37,427.39 812.86,427.58 813.36,427.24 813.85,427.45 814.35,427.12 814.84,427.34 815.34,427.03 815.83,427.26 816.33,426.98 816.82,427.23 817.32,426.99 817.82,427.25 818.31,427.05 818.81,427.33 819.30,427.19 819.80,427.49 820.29,427.40 820.79,427.64 821.28,427.62 821.78,427.77 822.27,427.81 822.77,427.89 823.26,427.98 823.76,427.99 824.25,428.14 824.75,428.07 825.24,428.30 825.74,428.12 826.23,428.35 826.73,428.08 827.22,428.28 827.72,427.97 828.21,428.15 828.71,427.84 829.21,428.03 829.70,427.74 830.20,427.96 830.69,427.74 831.19,427.98 831.68,427.76 832.18,428.00 832.67,427.69 833.17,427.89 833.66,427.59 834.16,427.81 834.65,427.58 835.15,427.83 835.64,427.69 836.14,427.93 836.63,427.87 837.13,428.01 837.62,428.04 838.12,428.08 838.61,428.19 839.11,428.15 839.60,428.34 840.10,428.19 840.60,428.41 841.09,428.16 841.59,428.35 842.08,428.08 842.58,428.27 843.07,428.04 843.57,428.27 844.06,428.08 844.56,428.32 845.05,428.09 845.55,428.30 846.04,428.01 846.54,428.22 847.03,427.98 847.53,428.22 848.02,428.07 848.52,428.28 849.01,428.21 849.51,428.32 850.00,428.33 850.50,428.37 850.99,428.44 851.49,428.41 851.99,428.55 852.48,428.44 852.98,428.65 853.47,428.45 853.97,428.66 854.46,428.42 854.96,428.62 855.45,428.38 855.95,428.60 856.44,428.42 856.94,428.64 857.43,428.48 857.93,428.70 858.42,428.50 858.92,428.72 859.41,428.44 859.91,428.64 860.40,428.40 860.90,428.61 861.39,428.41 861.89,428.64 862.38,428.49 862.88,428.66 863.38,428.57 863.87,428.68 864.37,428.63 864.86,428.70 865.36,428.69 865.85,428.72 866.35,428.75 866.84,428.74 867.34,428.79 867.83,428.75 868.33,428.84 868.82,428.76 869.32,428.88 869.81,428.77 870.31,428.92 870.80,428.78 871.30,428.95 871.79,428.79 872.29,428.98 872.78,428.79 873.28,429.00 873.77,428.79 874.27,429.00 874.77,428.78 875.26,428.99 875.76,428.77 876.25,428.98 876.75,428.77 877.24,428.98 877.74,428.79 878.23,428.98 878.73,428.83 879.22,428.98 879.72,428.86 880.21,428.97 880.71,428.89 881.20,428.96 881.70,428.91 882.19,428.96 882.69,428.93 883.18,428.96 883.68,428.95 884.17,428.97 884.67,428.96 885.16,428.97 885.66,428.97 886.16,428.98 886.65,428.98 887.15,428.98 887.64,428.99 888.14,428.99 888.63,428.99 889.13,428.99 889.62,428.99 890.12,428.99 890.61,428.99 891.11,428.99 891.60,428.99 892.10,428.99 892.59,428.99 893.09,428.99 893.58,428.99 894.08,428.99 894.57,428.99 895.07,428.99 895.56,428.99 896.06,428.99 896.55,428.99 897.05,428.99 897.55,428.99 898.04,428.99 898.54,428.99 899.03,428.99 899.53,428.99 900.02,428.99 900.52,428.99 901.01,428.99 901.51,428.99 902.00,428.99 902.50,428.99 902.99,428.99 903.49,428.99 903.98,428.99 904.48,428.99 904.97,428.99 905.47,428.99 905.96,428.99 906.46,428.99 906.95,428.99 907.45,428.99 907.94,428.99 908.44,428.99 908.94,428.99 909.43,428.99 909.93,428.99 910.42,428.99 910.92,428.99 911.41,428.99 911.91,428.99 912.40,428.99 912.90,428.99 913.39,428.99 913.89,428.99 914.38,428.99 914.88,428.99 915.37,428.99 915.87,428.99 916.36,428.99 916.86,428.99 917.35,428.99 917.85,428.99 918.34,428.99 918.84,428.99 919.33,428.99 919.83,428.99 920.33,428.99 920.82,428.99 921.32,428.99 921.81,428.99 922.31,428.99 922.80,428.99 923.30,428.99 923.79,428.99 924.29,428.99 924.78,428.99 925.28,428.99 925.77,428.99 926.27,428.99 926.76,428.99 927.26,428.99 927.75,428.99 928.25,428.99 928.74,428.99 929.24,428.99 929.73,428.99 930.23,428.99 930.72,428.99 931.22,428.99 931.72,428.99 932.21,428.99 932.71,428.99 933.20,428.99 933.70,428.99 934.19,428.99 934.69,428.99 935.18,428.99 935.68,428.99 936.17,428.99 936.67,428.99 937.16,428.99 937.66,428.99 938.15,428.99 938.65,428.99 939.14,428.99 939.64,428.99 940.13,428.99 940.63,428.99 941.12,428.99 941.62,428.99 942.11,428.99 942.61,428.99 943.11,428.99 943.60,428.99 944.10,428.99 944.59,428.99 945.09,428.99 945.58,428.99 946.08,428.99 946.57,428.99 947.07,428.99 947.56,428.99 948.06,428.99 948.55,428.99 949.05,428.99 949.54,428.99 950.04,428.99 950.53,428.99 951.03,428.99 951.52,428.99 952.02,428.99 952.51,428.99 953.01,428.99 953.50,428.99 954.00,428.99"/>
<polyline fill="none" stroke="#ff7f0e" stroke-width="2.4" points="74.00,429.04 74.50,429.04 74.99,429.04 75.49,429.04 75.98,429.04 76.48,429.04 76.97,429.04 77.47,429.04 77.96,429.04 78.46,429.04 78.95,429.04 79.45,429.04 79.94,429.04 80.44,429.04 80.93,429.04 81.43,429.04 81.92,429.04 82.42,429.04 82.91,429.04 83.41,429.04 83.90,429.04 84.40,429.04 84.89,429.04 85.39,429.04 85.89,429.04 86.38,429.04 86.88,429.04 87.37,429.04 87.87,429.04 88.36,429.04 88.86,429.04 89.35,429.04 89.85,429.04 90.34,429.04 90.84,429.04 91.33,429.04 91.83,429.04 92.32,429.04 92.82,429.04 93.31,429.04 93.81,429.04 94.30,429.04 94.80,429.04 95.29,429.04 95.79,429.04 96.28,429.04 96.78,429.04 97.28,429.04 97.77,429.04 98.27,429.04 98.76,429.04 99.26,429.04 99.75,429.04 100.25,429.04 100.74,429.04 101.24,429.04 101.73,429.04 102.23,429.04 102.72,429.04 103.22,429.04 103.71,429.04 104.21,429.04 104.70,429.04 105.20,429.04 105.69,429.04 106.19,429.04 106.68,429.04 107.18,429.04 107.67,429.04 108.17,429.04 108.67,429.04 109.16,429.04 109.66,429.04 110.15,429.04 110.65,429.04 111.14,429.04 111.64,429.04 112.13,429.04 112.63,429.04 113.12,429.04 113.62,429.04 114.11,429.04 114.61,429.04 115.10,429.04 115.60,429.04 116.09,429.04 116.59,429.04 117.08,429.04 117.58,429.04 118.07,429.04 118.57,429.04 119.06,429.04 119.56,429.04 120.06,429.04 120.55,429.04 121.05,429.04 121.54,429.04 122.04,429.04 122.53,429.04 123.03,429.04 123.52,429.04 124.02,429.04 124.51,429.04 125.01,429.04 125.50,429.04 126.00,429.04 126.49,429.04 126.99,429.04 127.48,429.04 127.98,429.04 128.47,429.04 128.97,429.04 129.46,429.04 129.96,429.05 130.45,429.03 130.95,429.06 131.45,429.00 131.94,429.11 132.44,428.91 132.93,429.20 133.43,428.99 133.92,429.27 134.42,429.04 134.91,429.31 135.41,429.08 135.90,429.34 136.40,429.09 136.89,429.35 137.39,429.10 137.88,429.35 138.38,429.09 138.87,429.34 139.37,429.08 139.86,429.32 140.36,429.06 140.85,429.30 141.35,429.03 141.84,429.26 142.34,428.99 142.84,429.23 143.33,428.95 143.83,429.19 144.32,428.91 144.82,429.14 145.31,428.87 145.81,429.10 146.30,428.82 146.80,429.06 147.29,428.78 147.79,429.02 148.28,428.74 148.78,428.98 149.27,428.70 149.77,428.94 150.26,428.66 150.76,428.90 151.25,428.63 151.75,428.87 152.24,428.60 152.74,428.84 153.23,428.57 153.73,428.81 154.23,428.55 154.72,428.79 155.22,428.53 155.71,428.78 156.21,428.52 156.70,428.77 157.20,428.51 157.69,428.76 158.19,428.50 158.68,428.76 159.18,428.51 159.67,428.76 160.17,428.51 160.66,428.77 161.16,428.52 161.65,428.79 162.15,428.54 162.64,428.81 163.14,428.56 163.63,428.83 164.13,428.59 164.62,428.86 165.12,428.62 165.62,428.89 166.11,428.66 166.61,428.93 167.10,428.70 167.60,428.97 168.09,428.74 168.59,429.02 169.08,428.78 169.58,429.06 170.07,428.83 170.57,429.11 171.06,428.88 171.56,429.16 172.05,428.93 172.55,429.21 173.04,428.98 173.54,429.26 174.03,429.04 174.53,429.32 175.02,429.09 175.52,429.37 176.01,429.14 176.51,429.42 177.01,429.20 177.50,429.48 178.00,429.25 178.49,429.53 178.99,429.30 179.48,429.58 179.98,429.35 180.47,429.63 180.97,429.40 181.46,429.67 181.96,429.44 182.45,429.72 182.95,429.49 183.44,429.76 183.94,429.53 184.43,429.80 184.93,429.57 185.42,429.84 185.92,429.61 186.41,429.88 186.91,429.64 187.40,429.92 187.90,429.68 188.40,429.95 188.89,429.71 189.39,429.98 189.88,429.74 190.38,430.01 190.87,429.77 191.37,430.03 191.86,429.79 192.36,430.06 192.85,429.81 193.35,430.08 193.84,429.84 194.34,430.10 194.83,429.86 195.33,430.12 195.82,429.87 196.32,430.14 196.81,429.89 197.31,430.15 197.80,429.90 198.30,430.17 198.79,429.92 199.29,430.18 199.79,429.93 200.28,430.19 200.78,429.94 201.27,430.20 201.77,429.95 202.26,430.21 202.76,429.96 203.25,430.22 203.75,429.96 204.24,430.22 204.74,429.96 205.23,430.22 205.73,429.96 206.22,430.21 206.72,429.96 207.21,430.21 207.71,429.95 208.20,430.20 208.70,429.94 209.19,430.19 209.69,429.93 210.18,430.18 210.68,429.92 211.18,430.17 211.67,429.91 212.17,430.16 212.66,429.90 213.16,430.15 213.65,429.89 214.15,430.14 214.64,429.88 215.14,430.13 215.63,429.87 216.13,430.12 216.62,429.86 217.12,430.11 217.61,429.85 218.11,430.10 218.60,429.84 219.10,430.09 219.59,429.83 220.09,430.08 220.58,429.82 221.08,430.06 221.57,429.81 222.07,430.04 222.56,429.79 223.06,430.01 223.56,429.75 224.05,429.97 224.55,429.71 225.04,429.91 225.54,429.65 226.03,429.85 226.53,429.58 227.02,429.77 227.52,429.52 228.01,429.68 228.51,429.48 229.00,429.59 229.50,429.45 229.99,429.50 230.49,429.43 230.98,429.43 231.48,429.40 231.97,429.37 232.47,429.37 232.96,429.33 233.46,429.34 233.95,429.30 234.45,429.30 234.95,429.27 235.44,429.28 235.94,429.24 236.43,429.25 236.93,429.22 237.42,429.22 237.92,429.20 238.41,429.20 238.91,429.18 239.40,429.18 239.90,429.17 240.39,429.16 240.89,429.16 241.38,429.15 241.88,429.14 242.37,429.14 242.87,429.13 243.36,429.13 243.86,429.12 244.35,429.12 244.85,429.11 245.34,429.11 245.84,429.10 246.34,429.10 246.83,429.10 247.33,429.09 247.82,429.09 248.32,429.09 248.81,429.08 249.31,429.08 249.80,429.08 250.30,429.08 250.79,429.07 251.29,429.07 251.78,429.07 252.28,429.07 252.77,429.07 253.27,429.06 253.76,429.06 254.26,429.06 254.75,429.06 255.25,429.06 255.74,429.06 256.24,429.06 256.73,429.06 257.23,429.06 257.73,429.05 258.22,429.05 258.72,429.05 259.21,429.05 259.71,429.05 260.20,429.05 260.70,429.05 261.19,429.05 261.69,429.05 262.18,429.05 262.68,429.05 263.17,429.05 263.67,429.05 264.16,429.05 264.66,429.05 265.15,429.05 265.65,429.05 266.14,429.05 266.64,429.05 267.13,429.05 267.63,429.05 268.12,429.04 268.62,429.04 269.12,429.04 269.61,429.04 270.11,429.04 270.60,429.04 271.10,429.04 271.59,429.04 272.09,429.04 272.58,429.04 273.08,429.04 273.57,429.04 274.07,429.04 274.56,429.04 275.06,429.04 275.55,429.04 276.05,429.04 276.54,429.04 277.04,429.04 277.53,429.04 278.03,429.04 278.52,429.04 279.02,429.04 279.51,429.04 280.01,429.04 280.51,429.04 281.00,429.04 281.50,429.04 281.99,429.04 282.49,429.04 282.98,429.04 283.48,429.04 283.97,429.04 284.47,429.04 284.96,429.04 285.46,429.04 285.95,429.04 286.45,429.04 286.94,429.04 287.44,429.04 287.93,429.04 288.43,429.04 288.92,429.04 289.42,429.04 289.91,429.04 290.41,429.04 290.90,429.04 291.40,429.04 291.90,429.04 292.39,429.04 292.89,429.04 293.38,429.04 293.88,429.04 294.37,429.04 294.87,429.04 295.36,429.04 295.86,429.04 296.35,429.04 296.85,429.04 297.34,429.04 297.84,429.04 298.33,429.04 298.83,429.04 299.32,429.04 299.82,429.04 300.31,429.04 300.81,429.04 301.30,429.04 301.80,429.04 302.29,429.04 302.79,429.04 303.29,429.04 303.78,429.04 304.28,429.04 304.77,429.04 305.27,429.04 305.76,429.04 306.26,429.04 306.75,429.04 307.25,429.04 307.74,429.04 308.24,429.04 308.73,429.04 309.23,429.04 309.72,429.04 310.22,429.04 310.71,429.04 311.21,429.04 311.70,429.04 312.20,429.04 312.69,429.04 313.19,429.04 313.68,429.04 314.18,429.04 314.68,429.04 315.17,429.04 315.67,429.04 316.16,429.04 316.66,429.04 317.15,429.04 317.65,429.04 318.14,429.04 318.64,429.04 319.13,429.04 319.63,429.04 320.12,429.04 320.62,429.04 321.11,429.04 321.61,429.04 322.10,429.04 322.60,429.04 323.09,429.04 323.59,429.04 324.08,429.04 324.58,429.04 325.07,429.04 325.57,429.04 326.07,429.04 326.56,429.04 327.06,429.04 327.55,429.04 328.05,429.04 328.54,429.04 329.04,429.04 329.53,429.04 330.03,429.04 330.52,429.04 331.02,429.04 331.51,429.04 332.01,429.04 332.50,429.04 333.00,429.04 333.49,429.04 333.99,429.04 334.48,429.04 334.98,429.04 335.47,429.04 335.97,429.04 336.46,429.04 336.96,429.04 337.46,429.04 337.95,429.04 338.45,429.04 338.94,429.04 339.44,429.04 339.93,429.04 340.43,429.04 340.92,429.04 341.42,429.04 341.91,429.04 342.41,429.04 342.90,429.04 343.40,429.04 343.89,429.04 344.39,429.04 344.88,429.04 345.38,429.04 345.87,429.04 346.37,429.04 346.86,429.04 347.36,429.04 347.85,429.04 348.35,429.04 348.85,429.04 349.34,429.04 349.84,429.04 350.33,429.04 350.83,429.04 351.32,429.04 351.82,429.04 352.31,429.04 352.81,429.04 353.30,429.04 353.80,429.04 354.29,429.04 354.79,429.04 355.28,429.04 355.78,429.04 356.27,429.04 356.77,429.04 357.26,429.04 357.76,429.04 358.25,429.04 358.75,429.04 359.24,429.04 359.74,429.04 360.24,429.04 360.73,429.04 361.23,429.04 361.72,429.04 362.22,429.04 362.71,429.04 363.21,429.04 363.70,429.04 364.20,429.04 364.69,429.04 365.19,429.04 365.68,429.04 366.18,429.04 366.67,429.04 367.17,429.04 367.66,429.04 368.16,429.04 368.65,429.04 369.15,429.04 369.64,429.04 370.14,429.04 370.63,429.04 371.13,429.04 371.63,429.04 372.12,429.04 372.62,429.04 373.11,429.04 373.61,429.04 374.10,429.04 374.60,429.04 375.09,429.04 375.59,429.04 376.08,429.04 376.58,429.04 377.07,429.04 377.57,429.04 378.06,429.04 378.56,429.04 379.05,429.04 379.55,429.04 380.04,429.04 380.54,429.04 381.03,429.04 381.53,429.04 382.02,429.04 382.52,429.04 383.02,429.04 383.51,429.04 384.01,429.04 384.50,429.04 385.00,429.04 385.49,429.04 385.99,429.04 386.48,429.04 386.98,429.04 387.47,429.04 387.97,429.04 388.46,429.04 388.96,429.04 389.45,429.04 389.95,429.04 390.44,429.04 390.94,429.04 391.43,429.04 391.93,429.04 392.42,429.04 392.92,429.04 393.41,429.04 393.91,429.04 394.41,429.04 394.90,429.04 395.40,429.04 395.89,429.04 396.39,429.04 396.88,429.03 397.38,429.05 397.87,429.02 398.37,429.07 398.86,429.00 399.36,429.10 399.85,428.96 400.35,429.17 400.84,428.92 401.34,429.16 401.83,428.91 402.33,429.15 402.82,428.90 403.32,429.15 403.81,428.89 404.31,429.14 404.80,428.89 405.30,429.14 405.80,428.88 406.29,429.13 406.79,428.88 407.28,429.13 407.78,428.88 408.27,429.13 408.77,428.88 409.26,429.13 409.76,428.88 410.25,429.14 410.75,428.89 411.24,429.14 411.74,428.89 412.23,429.14 412.73,428.89 413.22,429.15 413.72,428.90 414.21,429.15 414.71,428.90 415.20,429.16 415.70,428.91 416.19,429.17 416.69,428.91 417.19,429.17 417.68,428.92 418.18,429.18 418.67,428.92 419.17,429.18 419.66,428.93 420.16,429.19 420.65,428.94 421.15,429.19 421.64,428.94 422.14,429.20 422.63,428.95 423.13,429.20 423.62,428.95 424.12,429.21 424.61,428.96 425.11,429.21 425.60,428.96 426.10,429.22 426.59,428.96 427.09,429.22 427.58,428.97 428.08,429.23 428.58,428.97 429.07,429.04 429.57,429.04 430.06,429.04 430.56,429.04 431.05,429.03 431.55,429.05 432.04,429.01 432.54,429.09 433.03,428.95 433.53,429.17 434.02,428.94 434.52,429.22 435.01,428.99 435.51,429.26 436.00,429.02 436.50,429.29 436.99,429.05 437.49,429.31 437.98,429.07 438.48,429.33 438.97,429.08 439.47,429.34 439.97,429.09 440.46,429.35 440.96,429.09 441.45,429.35 441.95,429.09 442.44,429.35 442.94,429.09 443.43,429.35 443.93,429.09 444.42,429.34 444.92,429.08 445.41,429.34 445.91,429.08 446.40,429.33 446.90,429.07 447.39,429.32 447.89,429.06 448.38,429.31 448.88,429.06 449.37,429.31 449.87,429.05 450.36,429.30 450.86,429.04 451.36,429.29 451.85,429.04 452.35,429.29 452.84,429.03 453.34,429.28 453.83,429.03 454.33,429.28 454.82,429.02 455.32,429.28 455.81,429.02 456.31,429.28 456.80,429.02 457.30,429.28 457.79,429.03 458.29,429.28 458.78,429.03 459.28,429.29 459.77,429.04 460.27,429.29 460.76,429.04 461.26,429.30 461.75,429.05 462.25,429.31 462.75,429.07 463.24,429.33 463.74,429.08 464.23,429.34 464.73,429.10 465.22,429.36 465.72,429.12 466.21,429.38 466.71,429.14 467.20,429.40 467.70,429.16 468.19,429.43 468.69,429.18 469.18,429.45 469.68,429.21 470.17,429.48 470.67,429.24 471.16,429.51 471.66,429.27 472.15,429.54 472.65,429.31 473.14,429.58 473.64,429.34 474.14,429.61 474.63,429.38 475.13,429.65 475.62,429.41 476.12,429.69 476.61,429.45 477.11,429.73 477.60,429.49 478.10,429.77 478.59,429.53 479.09,429.81 479.58,429.57 480.08,429.85 480.57,429.61 481.07,429.89 481.56,429.66 482.06,429.93 482.55,429.70 483.05,429.97 483.54,429.74 484.04,430.01 484.53,429.78 485.03,430.06 485.53,429.82 486.02,430.09 486.52,429.86 487.01,430.13 487.51,429.90 488.00,430.17 488.50,429.93 488.99,430.21 489.49,429.97 489.98,430.24 490.48,430.00 490.97,430.27 491.47,430.03 491.96,430.30 492.46,430.05 492.95,430.32 493.45,430.08 493.94,430.34 494.44,430.10 494.93,430.36 495.43,430.11 495.92,430.38 496.42,430.13 496.92,430.39 497.41,430.14 497.91,430.40 498.40,430.15 498.90,430.41 499.39,430.16 499.89,430.41 500.38,430.16 500.88,430.41 501.37,430.16 501.87,430.41 502.36,430.15 502.86,430.41 503.35,430.15 503.85,430.40 504.34,430.14 504.84,430.39 505.33,430.12 505.83,430.37 506.32,430.10 506.82,430.35 507.31,430.08 507.81,430.33 508.31,430.06 508.80,430.30 509.30,430.03 509.79,430.27 510.29,430.00 510.78,430.24 511.28,429.97 511.77,430.21 512.27,429.94 512.76,430.17 513.26,429.90 513.75,430.14 514.25,429.86 514.74,430.09 515.24,429.82 515.73,430.05 516.23,429.77 516.72,430.01 517.22,429.73 517.71,429.96 518.21,429.68 518.70,429.92 519.20,429.64 519.69,429.87 520.19,429.59 520.69,429.82 521.18,429.54 521.68,429.77 522.17,429.49 522.67,429.73 523.16,429.45 523.66,429.68 524.15,429.40 524.65,429.63 525.14,429.35 525.64,429.59 526.13,429.31 526.63,429.54 527.12,429.27 527.62,429.50 528.11,429.22 528.61,429.46 529.10,429.19 529.60,429.44 530.09,429.17 530.59,429.42 531.08,429.16 531.58,429.41 532.08,429.16 532.57,429.41 533.07,429.15 533.56,429.41 534.06,429.15 534.55,429.41 535.05,429.16 535.54,429.41 536.04,429.16 536.53,429.41 537.03,429.16 537.52,429.41 538.02,429.16 538.51,429.41 539.01,429.16 539.50,429.40 540.00,429.15 540.49,429.39 540.99,429.14 541.48,429.38 541.98,429.12 542.47,429.36 542.97,429.10 543.47,429.33 543.96,429.06 544.46,429.29 544.95,429.03 545.45,429.25 545.94,428.98 546.44,429.20 546.93,428.94 547.43,429.15 547.92,428.88 548.42,429.09 548.91,428.84 549.41,429.06 549.90,428.81 550.40,429.04 550.89,428.81 551.39,429.04 551.88,428.82 552.38,429.05 552.87,428.84 553.37,429.04 553.86,428.87 554.36,429.03 554.86,428.90 555.35,429.01 555.85,428.94 556.34,428.99 556.84,428.97 557.33,428.98 557.83,428.99 558.32,428.97 558.82,429.00 559.31,428.96 559.81,428.98 560.30,428.95 560.80,428.96 561.29,428.94 561.79,428.97 562.28,428.94 562.78,428.99 563.27,428.95 563.77,428.98 564.26,428.95 564.76,428.99 565.25,429.04 565.75,429.04 566.25,429.04 566.74,429.04 567.24,429.04 567.73,429.04 568.23,429.04 568.72,429.04 569.22,429.04 569.71,429.04 570.21,429.04 570.70,429.04 571.20,429.04 571.69,429.04 572.19,429.04 572.68,429.04 573.18,429.04 573.67,429.04 574.17,429.04 574.66,429.04 575.16,429.04 575.65,429.04 576.15,429.04 576.64,429.04 577.14,429.04 577.64,429.04 578.13,429.04 578.63,429.04 579.12,429.04 579.62,429.04 580.11,429.04 580.61,429.04 581.10,429.04 581.60,429.04 582.09,429.04 582.59,429.04 583.08,429.04 583.58,429.04 584.07,429.04 584.57,429.04 585.06,429.04 585.56,429.04 586.05,429.04 586.55,429.04 587.04,429.04 587.54,429.04 588.03,429.04 588.53,429.04 589.03,429.04 589.52,429.04 590.02,429.04 590.51,429.04 591.01,429.04 591.50,429.04 592.00,429.04 592.49,429.04 592.99,429.04 593.48,429.04 593.98,429.04 594.47,429.04 594.97,429.04 595.46,429.04 595.96,429.04 596.45,429.04 596.95,429.04 597.44,429.04 597.94,429.04 598.43,429.04 598.93,429.04 599.42,429.04 599.92,429.04 600.42,429.04 600.91,429.04 601.41,429.04 601.90,429.04 602.40,429.04 602.89,429.04 603.39,429.04 603.88,429.04 604.38,429.04 604.87,429.04 605.37,429.04 605.86,429.04 606.36,429.04 606.85,429.04 607.35,429.04 607.84,429.04 608.34,429.04 608.83,429.04 609.33,429.04 609.82,429.04 610.32,429.04 610.81,429.04 611.31,429.04 611.81,429.04 612.30,429.04 612.80,429.04 613.29,429.04 613.79,429.04 614.28,429.04 614.78,429.04 615.27,429.04 615.77,429.04 616.26,429.04 616.76,429.04 617.25,429.04 617.75,429.04 618.24,429.04 618.74,429.04 619.23,429.04 619.73,429.04 620.22,429.04 620.72,429.04 621.21,429.04 621.71,429.04 622.20,429.04 622.70,429.04 623.20,429.04 623.69,429.04 624.19,429.04 624.68,429.04 625.18,429.04 625.67,429.04 626.17,429.04 626.66,429.04 627.16,429.04 627.65,429.04 628.15,429.04 628.64,429.04 629.14,429.04 629.63,429.04 630.13,429.04 630.62,429.04 631.12,429.04 631.61,429.04 632.11,429.04 632.60,429.04 633.10,429.04 633.59,429.04 634.09,429.04 634.59,429.04 635.08,429.04 635.58,429.04 636.07,429.04 636.57,429.04 637.06,429.04 637.56,429.04 638.05,429.04 638.55,429.04 639.04,429.04 639.54,429.04 640.03,429.04 640.53,429.04 641.02,429.04 641.52,429.04 642.01,429.04 642.51,429.04 643.00,429.04 643.50,429.04 643.99,429.04 644.49,429.04 644.98,429.04 645.48,429.04 645.98,429.04 646.47,429.04 646.97,429.04 647.46,429.04 647.96,429.04 648.45,429.04 648.95,429.04 649.44,429.04 649.94,429.04 650.43,429.04 650.93,429.04 651.42,429.04 651.92,429.04 652.41,429.04 652.91,429.04 653.40,429.04 653.90,429.04 654.39,429.04 654.89,429.04 655.38,429.04 655.88,429.04 656.37,429.04 656.87,429.04 657.37,429.04 657.86,429.04 658.36,429.04 658.85,429.04 659.35,429.04 659.84,429.04 660.34,429.04 660.83,429.04 661.33,429.04 661.82,429.04 662.32,429.04 662.81,429.04 663.31,429.04 663.80,429.04 664.30,429.04 664.79,429.04 665.29,429.04 665.78,429.04 666.28,429.04 666.77,429.04 667.27,429.04 667.76,429.04 668.26,429.04 668.76,429.04 669.25,429.04 669.75,429.04 670.24,429.04 670.74,429.04 671.23,429.04 671.73,429.04 672.22,429.04 672.72,429.04 673.21,429.04 673.71,429.04 674.20,429.04 674.70,429.04 675.19,429.04 675.69,429.04 676.18,429.04 676.68,429.04 677.17,429.04 677.67,429.04 678.16,429.04 678.66,429.04 679.15,429.04 679.65,429.04 680.15,429.04 680.64,429.04 681.14,429.04 681.63,429.04 682.13,429.04 682.62,429.04 683.12,429.04 683.61,429.04 684.11,429.04 684.60,429.04 685.10,429.04 685.59,429.04 686.09,429.04 686.58,429.04 687.08,429.04 687.57,429.04 688.07,429.04 688.56,429.04 689.06,429.04 689.55,429.04 690.05,429.04 690.54,429.04 691.04,429.04 691.54,429.04 692.03,429.04 692.53,429.04 693.02,429.04 693.52,429.04 694.01,429.04 694.51,429.04 695.00,429.04 695.50,429.04 695.99,429.04 696.49,429.04 696.98,429.04 697.48,429.04 697.97,429.04 698.47,429.04 698.96,429.04 699.46,429.04 699.95,429.04 700.45,429.04 700.94,429.04 701.44,429.04 701.93,429.04 702.43,429.04 702.93,429.04 703.42,429.04 703.92,429.04 704.41,429.04 704.91,429.04 705.40,429.04 705.90,429.04 706.39,429.04 706.89,429.04 707.38,429.04 707.88,429.04 708.37,429.04 708.87,429.04 709.36,429.04 709.86,429.04 710.35,429.04 710.85,429.04 711.34,429.04 711.84,429.04 712.33,429.04 712.83,429.04 713.32,429.04 713.82,429.04 714.32,429.04 714.81,429.04 715.31,429.04 715.80,429.04 716.30,429.04 716.79,429.04 717.29,429.04 717.78,429.04 718.28,429.04 718.77,429.04 719.27,429.04 719.76,429.04 720.26,429.04 720.75,429.04 721.25,429.04 721.74,429.04 722.24,429.04 722.73,429.04 723.23,429.04 723.72,429.04 724.22,429.04 724.71,429.04 725.21,429.04 725.71,429.04 726.20,429.04 726.70,429.04 727.19,429.04 727.69,429.04 728.18,429.04 728.68,429.04 729.17,429.04 729.67,429.04 730.16,429.04 730.66,429.04 731.15,429.04 731.65,429.04 732.14,429.04 732.64,429.04 733.13,429.04 733.63,429.04 734.12,429.04 734.62,429.04 735.11,429.04 735.61,429.04 736.10,429.04 736.60,429.04 737.10,429.04 737.59,429.04 738.09,429.04 738.58,429.04 739.08,429.04 739.57,429.04 740.07,429.04 740.56,429.04 741.06,429.04 741.55,429.04 742.05,429.04 742.54,429.04 743.04,429.04 743.53,429.04 744.03,429.04 744.52,429.04 745.02,429.04 745.51,429.04 746.01,429.04 746.50,429.04 747.00,429.04 747.49,429.04 747.99,429.04 748.49,429.04 748.98,429.04 749.48,429.04 749.97,429.04 750.47,429.04 750.96,429.04 751.46,429.04 751.95,429.04 752.45,429.04 752.94,429.04 753.44,429.04 753.93,429.04 754.43,429.04 754.92,429.04 755.42,429.04 755.91,429.04 756.41,429.04 756.90,429.04 757.40,429.04 757.89,429.04 758.39,429.04 758.88,429.04 759.38,429.04 759.88,429.04 760.37,429.04 760.87,429.04 761.36,429.04 761.86,429.04 762.35,429.04 762.85,429.04 763.34,429.04 763.84,429.04 764.33,429.04 764.83,429.04 765.32,429.04 765.82,429.04 766.31,429.04 766.81,429.04 767.30,429.04 767.80,429.04 768.29,429.04 768.79,429.04 769.28,429.04 769.78,429.04 770.27,429.04 770.77,429.04 771.27,429.04 771.76,429.04 772.26,429.04 772.75,429.04 773.25,429.04 773.74,429.04 774.24,429.04 774.73,429.04 775.23,429.04 775.72,429.04 776.22,429.04 776.71,429.04 777.21,429.04 777.70,429.04 778.20,429.04 778.69,429.04 779.19,429.04 779.68,429.04 780.18,429.04 780.67,429.04 781.17,429.04 781.66,429.04 782.16,429.04 782.66,429.04 783.15,429.04 783.65,429.04 784.14,429.04 784.64,429.04 785.13,429.04 785.63,429.04 786.12,429.04 786.62,429.04 787.11,429.04 787.61,429.04 788.10,429.04 788.60,429.04 789.09,429.04 789.59,429.04 790.08,429.04 790.58,429.04 791.07,429.04 791.57,429.04 792.06,429.04 792.56,429.04 793.05,429.04 793.55,429.04 794.05,429.04 794.54,429.04 795.04,429.04 795.53,429.04 796.03,429.04 796.52,429.04 797.02,429.04 797.51,429.04 798.01,429.04 798.50,429.04 799.00,429.04 799.49,429.04 799.99,429.04 800.48,429.04 800.98,429.04 801.47,429.04 801.97,429.04 802.46,429.03 802.96,429.05 803.45,429.02 803.95,429.08 804.44,428.99 804.94,429.10 805.44,428.97 805.93,429.13 806.43,428.94 806.92,429.16 807.42,428.92 807.91,429.16 808.41,428.93 808.90,429.17 809.40,428.92 809.89,429.17 810.39,428.92 810.88,429.17 811.38,428.92 811.87,429.18 812.37,428.91 812.86,429.18 813.36,428.90 813.85,429.19 814.35,428.90 814.84,429.19 815.34,428.89 815.83,429.20 816.33,428.88 816.82,429.20 817.32,428.88 817.82,429.21 818.31,428.87 818.81,429.22 819.30,428.87 819.80,429.22 820.29,428.87 820.79,429.22 821.28,428.88 821.78,429.22 822.27,428.89 822.77,429.23 823.26,428.91 823.76,429.25 824.25,428.94 824.75,429.28 825.24,428.96 825.74,429.32 826.23,429.01 826.73,429.35 827.22,429.06 827.72,429.38 828.21,429.11 828.71,429.40 829.21,429.17 829.70,429.41 830.20,429.19 830.69,429.31 831.19,429.25 831.68,429.19 832.18,429.35 832.67,429.04 833.17,429.26 833.66,428.93 834.16,429.19 834.65,428.83 835.15,429.12 835.64,428.75 836.14,429.05 836.63,428.69 837.13,428.98 837.62,428.63 838.12,428.92 838.61,428.58 839.11,428.88 839.60,428.54 840.10,428.84 840.60,428.53 841.09,428.81 841.59,428.53 842.08,428.78 842.58,428.54 843.07,428.76 843.57,428.66 844.06,428.71 844.56,428.79 845.05,428.64 845.55,428.89 846.04,428.63 846.54,428.91 847.03,428.61 847.53,428.92 848.02,428.60 848.52,428.91 849.01,428.58 849.51,428.89 850.00,428.57 850.50,428.87 850.99,428.56 851.49,428.86 851.99,428.56 852.48,428.85 852.98,428.56 853.47,428.85 853.97,428.58 854.46,428.84 854.96,428.60 855.45,428.84 855.95,428.69 856.44,428.80 856.94,428.79 857.43,428.77 857.93,428.87 858.42,428.74 858.92,428.97 859.41,428.77 859.91,429.07 860.40,428.83 860.90,429.14 861.39,428.87 861.89,429.19 862.38,428.91 862.88,429.23 863.38,428.94 863.87,429.25 864.37,428.97 864.86,429.27 865.36,428.99 865.85,429.29 866.35,429.01 866.84,429.31 867.34,429.04 867.83,429.33 868.33,429.06 868.82,429.35 869.32,429.09 869.81,429.38 870.31,429.12 870.80,429.40 871.30,429.14 871.79,429.42 872.29,429.17 872.78,429.45 873.28,429.21 873.77,429.47 874.27,429.24 874.77,429.49 875.26,429.26 875.76,429.48 876.25,429.23 876.75,429.42 877.24,429.22 877.74,429.37 878.23,429.22 878.73,429.31 879.22,429.21 879.72,429.27 880.21,429.20 880.71,429.23 881.20,429.19 881.70,429.21 882.19,429.18 882.69,429.18 883.18,429.17 883.68,429.17 884.17,429.15 884.67,429.15 885.16,429.14 885.66,429.14 886.16,429.13 886.65,429.13 887.15,429.12 887.64,429.12 888.14,429.11 888.63,429.11 889.13,429.11 889.62,429.11 890.12,429.11 890.61,429.11 891.11,429.11 891.60,429.11 892.10,429.11 892.59,429.11 893.09,429.11 893.58,429.11 894.08,429.11 894.57,429.11 895.07,429.11 895.56,429.11 896.06,429.11 896.55,429.11 897.05,429.11 897.55,429.11 898.04,429.11 898.54,429.11 899.03,429.11 899.53,429.11 900.02,429.11 900.52,429.11 901.01,429.11 901.51,429.11 902.00,429.11 902.50,429.11 902.99,429.11 903.49,429.11 903.98,429.11 904.48,429.11 904.97,429.11 905.47,429.11 905.96,429.11 906.46,429.11 906.95,429.11 907.45,429.11 907.94,429.11 908.44,429.11 908.94,429.11 909.43,429.11 909.93,429.11 910.42,429.11 910.92,429.11 911.41,429.11 911.91,429.11 912.40,429.11 912.90,429.11 913.39,429.11 913.89,429.11 914.38,429.11 914.88,429.11 915.37,429.11 915.87,429.11 916.36,429.11 916.86,429.11 917.35,429.11 917.85,429.11 918.34,429.11 918.84,429.11 919.33,429.11 919.83,429.11 920.33,429.11 920.82,429.11 921.32,429.11 921.81,429.11 922.31,429.11 922.80,429.11 923.30,429.11 923.79,429.11 924.29,429.11 924.78,429.11 925.28,429.11 925.77,429.11 926.27,429.11 926.76,429.11 927.26,429.11 927.75,429.11 928.25,429.11 928.74,429.11 929.24,429.11 929.73,429.11 930.23,429.11 930.72,429.11 931.22,429.11 931.72,429.11 932.21,429.11 932.71,429.11 933.20,429.11 933.70,429.11 934.19,429.11 934.69,429.11 935.18,429.11 935.68,429.11 936.17,429.11 936.67,429.11 937.16,429.11 937.66,429.11 938.15,429.11 938.65,429.11 939.14,429.11 939.64,429.11 940.13,429.11 940.63,429.11 941.12,429.11 941.62,429.11 942.11,429.11 942.61,429.11 943.11,429.11 943.60,429.11 944.10,429.11 944.59,429.11 945.09,429.11 945.58,429.11 946.08,429.11 946.57,429.11 947.07,429.11 947.56,429.11 948.06,429.11 948.55,429.11 949.05,429.11 949.54,429.11 950.04,429.11 950.53,429.11 951.03,429.11 951.52,429.11 952.02,429.11 952.51,429.11 953.01,429.11 953.50,429.11 954.00,429.11"/>
<polyline fill="none" stroke="#9467bd" stroke-width="2.4" points="74.00,429.04 74.50,429.04 74.99,429.04 75.49,429.04 75.98,429.04 76.48,429.04 76.97,429.04 77.47,429.04 77.96,429.04 78.46,429.04 78.95,429.04 79.45,429.04 79.94,429.04 80.44,429.04 80.93,429.04 81.43,429.04 81.92,429.04 82.42,429.04 82.91,429.04 83.41,429.04 83.90,429.04 84.40,429.04 84.89,429.04 85.39,429.04 85.89,429.04 86.38,429.04 86.88,429.04 87.37,429.04 87.87,429.04 88.36,429.04 88.86,429.04 89.35,429.04 89.85,429.04 90.34,429.04 90.84,429.04 91.33,429.04 91.83,429.04 92.32,429.04 92.82,429.04 93.31,429.04 93.81,429.04 94.30,429.04 94.80,429.04 95.29,429.04 95.79,429.04 96.28,429.04 96.78,429.04 97.28,429.04 97.77,429.04 98.27,429.04 98.76,429.04 99.26,429.04 99.75,429.04 100.25,429.04 100.74,429.04 101.24,429.04 101.73,429.04 102.23,429.04 102.72,429.04 103.22,429.04 103.71,429.04 104.21,429.04 104.70,429.04 105.20,429.04 105.69,429.04 106.19,429.04 106.68,429.04 107.18,429.04 107.67,429.04 108.17,429.04 108.67,429.04 109.16,429.04 109.66,429.04 110.15,429.04 110.65,429.04 111.14,429.04 111.64,429.04 112.13,429.04 112.63,429.04 113.12,429.04 113.62,429.04 114.11,429.04 114.61,429.04 115.10,429.04 115.60,429.04 116.09,429.04 116.59,429.04 117.08,429.04 117.58,429.04 118.07,429.04 118.57,429.04 119.06,429.04 119.56,429.04 120.06,429.04 120.55,429.04 121.05,429.04 121.54,429.04 122.04,429.04 122.53,429.04 123.03,429.04 123.52,429.04 124.02,429.04 124.51,429.04 125.01,429.04 125.50,429.04 126.00,429.04 126.49,429.04 126.99,429.04 127.48,429.04 127.98,429.04 128.47,429.04 128.97,429.04 129.46,429.04 129.96,429.04 130.45,429.04 130.95,429.04 131.45,429.04 131.94,429.04 132.44,429.04 132.93,429.04 133.43,429.04 133.92,429.04 134.42,429.04 134.91,429.04 135.41,429.04 135.90,429.04 136.40,429.04 136.89,429.04 137.39,429.04 137.88,429.04 138.38,429.04 138.87,429.04 139.37,429.04 139.86,429.04 140.36,429.04 140.85,429.04 141.35,429.04 141.84,429.04 142.34,429.04 142.84,429.04 143.33,429.04 143.83,429.04 144.32,429.04 144.82,429.04 145.31,429.04 145.81,429.04 146.30,429.04 146.80,429.04 147.29,429.04 147.79,429.04 148.28,429.04 148.78,429.04 149.27,429.04 149.77,429.04 150.26,429.04 150.76,429.04 151.25,429.04 151.75,429.04 152.24,429.04 152.74,429.04 153.23,429.04 153.73,429.04 154.23,429.04 154.72,429.04 155.22,429.04 155.71,429.04 156.21,429.04 156.70,429.04 157.20,429.04 157.69,429.04 158.19,429.04 158.68,429.04 159.18,429.04 159.67,429.04 160.17,429.04 160.66,429.04 161.16,429.04 161.65,429.04 162.15,429.04 162.64,429.04 163.14,429.04 163.63,429.04 164.13,429.04 164.62,429.04 165.12,429.04 165.62,429.04 166.11,429.04 166.61,429.04 167.10,429.04 167.60,429.04 168.09,429.04 168.59,429.04 169.08,429.04 169.58,429.04 170.07,429.04 170.57,429.04 171.06,429.04 171.56,429.04 172.05,429.04 172.55,429.04 173.04,429.04 173.54,429.04 174.03,429.04 174.53,429.04 175.02,429.04 175.52,429.04 176.01,429.04 176.51,429.04 177.01,429.04 177.50,429.04 178.00,429.04 178.49,429.04 178.99,429.04 179.48,429.04 179.98,429.04 180.47,429.04 180.97,429.04 181.46,429.04 181.96,429.04 182.45,429.04 182.95,429.04 183.44,429.04 183.94,429.04 184.43,429.04 184.93,429.04 185.42,429.04 185.92,429.04 186.41,429.04 186.91,429.04 187.40,429.04 187.90,429.04 188.40,429.04 188.89,429.04 189.39,429.04 189.88,429.04 190.38,429.04 190.87,429.04 191.37,429.04 191.86,429.04 192.36,429.04 192.85,429.04 193.35,429.04 193.84,429.04 194.34,429.04 194.83,429.04 195.33,429.04 195.82,429.04 196.32,429.04 196.81,429.04 197.31,429.04 197.80,429.04 198.30,429.04 198.79,429.04 199.29,429.04 199.79,429.04 200.28,429.04 200.78,429.04 201.27,429.04 201.77,429.04 202.26,429.04 202.76,429.04 203.25,429.04 203.75,429.04 204.24,429.04 204.74,429.04 205.23,429.04 205.73,429.04 206.22,429.04 206.72,429.04 207.21,429.04 207.71,429.04 208.20,429.04 208.70,429.04 209.19,429.04 209.69,429.04 210.18,429.04 210.68,429.04 211.18,429.04 211.67,429.04 212.17,429.04 212.66,429.04 213.16,429.04 213.65,429.04 214.15,429.04 214.64,429.04 215.14,429.04 215.63,429.04 216.13,429.04 216.62,429.04 217.12,429.04 217.61,429.04 218.11,429.04 218.60,429.04 219.10,429.04 219.59,429.04 220.09,429.04 220.58,429.04 221.08,429.04 221.57,429.04 222.07,429.04 222.56,429.04 223.06,429.04 223.56,429.04 224.05,429.04 224.55,429.04 225.04,429.04 225.54,429.04 226.03,429.04 226.53,429.04 227.02,429.04 227.52,429.04 228.01,429.04 228.51,429.04 229.00,429.04 229.50,429.04 229.99,429.04 230.49,429.04 230.98,429.04 231.48,429.04 231.97,429.04 232.47,429.04 232.96,429.04 233.46,429.04 233.95,429.04 234.45,429.04 234.95,429.04 235.44,429.04 235.94,429.04 236.43,429.04 236.93,429.04 237.42,429.04 237.92,429.04 238.41,429.04 238.91,429.04 239.40,429.04 239.90,429.04 240.39,429.04 240.89,429.04 241.38,429.04 241.88,429.04 242.37,429.04 242.87,429.04 243.36,429.04 243.86,429.04 244.35,429.04 244.85,429.04 245.34,429.04 245.84,429.04 246.34,429.04 246.83,429.04 247.33,429.04 247.82,429.04 248.32,429.04 248.81,429.04 249.31,429.04 249.80,429.04 250.30,429.04 250.79,429.04 251.29,429.04 251.78,429.04 252.28,429.04 252.77,429.04 253.27,429.04 253.76,429.04 254.26,429.04 254.75,429.04 255.25,429.04 255.74,429.04 256.24,429.04 256.73,429.04 257.23,429.04 257.73,429.04 258.22,429.04 258.72,429.04 259.21,429.04 259.71,429.04 260.20,429.04 260.70,429.04 261.19,429.04 261.69,429.04 262.18,429.04 262.68,429.04 263.17,429.04 263.67,429.04 264.16,429.04 264.66,429.04 265.15,429.04 265.65,429.04 266.14,429.04 266.64,429.04 267.13,429.04 267.63,429.04 268.12,429.04 268.62,429.04 269.12,429.04 269.61,429.04 270.11,429.04 270.60,429.04 271.10,429.04 271.59,429.04 272.09,429.04 272.58,429.04 273.08,429.04 273.57,429.04 274.07,429.04 274.56,429.04 275.06,429.04 275.55,429.04 276.05,429.04 276.54,429.04 277.04,429.04 277.53,429.04 278.03,429.04 278.52,429.04 279.02,429.04 279.51,429.04 280.01,429.04 280.51,429.04 281.00,429.04 281.50,429.04 281.99,429.04 282.49,429.04 282.98,429.04 283.48,429.04 283.97,429.04 284.47,429.04 284.96,429.04 285.46,429.04 285.95,429.04 286.45,429.04 286.94,429.04 287.44,429.04 287.93,429.04 288.43,429.04 288.92,429.04 289.42,429.04 289.91,429.04 290.41,429.04 290.90,429.04 291.40,429.04 291.90,429.04 292.39,429.04 292.89,429.04 293.38,429.04 293.88,429.04 294.37,429.04 294.87,429.04 295.36,429.04 295.86,429.04 296.35,429.04 296.85,429.04 297.34,429.04 297.84,429.04 298.33,429.04 298.83,429.04 299.32,429.04 299.82,429.04 300.31,429.04 300.81,429.04 301.30,429.04 301.80,429.04 302.29,429.04 302.79,429.04 303.29,429.04 303.78,429.04 304.28,429.04 304.77,429.04 305.27,429.04 305.76,429.04 306.26,429.04 306.75,429.04 307.25,429.04 307.74,429.04 308.24,429.04 308.73,429.04 309.23,429.04 309.72,429.04 310.22,429.04 310.71,429.04 311.21,429.04 311.70,429.04 312.20,429.04 312.69,429.04 313.19,429.04 313.68,429.04 314.18,429.04 314.68,429.04 315.17,429.04 315.67,429.04 316.16,429.04 316.66,429.04 317.15,429.04 317.65,429.04 318.14,429.04 318.64,429.04 319.13,429.04 319.63,429.04 320.12,429.04 320.62,429.04 321.11,429.04 321.61,429.04 322.10,429.04 322.60,429.04 323.09,429.04 323.59,429.04 324.08,429.04 324.58,429.04 325.07,429.04 325.57,429.04 326.07,429.04 326.56,429.04 327.06,429.04 327.55,429.04 328.05,429.04 328.54,429.04 329.04,429.04 329.53,429.04 330.03,429.04 330.52,429.04 331.02,429.04 331.51,429.04 332.01,429.04 332.50,429.04 333.00,429.04 333.49,429.04 333.99,429.04 334.48,429.04 334.98,429.04 335.47,429.04 335.97,429.04 336.46,429.04 336.96,429.04 337.46,429.04 337.95,429.04 338.45,429.04 338.94,429.04 339.44,429.04 339.93,429.04 340.43,429.04 340.92,429.04 341.42,429.04 341.91,429.04 342.41,429.04 342.90,429.04 343.40,429.04 343.89,429.04 344.39,429.04 344.88,429.04 345.38,429.04 345.87,429.04 346.37,429.04 346.86,429.04 347.36,429.04 347.85,429.04 348.35,429.04 348.85,429.04 349.34,429.04 349.84,429.04 350.33,429.04 350.83,429.04 351.32,429.04 351.82,429.04 352.31,429.04 352.81,429.04 353.30,429.04 353.80,429.04 354.29,429.04 354.79,429.04 355.28,429.04 355.78,429.04 356.27,429.04 356.77,429.04 357.26,429.04 357.76,429.04 358.25,429.04 358.75,429.04 359.24,429.04 359.74,429.04 360.24,429.04 360.73,429.04 361.23,429.04 361.72,429.04 362.22,429.04 362.71,429.04 363.21,429.04 363.70,429.04 364.20,429.04 364.69,429.04 365.19,429.04 365.68,429.04 366.18,429.04 366.67,429.04 367.17,429.04 367.66,429.04 368.16,429.04 368.65,429.04 369.15,429.04 369.64,429.04 370.14,429.04 370.63,429.04 371.13,429.04 371.63,429.04 372.12,429.04 372.62,429.04 373.11,429.04 373.61,429.04 374.10,429.04 374.60,429.04 375.09,429.04 375.59,429.04 376.08,429.04 376.58,429.04 377.07,429.04 377.57,429.04 378.06,429.04 378.56,429.04 379.05,429.04 379.55,429.04 380.04,429.04 380.54,429.04 381.03,429.04 381.53,429.04 382.02,429.04 382.52,429.04 383.02,429.04 383.51,429.04 384.01,429.04 384.50,429.04 385.00,429.04 385.49,429.04 385.99,429.04 386.48,429.04 386.98,429.04 387.47,429.04 387.97,429.04 388.46,429.04 388.96,429.04 389.45,429.04 389.95,429.04 390.44,429.04 390.94,429.04 391.43,429.04 391.93,429.04 392.42,429.04 392.92,429.04 393.41,429.04 393.91,429.04 394.41,429.04 394.90,429.04 395.40,429.04 395.89,429.04 396.39,429.04 396.88,429.04 397.38,429.04 397.87,429.04 398.37,429.04 398.86,429.04 399.36,429.04 399.85,429.04 400.35,429.04 400.84,429.04 401.34,429.04 401.83,429.04 402.33,429.04 402.82,429.04 403.32,429.04 403.81,429.04 404.31,429.04 404.80,429.04 405.30,429.04 405.80,429.04 406.29,429.04 406.79,429.04 407.28,429.04 407.78,429.04 408.27,429.04 408.77,429.04 409.26,429.04 409.76,429.04 410.25,429.04 410.75,429.04 411.24,429.04 411.74,429.04 412.23,429.04 412.73,429.04 413.22,429.04 413.72,429.04 414.21,429.04 414.71,429.04 415.20,429.04 415.70,429.04 416.19,429.04 416.69,429.04 417.19,429.04 417.68,429.04 418.18,429.04 418.67,429.04 419.17,429.04 419.66,429.04 420.16,429.04 420.65,429.04 421.15,429.04 421.64,429.04 422.14,429.04 422.63,429.04 423.13,429.04 423.62,429.04 424.12,429.04 424.61,429.04 425.11,429.04 425.60,429.04 426.10,429.04 426.59,429.04 427.09,429.04 427.58,429.04 428.08,429.04 428.58,429.04 429.07,429.04 429.57,429.04 430.06,429.04 430.56,429.04 431.05,429.04 431.55,429.04 432.04,429.04 432.54,429.04 433.03,429.04 433.53,429.04 434.02,429.04 434.52,429.04 435.01,429.04 435.51,429.04 436.00,429.04 436.50,429.04 436.99,429.04 437.49,429.04 437.98,429.04 438.48,429.04 438.97,429.04 439.47,429.04 439.97,429.04 440.46,429.04 440.96,429.04 441.45,429.04 441.95,429.04 442.44,429.04 442.94,429.04 443.43,429.04 443.93,429.04 444.42,429.04 444.92,429.04 445.41,429.04 445.91,429.04 446.40,429.04 446.90,429.04 447.39,429.04 447.89,429.04 448.38,429.04 448.88,429.04 449.37,429.04 449.87,429.04 450.36,429.04 450.86,429.04 451.36,429.04 451.85,429.04 452.35,429.04 452.84,429.04 453.34,429.04 453.83,429.04 454.33,429.04 454.82,429.04 455.32,429.04 455.81,429.04 456.31,429.04 456.80,429.04 457.30,429.04 457.79,429.04 458.29,429.04 458.78,429.04 459.28,429.04 459.77,429.04 460.27,429.04 460.76,429.04 461.26,429.04 461.75,429.04 462.25,429.04 462.75,429.04 463.24,429.04 463.74,429.04 464.23,429.04 464.73,429.04 465.22,429.04 465.72,429.04 466.21,429.04 466.71,429.04 467.20,429.04 467.70,429.04 468.19,429.04 468.69,429.04 469.18,429.04 469.68,429.04 470.17,429.04 470.67,429.04 471.16,429.04 471.66,429.04 472.15,429.04 472.65,429.04 473.14,429.04 473.64,429.04 474.14,429.04 474.63,429.04 475.13,429.04 475.62,429.04 476.12,429.04 476.61,429.04 477.11,429.04 477.60,429.04 478.10,429.04 478.59,429.04 479.09,429.04 479.58,429.04 480.08,429.04 480.57,429.04 481.07,429.04 481.56,429.04 482.06,429.04 482.55,429.04 483.05,429.04 483.54,429.04 484.04,429.04 484.53,429.04 485.03,429.04 485.53,429.04 486.02,429.04 486.52,429.04 487.01,429.04 487.51,429.04 488.00,429.04 488.50,429.04 488.99,429.04 489.49,429.04 489.98,429.04 490.48,429.04 490.97,429.04 491.47,429.04 491.96,429.04 492.46,429.04 492.95,429.04 493.45,429.04 493.94,429.04 494.44,429.04 494.93,429.04 495.43,429.04 495.92,429.04 496.42,429.04 496.92,429.04 497.41,429.04 497.91,429.04 498.40,429.04 498.90,429.04 499.39,429.04 499.89,429.04 500.38,429.04 500.88,429.04 501.37,429.04 501.87,429.04 502.36,429.04 502.86,429.04 503.35,429.04 503.85,429.04 504.34,429.04 504.84,429.04 505.33,429.04 505.83,429.04 506.32,429.04 506.82,429.04 507.31,429.04 507.81,429.04 508.31,429.04 508.80,429.04 509.30,429.04 509.79,429.04 510.29,429.04 510.78,429.04 511.28,429.04 511.77,429.04 512.27,429.04 512.76,429.04 513.26,429.04 513.75,429.04 514.25,429.04 514.74,429.04 515.24,429.04 515.73,429.04 516.23,429.04 516.72,429.04 517.22,429.04 517.71,429.04 518.21,429.04 518.70,429.04 519.20,429.04 519.69,429.04 520.19,429.04 520.69,429.04 521.18,429.04 521.68,429.04 522.17,429.04 522.67,429.04 523.16,429.04 523.66,429.04 524.15,429.04 524.65,429.04 525.14,429.04 525.64,429.04 526.13,429.04 526.63,429.04 527.12,429.04 527.62,429.04 528.11,429.04 528.61,429.04 529.10,429.04 529.60,429.04 530.09,429.04 530.59,429.04 531.08,429.04 531.58,429.04 532.08,429.04 532.57,429.04 533.07,429.04 533.56,429.04 534.06,429.04 534.55,429.04 535.05,429.04 535.54,429.04 536.04,429.04 536.53,429.04 537.03,429.04 537.52,429.04 538.02,429.04 538.51,429.04 539.01,429.04 539.50,429.04 540.00,429.04 540.49,429.04 540.99,429.04 541.48,429.04 541.98,429.04 542.47,429.04 542.97,429.04 543.47,429.04 543.96,429.04 544.46,429.04 544.95,429.04 545.45,429.04 545.94,429.04 546.44,429.04 546.93,429.04 547.43,429.04 547.92,429.04 548.42,429.04 548.91,429.04 549.41,429.04 549.90,429.04 550.40,429.04 550.89,429.04 551.39,429.04 551.88,429.04 552.38,429.04 552.87,429.04 553.37,429.04 553.86,429.04 554.36,429.04 554.86,429.04 555.35,429.04 555.85,429.04 556.34,429.04 556.84,429.04 557.33,429.04 557.83,429.04 558.32,429.04 558.82,429.04 559.31,429.04 559.81,429.04 560.30,429.04 560.80,429.04 561.29,429.04 561.79,429.04 562.28,429.04 562.78,429.04 563.27,429.04 563.77,429.04 564.26,429.04 564.76,429.04 565.25,429.04 565.75,429.04 566.25,429.04 566.74,429.04 567.24,429.04 567.73,429.04 568.23,429.04 568.72,429.04 569.22,429.04 569.71,429.04 570.21,429.04 570.70,429.04 571.20,429.04 571.69,429.04 572.19,429.04 572.68,429.04 573.18,429.04 573.67,429.04 574.17,429.04 574.66,429.04 575.16,429.04 575.65,429.04 576.15,429.04 576.64,429.04 577.14,429.04 577.64,429.04 578.13,429.04 578.63,429.04 579.12,429.04 579.62,429.04 580.11,429.04 580.61,429.04 581.10,429.04 581.60,429.04 582.09,429.04 582.59,429.04 583.08,429.04 583.58,429.04 584.07,429.04 584.57,429.04 585.06,429.04 585.56,429.04 586.05,429.04 586.55,429.04 587.04,429.04 587.54,429.04 588.03,429.04 588.53,429.04 589.03,429.04 589.52,429.04 590.02,429.04 590.51,429.04 591.01,429.04 591.50,429.04 592.00,429.04 592.49,429.04 592.99,429.04 593.48,429.04 593.98,429.04 594.47,429.04 594.97,429.04 595.46,429.04 595.96,429.04 596.45,429.04 596.95,429.04 597.44,429.04 597.94,429.04 598.43,429.04 598.93,429.04 599.42,429.04 599.92,429.04 600.42,429.04 600.91,429.04 601.41,429.04 601.90,429.04 602.40,429.04 602.89,429.04 603.39,429.04 603.88,429.04 604.38,429.04 604.87,429.04 605.37,429.04 605.86,429.04 606.36,429.04 606.85,429.04 607.35,429.04 607.84,429.04 608.34,429.04 608.83,429.04 609.33,429.04 609.82,429.04 610.32,429.04 610.81,429.04 611.31,429.04 611.81,429.04 612.30,429.04 612.80,429.04 613.29,429.04 613.79,429.04 614.28,429.04 614.78,429.04 615.27,429.04 615.77,429.04 616.26,429.04 616.76,429.04 617.25,429.04 617.75,429.04 618.24,429.04 618.74,429.04 619.23,429.04 619.73,429.04 620.22,429.04 620.72,429.04 621.21,429.04 621.71,429.04 622.20,429.04 622.70,429.04 623.20,429.04 623.69,429.04 624.19,429.04 624.68,429.04 625.18,429.04 625.67,429.04 626.17,429.04 626.66,429.04 627.16,429.04 627.65,429.04 628.15,429.04 628.64,429.04 629.14,429.04 629.63,429.04 630.13,429.04 630.62,429.04 631.12,429.04 631.61,429.04 632.11,429.04 632.60,429.04 633.10,429.04 633.59,429.04 634.09,429.04 634.59,429.04 635.08,429.04 635.58,429.04 636.07,429.04 636.57,429.04 637.06,429.04 637.56,429.04 638.05,429.04 638.55,429.04 639.04,429.04 639.54,429.04 640.03,429.04 640.53,429.04 641.02,429.04 641.52,429.04 642.01,429.04 642.51,429.04 643.00,429.04 643.50,429.04 643.99,429.04 644.49,429.04 644.98,429.04 645.48,429.04 645.98,429.04 646.47,429.04 646.97,429.04 647.46,429.04 647.96,429.04 648.45,429.04 648.95,429.04 649.44,429.04 649.94,429.04 650.43,429.04 650.93,429.04 651.42,429.04 651.92,429.04 652.41,429.04 652.91,429.04 653.40,429.04 653.90,429.04 654.39,429.04 654.89,429.04 655.38,429.04 655.88,429.04 656.37,429.04 656.87,429.04 657.37,429.04 657.86,429.04 658.36,429.04 658.85,429.04 659.35,429.04 659.84,429.04 660.34,429.04 660.83,429.04 661.33,429.04 661.82,429.04 662.32,429.04 662.81,429.04 663.31,429.04 663.80,429.04 664.30,429.04 664.79,429.04 665.29,429.04 665.78,429.04 666.28,429.04 666.77,429.04 667.27,429.04 667.76,429.04 668.26,429.04 668.76,429.04 669.25,429.04 669.75,429.04 670.24,429.04 670.74,429.04 671.23,429.04 671.73,429.04 672.22,429.04 672.72,429.04 673.21,429.04 673.71,429.04 674.20,429.04 674.70,429.04 675.19,429.04 675.69,429.04 676.18,429.04 676.68,429.04 677.17,429.04 677.67,429.04 678.16,429.04 678.66,429.04 679.15,429.04 679.65,429.04 680.15,429.04 680.64,429.04 681.14,429.04 681.63,429.04 682.13,429.04 682.62,429.04 683.12,429.04 683.61,429.04 684.11,429.04 684.60,429.04 685.10,429.04 685.59,429.04 686.09,429.04 686.58,429.04 687.08,429.04 687.57,429.04 688.07,429.04 688.56,429.04 689.06,429.04 689.55,429.04 690.05,429.04 690.54,429.04 691.04,429.04 691.54,429.04 692.03,429.04 692.53,429.04 693.02,429.04 693.52,429.04 694.01,429.04 694.51,429.04 695.00,429.04 695.50,429.04 695.99,429.04 696.49,429.04 696.98,429.04 697.48,429.04 697.97,429.04 698.47,429.04 698.96,429.04 699.46,429.04 699.95,429.04 700.45,429.04 700.94,429.04 701.44,429.04 701.93,429.04 702.43,429.04 702.93,429.04 703.42,429.04 703.92,429.04 704.41,429.04 704.91,429.04 705.40,429.04 705.90,429.04 706.39,429.04 706.89,429.04 707.38,429.04 707.88,429.04 708.37,429.04 708.87,429.04 709.36,429.04 709.86,429.04 710.35,429.04 710.85,429.04 711.34,429.04 711.84,429.04 712.33,429.04 712.83,429.04 713.32,429.04 713.82,429.04 714.32,429.04 714.81,429.04 715.31,429.04 715.80,429.04 716.30,429.04 716.79,429.04 717.29,429.04 717.78,429.04 718.28,429.04 718.77,429.04 719.27,429.04 719.76,429.04 720.26,429.04 720.75,429.04 721.25,429.04 721.74,429.04 722.24,429.04 722.73,429.04 723.23,429.04 723.72,429.04 724.22,429.04 724.71,429.04 725.21,429.04 725.71,429.04 726.20,429.04 726.70,429.04 727.19,429.04 727.69,429.04 728.18,429.04 728.68,429.04 729.17,429.04 729.67,429.04 730.16,429.04 730.66,429.04 731.15,429.04 731.65,429.04 732.14,429.04 732.64,429.04 733.13,429.04 733.63,429.04 734.12,429.04 734.62,429.04 735.11,429.04 735.61,429.04 736.10,429.04 736.60,429.04 737.10,429.04 737.59,429.04 738.09,429.04 738.58,429.04 739.08,429.04 739.57,429.04 740.07,429.04 740.56,429.04 741.06,429.04 741.55,429.04 742.05,429.04 742.54,429.04 743.04,429.04 743.53,429.04 744.03,429.04 744.52,429.04 745.02,429.04 745.51,429.04 746.01,429.04 746.50,429.04 747.00,429.04 747.49,429.04 747.99,429.04 748.49,429.04 748.98,429.04 749.48,429.04 749.97,429.04 750.47,429.04 750.96,429.04 751.46,429.04 751.95,429.04 752.45,429.04 752.94,429.04 753.44,429.04 753.93,429.04 754.43,429.04 754.92,429.04 755.42,429.04 755.91,429.04 756.41,429.04 756.90,429.04 757.40,429.04 757.89,429.04 758.39,429.04 758.88,429.04 759.38,429.04 759.88,429.04 760.37,429.04 760.87,429.04 761.36,429.04 761.86,429.04 762.35,429.04 762.85,429.04 763.34,429.04 763.84,429.04 764.33,429.04 764.83,429.04 765.32,429.04 765.82,429.04 766.31,429.04 766.81,429.04 767.30,429.04 767.80,429.04 768.29,429.04 768.79,429.04 769.28,429.04 769.78,429.04 770.27,429.04 770.77,429.04 771.27,429.04 771.76,429.04 772.26,429.04 772.75,429.04 773.25,429.04 773.74,429.04 774.24,429.04 774.73,429.04 775.23,429.04 775.72,429.04 776.22,429.04 776.71,429.04 777.21,429.04 777.70,429.04 778.20,429.04 778.69,429.04 779.19,429.04 779.68,429.04 780.18,429.04 780.67,429.04 781.17,429.04 781.66,429.04 782.16,429.04 782.66,429.04 783.15,429.04 783.65,429.04 784.14,429.04 784.64,429.04 785.13,429.04 785.63,429.04 786.12,429.04 786.62,429.04 787.11,429.04 787.61,429.04 788.10,429.04 788.60,429.04 789.09,429.04 789.59,429.04 790.08,429.04 790.58,429.04 791.07,429.04 791.57,429.04 792.06,429.04 792.56,429.04 793.05,429.04 793.55,429.04 794.05,429.04 794.54,429.04 795.04,429.04 795.53,429.04 796.03,429.04 796.52,429.04 797.02,429.04 797.51,429.04 798.01,429.04 798.50,429.03 799.00,429.02 799.49,428.99 799.99,428.95 800.48,428.89 800.98,428.82 801.47,428.72 801.97,428.61 802.46,428.46 802.96,428.29 803.45,428.09 803.95,427.85 804.44,427.58 804.94,427.28 805.44,426.93 805.93,426.55 806.43,426.13 806.92,425.67 807.42,425.16 807.91,424.60 808.41,424.00 808.90,423.35 809.40,422.66 809.89,421.91 810.39,421.11 810.88,420.26 811.38,419.36 811.87,418.40 812.37,417.39 812.86,416.33 813.36,415.21 813.85,414.03 814.35,412.80 814.84,411.51 815.34,410.17 815.83,408.77 816.33,407.31 816.82,405.79 817.32,404.22 817.82,402.59 818.31,400.90 818.81,399.15 819.30,397.35 819.80,395.49 820.29,393.58 820.79,391.61 821.28,389.58 821.78,387.50 822.27,385.36 822.77,383.17 823.26,380.93 823.76,378.63 824.25,376.28 824.75,373.88 825.24,371.43 825.74,368.93 826.23,366.38 826.73,363.78 827.22,361.14 827.72,358.45 828.21,355.71 828.71,352.93 829.21,350.11 829.70,347.25 830.20,344.35 830.69,341.40 831.19,338.42 831.68,335.40 832.18,332.35 832.67,329.26 833.17,326.14 833.66,322.99 834.16,319.81 834.65,316.60 835.15,313.36 835.64,310.10 836.14,306.81 836.63,303.50 837.13,300.17 837.62,296.82 838.12,293.45 838.61,290.06 839.11,286.66 839.60,283.25 840.10,279.82 840.60,276.38 841.09,272.93 841.59,269.48 842.08,266.02 842.58,262.56 843.07,259.09 843.57,255.63 844.06,252.16 844.56,248.70 845.05,245.24 845.55,241.79 846.04,238.35 846.54,234.91 847.03,231.49 847.53,228.07 848.02,224.67 848.52,221.29 849.01,217.92 849.51,214.57 850.00,211.25 850.50,207.94 850.99,204.66 851.49,201.40 851.99,198.16 852.48,194.96 852.98,191.78 853.47,188.64 853.97,185.52 854.46,182.44 854.96,179.39 855.45,176.38 855.95,173.41 856.44,170.47 856.94,167.58 857.43,164.72 857.93,161.91 858.42,159.14 858.92,156.41 859.41,153.73 859.91,151.10 860.40,148.51 860.90,145.97 861.39,143.48 861.89,141.04 862.38,138.65 862.88,136.32 863.38,134.03 863.87,131.80 864.37,129.62 864.86,127.49 865.36,125.43 865.85,123.41 866.35,121.45 866.84,119.55 867.34,117.70 867.83,115.91 868.33,114.18 868.82,112.50 869.32,110.88 869.81,109.32 870.31,107.82 870.80,106.37 871.30,104.98 871.79,103.64 872.29,102.37 872.78,101.14 873.28,99.98 873.77,98.87 874.27,97.81 874.77,96.81 875.26,95.86 875.76,94.96 876.25,94.12 876.75,93.32 877.24,92.57 877.74,91.88 878.23,91.23 878.73,90.62 879.22,90.06 879.72,89.55 880.21,89.07 880.71,88.64 881.20,88.24 881.70,87.88 882.19,87.56 882.69,87.27 883.18,87.01 883.68,86.77 884.17,86.57 884.67,86.38 885.16,86.22 885.66,86.08 886.16,85.95 886.65,85.84 887.15,85.74 887.64,85.65 888.14,85.59 888.63,85.59 889.13,85.59 889.62,85.59 890.12,85.59 890.61,85.59 891.11,85.59 891.60,85.59 892.10,85.59 892.59,85.59 893.09,85.59 893.58,85.59 894.08,85.59 894.57,85.59 895.07,85.59 895.56,85.59 896.06,85.59 896.55,85.59 897.05,85.59 897.55,85.59 898.04,85.59 898.54,85.59 899.03,85.59 899.53,85.59 900.02,85.59 900.52,85.59 901.01,85.59 901.51,85.59 902.00,85.59 902.50,85.59 902.99,85.59 903.49,85.59 903.98,85.59 904.48,85.59 904.97,85.59 905.47,85.59 905.96,85.59 906.46,85.59 906.95,85.59 907.45,85.59 907.94,85.59 908.44,85.59 908.94,85.59 909.43,85.59 909.93,85.59 910.42,85.59 910.92,85.59 911.41,85.59 911.91,85.59 912.40,85.59 912.90,85.59 913.39,85.59 913.89,85.59 914.38,85.59 914.88,85.59 915.37,85.59 915.87,85.59 916.36,85.59 916.86,85.59 917.35,85.59 917.85,85.59 918.34,85.59 918.84,85.59 919.33,85.59 919.83,85.59 920.33,85.59 920.82,85.59 921.32,85.59 921.81,85.59 922.31,85.59 922.80,85.59 923.30,85.59 923.79,85.59 924.29,85.59 924.78,85.59 925.28,85.59 925.77,85.59 926.27,85.59 926.76,85.59 927.26,85.59 927.75,85.59 928.25,85.59 928.74,85.59 929.24,85.59 929.73,85.59 930.23,85.59 930.72,85.59 931.22,85.59 931.72,85.59 932.21,85.59 932.71,85.59 933.20,85.59 933.70,85.59 934.19,85.59 934.69,85.59 935.18,85.59 935.68,85.59 936.17,85.59 936.67,85.59 937.16,85.59 937.66,85.59 938.15,85.59 938.65,85.59 939.14,85.59 939.64,85.59 940.13,85.59 940.63,85.59 941.12,85.59 941.62,85.59 942.11,85.59 942.61,85.59 943.11,85.59 943.60,85.59 944.10,85.59 944.59,85.59 945.09,85.59 945.58,85.59 946.08,85.59 946.57,85.59 947.07,85.59 947.56,85.59 948.06,85.59 948.55,85.59 949.05,85.59 949.54,85.59 950.04,85.59 950.53,85.59 951.03,85.59 951.52,85.59 952.02,85.59 952.51,85.59 953.01,85.59 953.50,85.59 954.00,85.59"/>
<line x1="86" y1="76" x2="116" y2="76" stroke="#2ca02c" stroke-width="3"/>
<text x="124" y="80" font-family="Arial" font-size="13">joint3 (rad)</text>
<line x1="86" y1="98" x2="116" y2="98" stroke="#ff7f0e" stroke-width="3"/>
<text x="124" y="102" font-family="Arial" font-size="13">joint4 (rad)</text>
<line x1="86" y1="120" x2="116" y2="120" stroke="#9467bd" stroke-width="3"/>
<text x="124" y="124" font-family="Arial" font-size="13">joint6 turns</text>
<text x="490.0" y="512" text-anchor="middle" font-family="Arial" font-size="14">time (s)</text>
<text x="20" y="260.0" transform="rotate(-90 20 260.0)" text-anchor="middle" font-family="Arial" font-size="14">joint value</text>
</svg>