<svg xmlns="http://www.w3.org/2000/svg" width="720" height="720" viewBox="0 0 720 720">
<rect width="100%" height="100%" fill="#ffffff"/>
<text x="360.0" y="32" text-anchor="middle" font-family="Arial" font-size="22" font-weight="700">Peg Center XY Path</text>
<rect x="70" y="70" width="580" height="580" fill="#fafafa" stroke="#c8c8c8"/>
<circle cx="333.39" cy="553.48" r="223.39" fill="#1f77b420" stroke="#1f77b4" stroke-width="2"/>
<polyline fill="none" stroke="#d62728" stroke-width="2" points="467.75,115.39 467.75,115.39 467.75,115.39 467.75,115.39 467.75,115.39 467.75,115.39 467.75,115.39 467.75,115.39 467.75,115.39 467.75,115.39 467.75,115.39 467.75,115.39 467.75,115.39 467.75,115.39 467.75,115.39 467.75,115.39 467.75,115.39 467.75,115.39 467.75,115.39 467.75,115.39 467.75,115.39 467.75,115.39 467.75,115.39 467.75,115.39 467.75,115.39 467.75,115.39 467.75,115.39 467.75,115.39 467.75,115.39 467.75,115.39 467.75,115.39 467.75,115.39 467.75,115.39 467.75,115.39 467.75,115.39 467.75,115.39 467.75,115.39 467.75,115.39 467.75,115.39 467.75,115.39 467.75,115.39 467.75,115.39 467.75,115.39 467.75,115.39 467.75,115.39 467.75,115.39 467.75,115.39 467.75,115.39 467.75,115.39 467.75,115.39 467.75,115.39 467.75,115.39 467.75,115.39 467.75,115.39 467.75,115.39 467.75,115.39 467.75,115.39 467.75,115.39 467.75,115.39 467.75,115.39 467.75,115.39 467.75,115.39 467.75,115.39 467.75,115.39 467.75,115.39 467.75,115.39 467.75,115.39 467.75,115.39 467.75,115.39 467.75,115.39 467.75,115.39 467.75,115.39 467.75,115.39 467.75,115.39 467.75,115.39 467.75,115.39 467.75,115.39 467.75,115.39 467.75,115.39 467.75,115.39 467.75,115.39 467.75,115.39 467.75,115.39 467.75,115.39 467.75,115.39 467.75,115.39 467.75,115.39 467.75,115.39 467.75,115.39 467.75,115.39 467.75,115.39 467.75,115.39 467.75,115.39 467.75,115.39 467.75,115.39 467.75,115.39 467.75,115.39 467.75,115.39 467.75,115.39 467.75,115.39 467.75,115.39 467.75,115.39 467.75,115.39 467.75,115.39 467.75,115.39 467.75,115.39 467.75,115.39 467.75,115.39 467.75,115.39 467.75,115.39 467.75,115.39 467.75,115.39 467.75,115.39 467.75,115.39 467.75,115.39 467.75,115.39 467.75,115.39 467.75,115.39 467.75,115.39 467.75,115.39 467.75,115.39 467.75,115.39 467.75,115.39 467.75,115.39 467.75,115.39 467.75,115.39 467.75,115.39 467.75,115.39 467.75,115.39 467.75,115.39 467.75,115.39 467.75,115.39 467.75,115.39 467.75,115.39 467.75,115.39 467.75,115.39 467.75,115.39 467.75,115.39 467.75,115.39 467.75,115.39 467.75,115.39 467.75,115.39 467.75,115.39 467.75,115.39 467.75,115.39 467.75,115.39 467.75,115.39 467.75,115.39 467.75,115.39 467.75,115.39 467.75,115.39 467.75,115.39 467.75,115.39 467.75,115.39 467.75,115.39 467.75,115.39 467.75,115.39 467.75,115.39 467.75,115.39 467.75,115.39 467.75,115.39 467.75,115.39 467.75,115.39 467.75,115.39 467.75,115.39 467.75,115.39 467.75,115.39 467.75,115.39 467.75,115.39 467.75,115.39 467.75,115.39 467.75,115.39 467.75,115.39 467.75,115.39 467.75,115.39 467.75,115.39 467.75,115.39 467.75,115.39 467.75,115.39 467.75,115.39 467.75,115.39 467.75,115.39 467.75,115.39 467.75,115.39 467.75,115.39 467.75,115.39 467.75,115.39 467.75,115.39 467.75,115.39 467.75,115.39 467.75,115.39 467.75,115.39 467.75,115.39 467.75,115.39 467.75,115.39 467.75,115.39 467.75,115.39 467.75,115.39 467.75,115.39 467.75,115.39 467.75,115.39 467.75,115.39 467.75,115.39 467.75,115.39 467.75,115.39 467.75,115.39 467.75,115.39 467.75,115.39 467.75,115.39 467.75,115.39 467.75,115.39 467.75,115.39 467.75,115.39 467.75,115.39 467.75,115.39 467.75,115.39 467.75,115.39 467.75,115.39 467.75,115.39 467.75,115.39 467.75,115.39 467.75,115.39 467.75,115.39 467.75,115.39 467.75,115.39 467.75,115.39 467.75,115.39 467.75,115.39 467.75,115.39 467.75,115.39 467.75,115.39 467.75,115.39 467.75,115.39 467.75,115.39 467.75,115.39 467.75,115.39 467.75,115.39 467.75,115.39 467.75,115.39 467.75,115.39 467.75,115.39 467.75,115.39 467.75,115.39 467.75,115.39 467.75,115.39 467.75,115.39 467.75,115.39 467.75,115.39 467.75,115.39 467.75,115.39 467.75,115.39 467.75,115.39 467.75,115.39 467.75,115.39 467.75,115.39 467.75,115.39 467.75,115.39 467.75,115.39 467.75,115.39 467.75,115.39 467.75,115.39 467.75,115.39 467.75,115.39 467.75,115.39 467.75,115.39 467.75,115.39 467.75,115.39 467.75,115.39 467.75,115.39 467.75,115.39 467.75,115.39 467.75,115.39 467.75,115.39 467.75,115.39 467.75,115.39 467.75,115.39 467.75,115.39 467.75,115.39 467.75,115.39 467.75,115.39 467.75,115.39 467.75,115.39 467.75,115.39 467.75,115.39 467.75,115.39 467.75,115.39 467.75,115.39 467.75,115.39 467.75,115.39 467.75,115.39 467.75,115.39 467.75,115.39 467.75,115.39 467.75,115.39 467.75,115.39 467.75,115.39 467.75,115.39 467.75,115.39 467.75,115.39 467.75,115.39 467.75,115.39 467.75,115.39 467.75,115.39 467.75,115.39 467.75,115.39 467.75,115.39 467.75,115.39 467.75,115.39 467.75,115.39 467.75,115.39 467.75,115.39 467.75,115.39 467.75,115.39 467.75,115.39 467.75,115.39 467.75,115.39 467.75,115.39 467.75,115.39 467.75,115.39 467.75,115.39 467.75,115.39 467.75,115.39 467.75,115.39 467.75,115.39 467.75,115.39 467.75,115.39 467.75,115.39 467.75,115.39 467.75,115.39 467.75,115.39 467.75,115.39 467.75,115.39 467.75,115.39 467.75,115.39 467.75,115.39 467.75,115.39 467.75,115.39 467.75,115.39 467.75,115.39 467.75,115.39 467.75,115.39 467.75,115.39 467.75,115.39 467.75,115.39 467.75,115.39 467.75,115.39 467.75,115.39 467.75,115.39 467.75,115.39 467.75,115.39 467.75,115.39 467.75,115.39 467.75,115.39 467.75,115.39 467.75,115.39 467.75,115.39 467.75,115.39 467.75,115.39 467.75,115.39 467.75,115.39 467.75,115.39 467.75,115.39 467.75,115.39 467.75,115.39 467.75,115.39 467.75,115.39 467.75,115.39 467.75,115.39 467.75,115.39 468.01,115.18 467.98,115.19 468.03,115.14 468.14,115.05 468.19,115.00 468.60,114.68 468.56,114.71 468.22,114.97 467.91,115.21 467.80,115.29 467.81,115.29 467.98,115.17 467.89,115.24 468.21,114.99 467.67,115.41 467.36,115.65 467.76,115.36 467.38,115.65 467.46,115.59 467.47,115.60 467.74,115.39 467.44,115.63 467.38,115.68 467.61,115.52 467.59,115.55 467.50,115.62 467.44,115.67 467.68,115.49 467.60,115.56 467.63,115.55 467.31,115.80 467.34,115.79 467.32,115.81 467.56,115.64 467.27,115.86 467.56,115.65 467.59,115.64 467.35,115.83 467.28,115.89 467.18,115.97 467.28,115.90 467.30,115.89 467.35,115.86 467.21,115.97 467.52,115.74 467.30,115.91 467.60,115.69 467.53,115.75 467.31,115.92 467.16,116.04 467.21,116.00 467.55,115.75 467.31,115.93 467.28,115.96 467.33,115.93 467.44,115.84 467.40,115.88 467.51,115.80 467.30,115.96 467.56,115.77 467.36,115.93 467.19,116.06 467.28,116.00 467.42,115.89 467.37,115.93 467.19,116.07 467.28,116.00 467.30,115.99 467.33,115.97 467.46,115.87 467.42,115.90 467.27,116.02 467.25,116.04 467.30,116.00 467.17,116.10 467.48,115.87 467.26,116.03 467.37,115.95 467.42,115.92 467.17,116.11 467.38,115.95 467.18,116.10 467.26,116.04 467.41,115.93 467.37,115.96 467.21,116.09 467.51,115.85 467.31,116.01 467.28,116.03 467.31,116.01 467.15,116.13 467.25,116.05 467.41,115.94 467.38,115.96 467.22,116.08 467.54,115.83 467.29,116.03 467.25,116.06 467.45,115.92 466.39,116.75 467.80,115.64 466.87,116.34 467.99,115.55 466.86,116.39 467.34,116.00 466.59,116.57 466.98,116.25 466.38,116.72 466.72,116.43 466.15,116.87 466.48,116.58 465.95,117.00 466.29,116.72 465.77,117.12 466.11,116.83 465.62,117.21 465.91,116.97 465.39,117.34 465.78,117.07 465.25,117.45 465.62,117.17 465.13,117.52 465.53,117.25 465.03,117.61 465.27,117.41 464.88,117.73 465.22,117.49 464.73,117.82 465.11,117.54 464.58,117.90 465.01,117.61 464.79,117.77 465.30,117.39 464.83,117.73 464.97,117.63 464.67,117.86 465.03,117.58 464.60,117.90 465.14,117.51 464.67,117.85 464.83,117.74 464.55,117.91 464.75,117.82 464.50,117.99 464.64,117.88 464.33,118.10 464.54,117.97 464.30,118.12 464.49,118.02 464.27,118.16 464.42,118.05 464.23,118.19 464.40,118.07 464.25,118.20 464.40,118.08 464.24,118.19 464.32,118.15 464.14,118.27 464.30,118.15 464.13,118.28 464.34,118.16 464.14,118.29 464.29,118.17 464.12,118.29 464.33,118.17 464.13,118.31 464.29,118.18 464.11,118.31 464.32,118.19 464.12,118.32 464.28,118.20 464.11,118.32 464.31,118.21 464.11,118.34 464.27,118.21 464.10,118.34 464.30,118.22 464.11,118.35 464.26,118.23 464.09,118.35 464.30,118.23 464.34,118.17 464.56,117.99 464.47,118.04 464.32,118.15 464.04,118.35 463.92,118.44 463.82,118.51 463.74,118.56 463.69,118.61 463.67,118.64 463.67,118.65 463.68,118.66 463.72,118.65 463.77,118.63 463.83,118.60 463.90,118.57 463.99,118.53 464.07,118.48 464.16,118.43 464.26,118.38 464.36,118.32 464.47,118.25 464.61,118.16 464.80,118.03 464.96,117.92 465.14,117.81 465.31,117.69 465.48,117.58 465.64,117.47 465.79,117.36 465.93,117.26 466.06,117.16 466.18,117.07 466.29,116.98 466.39,116.90 466.48,116.82 466.56,116.75 466.62,116.68 466.68,116.62 466.73,116.57 466.78,116.51 466.81,116.46 466.85,116.42 466.87,116.37 466.89,116.33 466.91,116.29 466.92,116.26 466.92,116.23 466.93,116.19 466.93,116.17 466.93,116.14 466.92,116.11 466.91,116.09 466.90,116.07 466.89,116.05 466.88,116.03 466.87,116.01 466.85,115.99 466.83,115.98 466.81,115.96 466.79,115.95 466.77,115.94 466.75,115.93 466.72,115.92 466.70,115.91 466.67,115.90 466.64,115.89 466.62,115.88 466.59,115.88 466.56,115.87 466.53,115.87 466.50,115.87 466.47,115.86 466.44,115.86 466.41,115.86 466.38,115.86 466.35,115.86 466.31,115.86 466.28,115.86 466.25,115.86 466.22,115.86 466.18,115.86 466.15,115.86 466.12,115.86 466.08,115.86 466.05,115.86 466.02,115.87 465.98,115.87 465.95,115.87 465.92,115.87 465.88,115.88 465.85,115.88 465.82,115.88 465.78,115.89 465.75,115.89 465.72,115.89 465.68,115.90 465.67,115.88 465.58,115.94 465.69,115.82 465.30,116.12 466.27,115.31 465.68,115.82 467.07,114.58 466.48,115.25 467.61,114.00 467.41,114.68 467.92,113.44 468.50,114.21 467.63,112.90 469.35,113.78 468.07,112.49 469.73,113.38 468.37,112.12 469.98,113.03 468.54,111.80 470.11,112.72 468.60,111.52 470.12,112.44 468.56,111.27 470.05,112.21 468.44,111.06 469.91,112.00 468.26,110.88 469.71,111.83 468.03,110.73 469.46,111.68 467.76,110.59 469.19,111.55 467.47,110.48 468.89,111.44 467.16,110.39 468.58,111.35 466.84,110.32 468.27,111.28 466.52,110.25 467.96,111.21 466.21,110.20 467.65,111.16 465.91,110.16 467.36,111.12 465.62,110.13 467.09,111.08 465.35,110.10 466.83,111.06 465.10,110.08 466.59,111.03 464.87,110.06 466.37,111.01 464.66,110.05 466.17,111.00 464.47,110.03 465.99,110.98 464.30,110.02 465.84,110.97 464.16,110.01 465.70,110.96 463.14,110.68 465.18,111.27 463.15,110.62 464.97,111.39 463.36,110.42 464.98,111.35 463.40,110.35 465.07,111.24 463.47,110.27 465.08,111.21 464.75,115.94 464.41,116.18 465.14,115.63 464.46,116.12 464.99,115.80 464.35,116.12 466.00,115.17 464.48,115.72 467.04,114.87 464.18,115.19 467.58,114.53 463.89,114.97 467.26,114.37 463.55,114.85 466.80,114.34 462.95,114.93 466.09,114.49 462.12,115.16 465.11,114.82 460.98,115.58 463.81,115.33 459.52,116.19 462.17,116.04 457.69,116.99 460.15,116.94 455.49,118.00 457.75,118.05 452.88,119.22 454.94,119.38 449.87,120.66 451.72,120.93 446.44,122.32 448.08,122.71 442.60,124.22 444.03,124.72 438.34,126.35 439.56,126.98 433.68,128.73 434.69,129.48 428.61,131.35 429.43,132.23 423.17,134.23 423.80,135.23 417.37,137.37 417.82,138.49 411.22,140.76 411.51,142.01 404.76,144.42 404.90,145.80 398.01,148.34 398.01,149.85 391.00,152.52 390.88,154.17 383.77,156.98 383.55,158.75 376.35,161.69 376.05,163.60 368.78,166.68 368.41,168.72 361.11,171.93 360.70,174.10 353.37,177.45 352.93,179.75 345.61,183.23 345.17,185.66 337.87,189.27 337.46,191.82 330.20,195.56 329.83,198.23 322.65,202.10 322.35,204.90 315.26,208.89 315.05,211.80 308.08,215.92 307.99,218.94 301.17,223.18 301.22,226.31 294.56,230.66 294.77,233.89 288.30,238.35 288.70,241.69 282.44,246.25 283.04,249.68 277.02,254.34 277.85,257.86 272.09,262.61 273.16,266.21 267.67,271.05 269.01,274.73 263.81,279.65 265.44,283.40 260.55,288.39 262.48,292.20 257.91,297.26 260.15,301.12 255.92,306.24 258.48,310.15 254.60,315.31 257.50,319.26 253.98,324.47 257.22,328.45 254.07,333.69 257.66,337.70 254.89,342.96 258.83,346.98 256.43,352.26 260.73,356.27 258.71,361.55 263.36,365.57 261.71,370.85 266.72,374.85 265.44,380.13 270.79,384.10 269.88,389.36 275.57,393.30 275.03,398.52 281.04,402.43 280.85,407.61 287.17,411.47 287.31,416.61 293.94,420.40 294.40,425.48 301.32,429.21 302.08,434.23 309.28,437.88 310.33,442.83 317.77,446.40 319.09,451.26 326.77,454.74 328.33,459.51 336.22,462.89 337.99,467.57 346.06,470.85 348.03,475.42 356.25,478.58 358.37,483.05 366.74,486.06 368.98,490.44 377.44,493.33 379.79,497.59 388.33,500.34 390.75,504.48 399.33,507.10 401.81,511.10 410.40,513.58 412.89,517.45 421.47,519.78 423.95,523.51 432.49,525.70 434.92,529.29 443.39,531.33 445.76,534.77 454.13,536.65 456.40,539.95 464.64,541.68 466.78,544.82 474.87,546.40 476.87,549.39 484.77,550.81 486.59,553.65 494.29,554.92 495.91,557.61 503.39,558.71 504.78,561.25 512.01,562.21 513.16,564.59 520.13,565.39 521.02,567.63 527.70,568.28 528.31,570.37 534.69,570.87 535.01,572.82 541.08,573.18 541.09,574.99 546.84,575.20 546.53,576.87 551.95,576.95 551.31,578.49 556.39,578.44 555.42,579.85 560.16,579.68 558.85,580.97 563.25,580.67 561.60,581.85 565.65,581.44 563.67,582.51 567.39,582.00 565.06,582.97 568.45,582.37 565.80,583.25 568.86,582.56 565.88,583.36 568.63,582.60 565.34,583.33 567.78,582.50 564.20,583.17 566.33,582.32 562.47,582.91 564.34,582.02 560.21,582.58 561.92,581.69 557.80,582.29 559.61,581.45 555.61,582.09 557.56,581.28 553.69,581.96 555.78,581.16 552.04,581.86 554.26,581.07 550.64,581.78 552.97,580.99 549.45,581.71 551.87,580.91 548.42,581.64 550.92,580.82 547.50,581.55 550.05,580.71 546.65,581.43 549.23,580.57 545.81,581.29 548.39,580.40 544.94,581.11 547.49,580.19 543.98,580.89 546.50,579.94 542.91,580.64 545.38,579.65 541.70,580.34 544.10,579.32 540.32,580.01 542.63,578.95 538.75,579.64 540.99,578.56 537.00,579.24 539.14,578.14 535.04,578.82 537.09,577.70 532.88,578.39 534.84,577.25 530.52,577.95 532.38,576.79 527.92,577.50 529.57,576.34 524.91,577.05 526.35,575.89 521.48,576.61 522.75,575.45 517.73,576.18 518.82,575.02 513.71,575.77 514.62,574.62 509.73,575.39 510.19,574.24 505.78,575.03 505.64,573.88 501.85,574.70 501.07,573.55 497.89,574.38 496.58,573.24 493.91,574.09 492.23,572.95 489.96,573.83 488.28,572.88 486.38,573.84 485.35,572.79 483.50,573.86 482.73,572.84 481.11,573.96 480.30,572.88 479.10,573.85 478.06,572.79 477.03,574.05 476.44,573.01 475.39,574.11 474.98,573.08 471.58,578.90 471.58,578.90 471.58,578.91 471.58,578.90 471.58,578.91 471.58,578.90 471.58,578.91 471.58,578.90 471.58,578.90 471.58,578.90 471.58,578.91 471.58,578.90 471.58,578.91 471.58,578.90 471.58,578.90 471.58,578.90 471.58,578.91 471.58,578.90 471.58,578.91 471.58,578.90 471.58,578.91 471.58,578.90 471.58,578.91 471.58,578.91 471.58,578.91 471.58,578.91 471.58,578.91 471.58,578.90 471.58,578.91 477.91,573.86 477.91,573.86 477.91,573.86 477.91,573.86 477.91,573.86 477.91,573.86 477.91,573.86 477.91,573.86 477.91,573.86 477.91,573.86 477.91,573.86 477.91,573.86 477.91,573.86 477.91,573.87 477.91,573.86 477.91,573.86 477.91,573.86 477.91,573.86 477.91,573.86 477.91,573.86 477.91,573.86 477.91,573.87 477.91,573.86 477.91,573.86 477.91,573.86 477.91,573.86 477.91,573.86 477.91,573.87 477.91,573.86 477.91,573.86 477.91,573.86 477.91,573.86 477.91,573.86 477.91,573.86 477.91,573.86 477.91,573.87 477.91,573.86 477.91,573.86 477.91,573.86 477.91,573.86 477.91,573.86 477.91,573.87 477.91,573.86 477.91,573.87 455.66,571.24 455.66,571.24 455.66,571.24 455.66,571.24 455.66,571.24 455.66,571.24 455.66,571.24 455.66,571.24 455.66,571.24 455.66,571.24 455.66,571.24 455.66,571.24 455.66,571.24 455.66,571.24 455.66,571.24 455.66,571.24 455.66,571.24 455.66,571.24 455.66,571.24 455.66,571.24 455.66,571.24 455.66,571.24 440.16,574.85 440.16,574.85 440.16,574.85 440.16,574.85 440.16,574.85 440.16,574.85 440.16,574.85 440.16,574.85 440.16,574.85 440.16,574.85 440.16,574.85 440.16,574.85 440.16,574.85 440.16,574.85 440.16,574.85 440.16,574.85 440.16,574.85 440.16,574.85 440.16,574.85 440.16,574.85 440.16,574.85 440.16,574.85 440.48,581.53 440.48,581.53 440.48,581.53 440.48,581.53 440.48,581.53 440.48,581.53 440.48,581.53 440.48,581.53 440.48,581.53 440.48,581.53 440.48,581.53 440.48,581.53 440.48,581.53 440.48,581.53 440.48,581.53 453.12,585.99 453.12,585.99 453.12,585.99 453.12,585.99 453.12,585.99 453.12,585.99 453.12,585.99 453.12,585.99 453.12,585.99 453.12,585.99 453.12,585.99 453.12,585.99 453.12,585.99 453.12,585.99 474.73,588.41 474.73,588.41 474.73,588.41 474.73,588.41 474.73,588.41 474.73,588.41 474.73,588.41 474.73,588.41 474.73,588.41 474.73,588.41 474.73,588.41 474.73,588.41 474.73,588.41 474.73,588.41 474.73,588.41 500.67,587.83 500.67,587.83 500.67,587.83 500.67,587.83 500.67,587.83 500.67,587.83 500.67,587.83 500.67,587.83 500.67,587.83 500.67,587.83 500.67,587.83 500.67,587.83 500.67,587.83 500.67,587.83 500.67,587.83 524.48,583.86 524.48,583.86 524.48,583.86 524.48,583.86 524.48,583.86 524.48,583.86 524.48,583.86 524.48,583.86 524.48,583.86 524.48,583.86 524.48,583.86 524.48,583.86 524.48,583.86 524.48,583.86 539.22,576.98 539.22,576.98 539.22,576.98 539.22,576.98 539.22,576.98 539.22,576.98 539.22,576.98 539.22,576.98 539.22,576.98 539.22,576.98 539.22,576.98 539.22,576.98 539.22,576.98 539.22,576.98 539.22,576.98 539.36,568.55 539.36,568.55 539.36,568.55 539.36,568.55 539.36,568.55 539.36,568.55 539.36,568.55 539.36,568.55 539.36,568.55 539.36,568.55 539.36,568.55 539.36,568.55 539.36,568.55 539.36,568.55 539.36,568.55 522.55,560.54 522.55,560.54 522.55,560.54 522.55,560.54 522.55,560.54 522.55,560.54 522.55,560.54 507.03,557.00 507.03,557.00 507.03,557.00 507.03,557.00 507.03,557.00 507.03,557.00 507.03,557.00 507.03,557.00 507.03,557.00 507.03,557.00 507.03,557.00 507.03,557.00 507.03,557.00 507.03,557.00 507.03,557.00 470.86,553.87 470.86,553.87 470.86,553.87 470.86,553.88 470.86,553.88 470.86,553.88 470.86,553.87 448.14,553.89 448.14,553.89 448.14,553.89 448.14,553.89 448.14,553.89 448.14,553.89 448.14,553.89 427.14,555.38 427.14,555.38 427.14,555.38 427.14,555.38 427.14,555.38 427.14,555.38 427.14,555.38 427.14,555.38 407.83,558.20 407.83,558.20 407.83,558.20 407.83,558.20 407.83,558.20 407.83,558.20 407.83,558.20 391.34,562.23 391.34,562.23 391.34,562.23 391.34,562.23 391.34,562.23 391.34,562.23 391.34,562.23 378.85,567.27 378.85,567.27 378.85,567.27 378.85,567.27 378.85,567.27 378.85,567.27 378.85,567.27 378.85,567.27 371.32,573.09 371.32,573.09 371.32,573.09 371.32,573.09 371.32,573.09 371.32,573.09 371.32,573.09 369.48,579.35 369.48,579.35 369.48,579.35 369.48,579.35 369.48,579.35 369.48,579.35 369.48,579.35 373.73,585.69 373.73,585.69 373.73,585.69 373.73,585.69 373.73,585.69 373.73,585.69 373.73,585.69 373.73,585.70 384.10,591.74 384.10,591.74 384.10,591.74 384.10,591.74 384.10,591.74 384.10,591.74 384.10,591.74 400.26,597.11 400.26,597.11 400.26,597.11 400.26,597.11 400.26,597.11 400.26,597.11 400.26,597.11 421.50,601.44 421.50,601.44 421.50,601.44 421.50,601.44 421.50,601.44 421.50,601.44 421.50,601.44 421.50,601.44 446.79,604.41 446.79,604.41 446.79,604.41 446.79,604.41 446.79,604.41 446.79,604.41 446.79,604.41 474.77,605.80 474.77,605.80 474.77,605.80 474.77,605.80 474.77,605.80 474.77,605.80 474.77,605.80 503.89,605.44 503.89,605.44 503.89,605.44 503.89,605.44 503.89,605.44 503.89,605.44 503.89,605.44 503.89,605.44 532.43,603.28 532.43,603.28 532.43,603.28 532.43,603.28 532.43,603.28 532.43,603.28 532.43,603.28 558.66,599.38 558.66,599.38 558.66,599.38 558.66,599.38 558.66,599.38 558.66,599.38 558.66,599.39 580.89,593.90 580.89,593.90 580.89,593.90 580.89,593.90 580.89,593.90 580.89,593.90 580.89,593.90 580.89,593.90 597.62,587.10 597.62,587.10 597.62,587.10 597.62,587.10 597.62,587.10 597.62,587.10 597.62,587.10 607.61,579.34 607.61,579.34 607.61,579.34 607.61,579.34 607.61,579.34 607.61,579.34 607.61,579.34 610.00,571.04 610.00,571.04 610.00,571.04 610.00,571.04 610.00,571.04 610.00,571.04 610.00,571.04 610.00,571.04 604.34,562.67 604.34,562.67 604.34,562.67 604.34,562.67 604.34,562.67 604.34,562.67 604.34,562.67 590.65,554.74 590.65,554.74 590.65,554.74 590.65,554.74 590.65,554.74 590.65,554.74 590.65,554.74 569.47,547.73 569.47,547.73 569.47,547.73 569.47,547.73 569.47,547.73 569.47,547.73 569.47,547.73 569.47,547.73 541.79,542.10 541.79,542.10 541.79,542.10 541.79,542.10 541.79,542.10 541.79,542.10 541.79,542.10 509.02,538.23 509.02,538.23 509.02,538.23 509.02,538.23 509.02,538.23 509.02,538.23 509.02,538.23 472.99,536.42 472.99,536.42 472.99,536.42 472.99,536.42 472.99,536.42 472.99,536.42 472.99,536.42 472.99,536.42 435.72,536.85 435.72,536.85 435.72,536.85 435.72,536.85 435.72,536.85 435.72,536.85 435.72,536.85 399.40,539.56 399.40,539.56 399.40,539.56 399.40,539.56 399.40,539.56 399.40,539.56 399.40,539.56 366.20,544.49 366.20,544.49 366.20,544.49 366.20,544.49 366.20,544.49 366.20,544.49 366.20,544.49 366.20,544.49 338.19,551.39 338.19,551.39 338.19,551.39 338.19,551.39 338.19,551.39 338.19,551.39 338.19,551.39 338.19,551.39 338.19,551.39 338.19,551.39 338.19,551.39 338.20,551.39 338.19,551.39 338.20,551.39 338.19,551.38 338.22,551.41 338.18,551.36 338.27,551.44 338.10,551.29 338.44,551.57 337.83,551.04 339.04,551.46 337.47,550.92 339.55,551.42 337.13,550.79 340.13,551.37 336.75,550.64 340.59,551.32 336.94,550.50 340.63,551.25 337.43,550.31 340.29,551.43 337.42,550.50 340.89,551.03 337.76,550.48 340.76,551.09 339.27,549.99 340.19,551.31 338.93,550.37 340.17,551.28 339.56,550.38 339.99,551.32 340.07,550.49 339.86,551.32 340.66,550.60 339.62,551.35 341.04,550.80 339.25,551.40 341.20,551.05 338.77,551.44 341.09,551.35 338.23,551.46 340.70,551.65 337.87,551.47 340.05,551.74 337.55,551.57 339.38,551.78 337.71,551.61 339.30,551.80 337.02,551.59 338.71,551.77 336.59,551.55 338.49,551.75 336.24,551.47 338.51,551.73 336.46,551.22 337.69,551.75 337.09,550.96 336.82,551.68 337.92,550.81 336.03,551.55 338.90,550.75 335.62,551.37 339.63,550.87 336.48,551.25 338.71,550.97 338.38,551.37 337.51,550.77 339.31,551.60 338.68,550.69 338.74,551.56 339.70,550.90 338.07,551.53 340.19,551.28 337.50,551.47 339.78,551.59 337.17,551.48 339.10,551.64 336.88,551.46 338.66,551.67 336.65,551.39 338.25,551.65 336.54,551.27 338.19,551.67 336.91,550.97 337.22,551.61 337.87,550.70 336.16,551.38 338.89,550.51 335.97,551.02 338.94,550.55 337.73,551.15 338.20,550.70 339.37,551.30 338.59,550.44 339.42,551.34 339.98,550.64 339.60,551.25 341.04,551.02 338.63,551.36 341.14,551.37 338.77,551.44 340.75,551.58 338.55,551.50 340.17,551.73 338.11,551.50 339.60,551.84 337.85,551.45 339.04,551.92 338.24,551.50 338.84,552.12 338.46,551.29 337.39,552.02 339.01,551.15 336.44,551.82 338.77,551.18 337.17,551.64 338.01,551.19 338.06,551.57 337.74,551.09 338.65,551.67 337.56,550.83 338.57,551.70 338.62,550.87 338.14,551.65 339.29,551.08 337.52,551.64 339.61,551.32 337.23,551.62 339.40,551.46 336.99,551.61 339.02,551.56 336.75,551.56 338.66,551.62 336.52,551.51 338.39,551.67 336.44,551.44 338.13,551.69 336.34,551.35 337.88,551.69 336.34,551.26 337.68,551.69 336.42,551.17 337.53,551.69 336.58,551.09 337.40,551.69 336.72,550.99 337.20,551.65 336.99,550.92 337.09,551.65 337.57,550.98 336.99,551.66 338.18,551.05 336.96,551.74 338.59,551.05 336.88,551.73 338.91,551.07 336.94,551.70 338.78,551.13 337.10,551.53 338.61,551.20 337.39,551.47 338.38,551.16 337.63,551.37 338.21,551.08 337.82,551.32 338.17,551.17 337.96,551.29 338.14,551.17 338.04,551.26 338.13,551.19 338.09,551.25 338.14,551.26 338.12,551.34 338.14,551.29 338.13,551.35 338.14,551.34 338.14,551.36 338.14,551.35 338.14,551.36 335.81,551.11 335.81,551.11 335.81,551.11 335.81,551.11 335.81,551.11 335.81,551.11 335.80,551.11 335.80,551.11 335.80,551.11 335.80,551.11 335.80,551.11 335.80,551.11 335.80,551.11 335.80,551.11 335.80,551.11 335.80,551.11 335.80,551.11 335.80,551.11 335.79,551.11 335.79,551.11 335.79,551.11 335.79,551.11 335.79,551.11 335.79,551.11 335.79,551.11 335.79,551.11 335.79,551.11 335.79,551.11 335.79,551.11 335.79,551.11 335.79,551.11 335.79,551.11 335.79,551.11 335.79,551.11 335.79,551.11 335.79,551.11 335.79,551.11 335.79,551.11 335.79,551.11 335.79,551.11 335.79,551.11 335.79,551.11 335.79,551.11 335.79,551.11 335.79,551.11 335.79,551.11 335.79,551.11 335.79,551.11 335.79,551.11 335.79,551.11 335.79,551.11 335.79,551.11 335.79,551.11 335.79,551.11 335.79,551.11 335.79,551.11 335.79,551.11 335.79,551.11 335.79,551.11 335.79,551.11 335.79,551.11 335.79,551.11 335.79,551.11 335.79,551.11 335.79,551.11 335.79,551.11 335.79,551.11 335.79,551.11 335.79,551.11 335.79,551.11 335.79,551.11 335.79,551.11 335.79,551.11 335.79,551.11 335.79,551.11 335.79,551.11 335.79,551.10 335.79,551.10 335.79,551.10 335.79,551.10 335.79,551.10 335.79,551.10 335.79,551.10 335.79,551.10 335.79,551.10 335.79,551.10 335.79,551.10 335.79,551.10 335.79,551.10 335.79,551.10 335.79,551.10 335.79,551.10 335.79,551.10 335.79,551.10 335.79,551.10 335.79,551.10 335.79,551.10 335.79,551.10 335.79,551.10 335.79,551.10 335.79,551.10 335.79,551.10 335.79,551.10 335.79,551.10 335.79,551.10 335.79,551.10 335.79,551.10 335.79,551.10 335.79,551.10 335.79,551.10 335.79,551.10 335.79,551.10 335.79,551.10 335.79,551.10 335.79,551.10 335.79,551.10 335.79,551.10 335.79,551.10 335.79,551.10 335.79,551.10 335.79,551.10 335.79,551.10 335.79,551.10 335.79,551.10 335.79,551.10 335.79,551.10 335.79,551.10 335.79,551.10 335.79,551.10 335.79,551.10 335.79,551.10 335.79,551.11 335.79,551.11 335.79,551.11"/>
<circle cx="467.75" cy="115.39" r="4" fill="#2ca02c"/>
<circle cx="335.79" cy="551.11" r="4" fill="#111111"/>
<text x="82" y="94" font-family="Arial" font-size="13">blue: hole projection, red: peg center path</text>
<text x="360.0" y="704" text-anchor="middle" font-family="Arial" font-size="14">x (m)</text>
<text x="20" y="360.0" transform="rotate(-90 20 360.0)" text-anchor="middle" font-family="Arial" font-size="14">y (m)</text>
</svg>