<svg xmlns="http://www.w3.org/2000/svg" width="980" height="520" viewBox="0 0 980 520">
<rect width="100%" height="100%" fill="#ffffff"/>
<text x="490.0" y="30" text-anchor="middle" font-family="Arial" font-size="22" font-weight="700">Impedance Tracking Error</text>
<rect x="74" y="58" width="880" height="400" fill="#fafafa" stroke="#c8c8c8"/>
<line x1="74" y1="58.00" x2="954" y2="58.00" stroke="#e5e5e5"/>
<text x="64" y="62.00" text-anchor="end" font-family="Arial" font-size="12">0.311</text>
<line x1="74" y1="138.00" x2="954" y2="138.00" stroke="#e5e5e5"/>
<text x="64" y="142.00" text-anchor="end" font-family="Arial" font-size="12">0.244</text>
<line x1="74" y1="218.00" x2="954" y2="218.00" stroke="#e5e5e5"/>
<text x="64" y="222.00" text-anchor="end" font-family="Arial" font-size="12">0.177</text>
<line x1="74" y1="298.00" x2="954" y2="298.00" stroke="#e5e5e5"/>
<text x="64" y="302.00" text-anchor="end" font-family="Arial" font-size="12">0.111</text>
<line x1="74" y1="378.00" x2="954" y2="378.00" stroke="#e5e5e5"/>
<text x="64" y="382.00" text-anchor="end" font-family="Arial" font-size="12">0.0438</text>
<line x1="74" y1="458.00" x2="954" y2="458.00" stroke="#e5e5e5"/>
<text x="64" y="462.00" text-anchor="end" font-family="Arial" font-size="12">-0.023</text>
<line x1="74.00" y1="58" x2="74.00" y2="458" stroke="#efefef"/>
<text x="74.00" y="492" text-anchor="middle" font-family="Arial" font-size="12">0.00</text>
<line x1="250.00" y1="58" x2="250.00" y2="458" stroke="#efefef"/>
<text x="250.00" y="492" text-anchor="middle" font-family="Arial" font-size="12">2.13</text>
<line x1="426.00" y1="58" x2="426.00" y2="458" stroke="#efefef"/>
<text x="426.00" y="492" text-anchor="middle" font-family="Arial" font-size="12">4.27</text>
<line x1="602.00" y1="58" x2="602.00" y2="458" stroke="#efefef"/>
<text x="602.00" y="492" text-anchor="middle" font-family="Arial" font-size="12">6.40</text>
<line x1="778.00" y1="58" x2="778.00" y2="458" stroke="#efefef"/>
<text x="778.00" y="492" text-anchor="middle" font-family="Arial" font-size="12">8.53</text>
<line x1="954.00" y1="58" x2="954.00" y2="458" stroke="#efefef"/>
<text x="954.00" y="492" text-anchor="middle" font-family="Arial" font-size="12">10.66</text>
<polyline fill="none" stroke="#1f77b4" stroke-width="2.4" points="74.00,430.41 74.50,430.41 74.99,430.41 75.49,430.41 75.98,430.41 76.48,430.41 76.97,430.41 77.47,430.41 77.96,430.41 78.46,430.41 78.95,430.41 79.45,430.41 79.94,430.41 80.44,430.41 80.93,430.41 81.43,430.41 81.92,430.41 82.42,430.41 82.91,430.41 83.41,430.41 83.90,430.41 84.40,430.41 84.89,430.41 85.39,430.41 85.89,430.41 86.38,430.41 86.88,430.41 87.37,430.41 87.87,430.41 88.36,430.41 88.86,430.41 89.35,430.41 89.85,430.41 90.34,430.41 90.84,430.41 91.33,430.41 91.83,430.41 92.32,430.41 92.82,430.41 93.31,430.41 93.81,430.41 94.30,430.41 94.80,430.41 95.29,430.41 95.79,430.41 96.28,430.41 96.78,430.41 97.28,430.41 97.77,430.41 98.27,430.41 98.76,430.41 99.26,430.41 99.75,430.41 100.25,430.41 100.74,430.41 101.24,430.41 101.73,430.41 102.23,430.41 102.72,430.41 103.22,430.41 103.71,430.41 104.21,430.41 104.70,430.41 105.20,430.41 105.69,430.41 106.19,430.41 106.68,430.41 107.18,430.41 107.67,430.41 108.17,430.41 108.67,430.41 109.16,430.41 109.66,430.41 110.15,430.41 110.65,430.41 111.14,430.41 111.64,430.41 112.13,430.41 112.63,430.41 113.12,430.41 113.62,430.41 114.11,430.41 114.61,430.41 115.10,430.41 115.60,430.41 116.09,430.41 116.59,430.41 117.08,430.41 117.58,430.41 118.07,430.41 118.57,430.41 119.06,430.41 119.56,430.41 120.06,430.40 120.55,430.36 121.05,430.31 121.54,430.22 122.04,430.10 122.53,429.95 123.03,429.77 123.52,429.55 124.02,429.30 124.51,429.01 125.01,428.69 125.50,428.34 126.00,427.95 126.49,427.53 126.99,427.07 127.48,426.59 127.98,426.07 128.47,425.53 128.97,424.96 129.46,424.37 129.96,423.75 130.45,423.11 130.95,422.44 131.45,421.76 131.94,421.05 132.44,420.32 132.93,419.57 133.43,418.90 133.92,418.05 134.42,417.41 134.91,416.53 135.41,415.91 135.90,415.02 136.40,414.42 136.89,413.54 137.39,412.95 137.88,412.10 138.38,411.50 138.87,410.63 139.37,410.10 139.86,409.31 140.36,408.74 140.85,407.95 141.35,407.44 141.84,406.61 142.34,406.21 142.84,405.36 143.33,405.06 143.83,404.22 144.32,404.02 144.82,403.21 145.31,403.10 145.81,402.34 146.30,402.36 146.80,401.67 147.29,401.72 147.79,401.11 148.28,401.26 148.78,400.70 149.27,400.93 149.77,400.44 150.26,400.77 150.76,400.35 151.25,400.76 151.75,400.41 152.24,400.91 152.74,400.62 153.23,401.21 153.73,400.98 154.23,401.65 154.72,401.48 155.22,402.24 155.71,402.12 156.21,402.95 156.70,402.87 157.20,403.78 157.69,403.72 158.19,404.71 158.68,404.68 159.18,405.74 159.67,405.70 160.17,406.84 160.66,406.79 161.16,408.00 161.65,407.92 162.15,409.19 162.64,409.06 163.14,410.40 163.63,410.21 164.13,411.61 164.62,411.33 165.12,412.78 165.62,412.39 166.11,413.90 166.61,413.37 167.10,414.93 167.60,414.24 168.09,415.84 168.59,414.97 169.08,416.60 169.58,415.55 170.07,417.18 170.57,415.94 171.06,417.57 171.56,416.15 172.05,417.75 172.55,416.17 173.04,417.73 173.54,416.01 174.03,417.52 174.53,415.71 175.02,417.16 175.52,415.28 176.01,416.67 176.51,414.75 177.01,416.09 177.50,414.16 178.00,415.45 178.49,413.52 178.99,414.49 179.48,413.05 179.98,414.37 180.47,412.41 180.97,413.57 181.46,411.75 181.96,412.95 182.45,411.12 182.95,412.30 183.44,410.52 183.94,411.72 184.43,409.97 184.93,411.18 185.42,409.47 185.92,410.70 186.41,409.03 186.91,410.29 187.40,408.66 187.90,409.94 188.40,408.35 188.89,409.66 189.39,408.10 189.88,409.46 190.38,407.92 190.87,409.32 191.37,407.81 191.86,409.26 192.36,407.78 192.85,409.27 193.35,407.81 193.84,409.35 194.34,407.90 194.83,409.50 195.33,408.07 195.82,409.72 196.32,408.30 196.81,410.02 197.31,408.60 197.80,410.38 198.30,408.96 198.79,410.81 199.29,409.38 199.79,411.30 200.28,409.85 200.78,411.85 201.27,410.37 201.77,417.21 202.26,414.86 202.76,417.18 203.25,414.82 203.75,417.15 204.24,414.81 204.74,417.16 205.23,414.83 205.73,417.20 206.22,414.87 206.72,417.26 207.21,414.93 207.71,417.33 208.20,415.00 208.70,417.40 209.19,415.06 209.69,417.47 210.18,415.12 210.68,417.53 211.18,415.17 211.67,417.58 212.17,415.21 212.66,417.61 213.16,415.23 213.65,417.62 214.15,415.24 214.64,417.62 215.14,415.23 215.63,417.60 216.13,415.21 216.62,417.57 217.12,415.17 217.61,417.52 218.11,415.13 218.60,417.46 219.10,415.08 219.59,417.40 220.09,415.04 220.58,417.35 221.08,415.01 221.57,417.32 222.07,415.04 222.56,417.35 223.06,415.13 223.56,417.44 224.05,415.29 224.55,417.59 225.04,415.53 225.54,417.83 226.03,415.86 226.53,418.13 227.02,416.27 227.52,418.49 228.01,416.77 228.51,418.86 229.00,417.32 229.50,419.26 229.99,417.91 230.49,419.71 230.98,418.51 231.48,420.22 231.97,419.14 232.47,420.80 232.96,419.80 233.46,421.44 233.95,420.51 234.45,422.12 234.95,421.27 235.44,422.84 235.94,422.06 236.43,423.43 236.93,422.83 237.42,423.88 237.92,423.53 238.41,424.25 238.91,424.13 239.40,424.58 239.90,424.60 240.39,424.89 240.89,425.00 241.38,425.16 241.88,425.29 242.37,425.42 242.87,425.54 243.36,425.65 243.86,425.76 244.35,425.86 244.85,425.95 245.34,426.05 245.84,426.14 246.34,426.23 246.83,426.32 247.33,426.41 247.82,426.51 248.32,426.60 248.81,426.70 249.31,426.80 249.80,426.90 250.30,427.00 250.79,427.17 251.29,427.39 251.78,427.60 252.28,427.80 252.77,427.98 253.27,428.14 253.76,428.28 254.26,428.41 254.75,428.52 255.25,428.63 255.74,428.89 256.24,428.98 256.73,429.08 257.23,429.16 257.73,429.24 258.22,429.32 258.72,429.38 259.21,429.44 259.71,429.48 260.20,429.52 260.70,429.56 261.19,429.60 261.69,429.65 262.18,429.69 262.68,429.73 263.17,429.78 263.67,429.81 264.16,429.83 264.66,429.87 265.15,429.89 265.65,429.92 266.14,429.95 266.64,429.98 267.13,429.99 267.63,430.02 268.12,430.04 268.62,430.06 269.12,430.08 269.61,430.10 270.11,430.12 270.60,430.14 271.10,430.15 271.59,430.16 272.09,430.17 272.58,430.19 273.08,430.21 273.57,430.22 274.07,430.23 274.56,430.24 275.06,430.25 275.55,430.25 276.05,430.24 276.54,430.25 277.04,430.25 277.53,430.27 278.03,430.28 278.52,430.29 279.02,430.30 279.51,430.31 280.01,430.31 280.51,430.31 281.00,430.31 281.50,430.32 281.99,430.33 282.49,430.33 282.98,430.33 283.48,430.35 283.97,430.35 284.47,430.36 284.96,430.36 285.46,430.36 285.95,430.36 286.45,430.36 286.94,430.35 287.44,430.36 287.93,430.36 288.43,430.36 288.92,430.36 289.42,430.36 289.91,430.36 290.41,430.36 290.90,430.36 291.40,430.36 291.90,430.36 292.39,430.36 292.89,430.36 293.38,430.36 293.88,430.36 294.37,430.36 294.87,430.36 295.36,430.36 295.86,430.37 296.35,430.36 296.85,430.36 297.34,430.36 297.84,430.36 298.33,430.36 298.83,430.36 299.32,430.36 299.82,430.36 300.31,430.36 300.81,430.36 301.30,430.36 301.80,430.36 302.29,430.36 302.79,430.36 303.29,430.36 303.78,430.36 304.28,430.36 304.77,430.36 305.27,430.27 305.76,429.92 306.26,429.43 306.75,428.82 307.25,428.18 307.74,427.53 308.24,426.93 308.73,426.41 309.23,425.98 309.72,425.64 310.22,425.38 310.71,425.20 311.21,425.07 311.70,424.99 312.20,424.95 312.69,424.93 313.19,424.93 313.68,424.93 314.18,424.95 314.68,424.95 315.17,424.96 315.67,424.95 316.16,424.95 316.66,424.93 317.15,424.91 317.65,424.88 318.14,424.86 318.64,424.81 319.13,424.79 319.63,424.76 320.12,424.75 320.62,424.72 321.11,424.69 321.61,424.65 322.10,424.63 322.60,424.60 323.09,424.60 323.59,424.56 324.08,424.54 324.58,424.52 325.07,424.51 325.57,424.49 326.07,424.48 326.56,424.42 327.06,424.35 327.55,424.26 328.05,424.17 328.54,424.09 329.04,424.04 329.53,423.98 330.03,423.94 330.52,423.90 331.02,423.88 331.51,423.86 332.01,423.84 332.50,423.82 333.00,423.81 333.49,423.80 333.99,423.79 334.48,423.78 334.98,423.78 335.47,423.78 335.97,423.79 336.46,423.79 336.96,423.80 337.46,423.80 337.95,423.81 338.45,423.81 338.94,423.81 339.44,423.81 339.93,423.81 340.43,423.81 340.92,423.81 341.42,423.81 341.91,423.81 342.41,423.80 342.90,423.80 343.40,423.80 343.89,423.80 344.39,423.80 344.88,423.79 345.38,423.79 345.87,423.79 346.37,426.77 346.86,426.84 347.36,426.74 347.85,426.58 348.35,426.36 348.85,426.15 349.34,425.94 349.84,425.78 350.33,425.67 350.83,425.61 351.32,425.60 351.82,425.63 352.31,425.70 352.81,425.80 353.30,425.93 353.80,426.07 354.29,426.22 354.79,426.38 355.28,426.55 355.78,426.72 356.27,426.90 356.77,427.08 357.26,427.27 357.76,427.48 358.25,427.69 358.75,427.89 359.24,428.08 359.74,428.25 360.24,428.40 360.73,428.53 361.23,428.65 361.72,428.76 362.22,428.86 362.71,428.96 363.21,429.04 363.70,429.13 364.20,429.21 364.69,429.29 365.19,429.36 365.68,429.44 366.18,429.51 366.67,429.57 367.17,429.63 367.66,429.69 368.16,429.74 368.65,429.79 369.15,429.84 369.64,429.87 370.14,429.91 370.63,429.94 371.13,429.97 371.63,429.99 372.12,430.01 372.62,430.02 373.11,430.04 373.61,430.04 374.10,430.05 374.60,430.05 375.09,430.05 375.59,430.05 376.08,430.05 376.58,430.04 377.07,430.03 377.57,430.02 378.06,430.01 378.56,430.00 379.05,429.99 379.55,429.97 380.04,429.96 380.54,429.94 381.03,429.92 381.53,429.90 382.02,429.88 382.52,429.87 383.02,429.85 383.51,429.82 384.01,429.80 384.50,429.78 385.00,429.76 385.49,429.74 385.99,429.72 386.48,429.69 386.98,429.67 387.47,429.65 387.97,429.63 388.46,429.60 388.96,429.58 389.45,429.56 389.95,429.54 390.44,429.51 390.94,429.49 391.43,429.47 391.93,429.45 392.42,429.43 392.92,429.41 393.41,429.39 393.91,429.36 394.41,429.35 394.90,429.30 395.40,429.32 395.89,429.03 396.39,429.24 396.88,427.67 397.38,428.56 397.87,426.18 398.37,427.29 398.86,424.79 399.36,425.95 399.85,423.49 400.35,424.68 400.84,422.31 401.34,423.58 401.83,421.25 402.33,422.60 402.82,420.31 403.32,421.72 403.81,419.48 404.31,420.94 404.80,418.75 405.30,420.26 405.80,418.11 406.29,419.66 406.79,417.56 407.28,419.15 407.78,417.09 408.27,418.71 408.77,416.69 409.26,418.34 409.76,416.35 410.25,418.02 410.75,416.07 411.24,417.76 411.74,415.84 412.23,417.55 412.73,415.66 413.22,417.37 413.72,415.51 414.21,417.23 414.71,415.39 415.20,417.12 415.70,415.30 416.19,417.03 416.69,415.24 417.19,416.97 417.68,415.19 418.18,416.92 418.67,415.16 419.17,416.88 419.66,415.13 420.16,416.86 420.65,415.12 421.15,416.83 421.64,415.11 422.14,416.82 422.63,415.10 423.13,416.80 423.62,415.09 424.12,417.30 424.61,417.05 425.11,418.55 425.60,416.64 426.10,417.96 426.59,416.30 427.09,417.82 427.58,416.10 428.08,417.62 428.58,415.95 429.07,429.94 429.57,429.93 430.06,429.42 430.56,429.78 431.05,429.32 431.55,428.47 432.04,428.51 432.54,426.86 433.03,427.54 433.53,425.44 434.02,426.34 434.52,424.17 435.01,425.38 435.51,423.05 436.00,424.35 436.50,422.02 436.99,423.43 437.49,421.10 437.98,422.54 438.48,420.26 438.97,421.74 439.47,419.49 439.97,420.98 440.46,418.78 440.96,420.29 441.45,418.13 441.95,419.64 442.44,417.53 442.94,419.04 443.43,416.98 443.93,418.49 444.42,416.47 444.92,417.98 445.41,416.01 445.91,417.52 446.40,415.58 446.90,417.09 447.39,415.19 447.89,416.70 448.38,414.84 448.88,416.34 449.37,414.52 449.87,416.02 450.36,414.23 450.86,415.74 451.36,413.98 451.85,415.48 452.35,413.75 452.84,415.26 453.34,413.55 453.83,415.06 454.33,413.37 454.82,414.90 455.32,413.23 455.81,414.76 456.31,413.10 456.80,414.65 457.30,413.00 457.79,414.56 458.29,412.93 458.78,414.50 459.28,412.87 459.77,414.45 460.27,412.83 460.76,414.44 461.26,412.81 461.75,414.44 462.25,412.81 462.75,414.46 463.24,412.82 463.74,414.49 464.23,412.85 464.73,414.54 465.22,412.89 465.72,414.61 466.21,412.94 466.71,414.69 467.20,412.99 467.70,414.77 468.19,413.06 468.69,414.87 469.18,413.13 469.68,414.97 470.17,413.20 470.67,415.07 471.16,413.27 471.66,415.18 472.15,413.34 472.65,415.28 473.14,413.40 473.64,415.38 474.14,413.46 474.63,415.47 475.13,413.51 475.62,415.55 476.12,413.55 476.61,415.61 477.11,413.57 477.60,415.67 478.10,413.58 478.59,415.70 479.09,413.57 479.58,415.71 480.08,413.55 480.57,415.70 481.07,413.49 481.56,415.66 482.06,413.42 482.55,415.60 483.05,413.32 483.54,415.50 484.04,413.19 484.53,415.37 485.03,413.04 485.53,415.20 486.02,412.85 486.52,415.00 487.01,412.63 487.51,414.76 488.00,412.39 488.50,414.49 488.99,412.11 489.49,414.18 489.98,411.80 490.48,413.83 490.97,411.46 491.47,413.45 491.96,411.09 492.46,413.04 492.95,410.70 493.45,412.60 493.94,410.28 494.44,412.12 494.93,409.83 495.43,411.62 495.92,409.35 496.42,411.09 496.92,408.85 497.41,410.53 497.91,408.33 498.40,409.95 498.90,407.78 499.39,409.36 499.89,407.23 500.38,408.75 500.88,406.66 501.37,408.12 501.87,406.08 502.36,407.49 502.86,405.49 503.35,406.86 503.85,404.91 504.34,406.23 504.84,404.32 505.33,405.61 505.83,403.75 506.32,404.99 506.82,403.18 507.31,404.39 507.81,402.63 508.31,403.81 508.80,402.11 509.30,403.26 509.79,401.60 510.29,402.73 510.78,401.13 511.28,402.24 511.77,400.69 512.27,401.78 512.76,400.29 513.26,401.37 513.75,399.93 514.25,401.01 514.74,399.63 515.24,400.70 515.73,399.37 516.23,400.45 516.72,399.18 517.22,400.26 517.71,399.05 518.21,400.14 518.70,398.99 519.20,400.10 519.69,398.99 520.19,400.13 520.69,399.08 521.18,400.24 521.68,399.24 522.17,400.43 522.67,399.49 523.16,400.71 523.66,399.82 524.15,401.08 524.65,400.25 525.14,401.55 525.64,400.76 526.13,402.11 526.63,401.36 527.12,402.77 527.62,402.06 528.11,416.19 528.61,414.24 529.10,416.19 529.60,414.25 530.09,416.19 530.59,414.27 531.08,416.24 531.58,414.32 532.08,416.31 532.57,414.39 533.07,416.40 533.56,414.48 534.06,416.50 534.55,414.56 535.05,416.60 535.54,414.64 536.04,416.69 536.53,414.70 537.03,416.75 537.52,414.74 538.02,416.78 538.51,414.74 539.01,416.75 539.50,414.70 540.00,416.68 540.49,414.61 540.99,416.56 541.48,414.48 541.98,416.38 542.47,414.32 542.97,416.17 543.47,414.13 543.96,415.92 544.46,413.93 544.95,415.66 545.45,413.72 545.94,415.40 546.44,413.53 546.93,415.16 547.43,413.37 547.92,414.94 548.42,413.24 548.91,414.77 549.41,413.16 549.90,414.67 550.40,413.14 550.89,414.65 551.39,413.18 551.88,414.71 552.38,413.29 552.87,414.84 553.37,413.47 553.86,415.04 554.36,413.69 554.86,415.28 555.35,413.95 555.85,415.55 556.34,414.23 556.84,415.84 557.33,414.52 557.83,416.15 558.32,414.83 558.82,416.49 559.31,415.28 559.81,417.27 560.30,416.06 560.80,418.13 561.29,416.75 561.79,418.74 562.28,417.19 562.78,419.04 563.27,417.51 563.77,419.38 564.26,417.82 564.76,419.67 565.25,430.41 565.75,430.41 566.25,430.41 566.74,430.41 567.24,430.41 567.73,430.40 568.23,430.39 568.72,430.41 569.22,430.41 569.71,430.41 570.21,430.41 570.70,430.41 571.20,430.41 571.69,430.40 572.19,430.41 572.68,430.41 573.18,430.41 573.67,430.41 574.17,430.41 574.66,430.41 575.16,430.41 575.65,430.40 576.15,430.41 576.64,430.41 577.14,430.41 577.64,430.41 578.13,430.41 578.63,430.41 579.12,430.40 579.62,430.41 580.11,430.41 580.61,430.41 581.10,430.41 581.60,430.41 582.09,430.41 582.59,430.41 583.08,430.41 583.58,430.41 584.07,430.41 584.57,430.41 585.06,430.41 585.56,430.41 586.05,430.41 586.55,430.41 587.04,430.41 587.54,430.41 588.03,430.41 588.53,430.41 589.03,430.41 589.52,430.41 590.02,430.41 590.51,430.41 591.01,430.41 591.50,430.41 592.00,430.41 592.49,430.41 592.99,430.41 593.48,430.41 593.98,430.41 594.47,430.41 594.97,430.41 595.46,430.41 595.96,430.41 596.45,430.41 596.95,430.41 597.44,430.41 597.94,430.41 598.43,430.41 598.93,430.41 599.42,430.41 599.92,430.41 600.42,430.41 600.91,430.41 601.41,430.41 601.90,430.41 602.40,430.41 602.89,430.41 603.39,430.41 603.88,430.41 604.38,430.41 604.87,430.41 605.37,430.41 605.86,430.41 606.36,430.41 606.85,430.41 607.35,430.41 607.84,430.41 608.34,430.41 608.83,430.41 609.33,430.41 609.82,430.41 610.32,430.41 610.81,430.41 611.31,430.41 611.81,430.41 612.30,430.41 612.80,430.41 613.29,430.41 613.79,430.41 614.28,430.41 614.78,430.41 615.27,430.41 615.77,430.41 616.26,430.41 616.76,430.41 617.25,430.41 617.75,430.41 618.24,430.41 618.74,430.41 619.23,430.41 619.73,430.41 620.22,430.41 620.72,430.41 621.21,430.41 621.71,430.41 622.20,430.41 622.70,430.41 623.20,430.41 623.69,430.41 624.19,430.41 624.68,430.41 625.18,430.41 625.67,430.41 626.17,430.41 626.66,430.41 627.16,430.41 627.65,430.41 628.15,430.41 628.64,430.41 629.14,430.41 629.63,430.41 630.13,430.41 630.62,430.41 631.12,430.41 631.61,430.41 632.11,430.41 632.60,430.41 633.10,430.41 633.59,430.41 634.09,430.41 634.59,430.41 635.08,430.41 635.58,430.41 636.07,430.41 636.57,430.41 637.06,430.41 637.56,430.41 638.05,430.41 638.55,430.41 639.04,430.41 639.54,430.41 640.03,430.41 640.53,430.41 641.02,430.41 641.52,430.41 642.01,430.41 642.51,430.41 643.00,430.41 643.50,430.41 643.99,430.41 644.49,430.41 644.98,430.41 645.48,430.41 645.98,430.41 646.47,430.41 646.97,430.41 647.46,430.41 647.96,430.41 648.45,430.41 648.95,430.41 649.44,430.41 649.94,430.41 650.43,430.41 650.93,430.41 651.42,430.41 651.92,430.41 652.41,430.41 652.91,430.41 653.40,430.41 653.90,430.41 654.39,430.41 654.89,430.41 655.38,430.41 655.88,430.41 656.37,430.41 656.87,430.41 657.37,430.41 657.86,430.41 658.36,430.41 658.85,430.41 659.35,430.41 659.84,430.41 660.34,430.41 660.83,430.41 661.33,430.41 661.82,430.41 662.32,430.41 662.81,430.41 663.31,430.41 663.80,430.41 664.30,430.41 664.79,430.41 665.29,430.41 665.78,430.41 666.28,430.41 666.77,430.41 667.27,430.41 667.76,430.41 668.26,430.41 668.76,430.41 669.25,430.41 669.75,430.41 670.24,430.41 670.74,430.41 671.23,430.41 671.73,430.41 672.22,430.41 672.72,430.41 673.21,430.41 673.71,430.41 674.20,430.41 674.70,430.41 675.19,430.41 675.69,430.41 676.18,430.41 676.68,430.41 677.17,430.41 677.67,430.41 678.16,430.41 678.66,430.41 679.15,430.41 679.65,430.41 680.15,430.41 680.64,430.41 681.14,430.41 681.63,430.41 682.13,430.41 682.62,430.41 683.12,430.41 683.61,430.41 684.11,430.41 684.60,430.41 685.10,430.41 685.59,430.41 686.09,430.41 686.58,430.41 687.08,430.41 687.57,430.41 688.07,430.41 688.56,430.41 689.06,430.41 689.55,430.41 690.05,430.41 690.54,430.41 691.04,430.41 691.54,430.41 692.03,430.41 692.53,430.41 693.02,430.41 693.52,430.41 694.01,430.41 694.51,430.41 695.00,430.41 695.50,430.41 695.99,430.41 696.49,430.41 696.98,430.41 697.48,430.41 697.97,430.41 698.47,430.41 698.96,430.41 699.46,430.41 699.95,430.41 700.45,430.41 700.94,430.41 701.44,430.41 701.93,430.41 702.43,430.41 702.93,430.41 703.42,430.41 703.92,430.41 704.41,430.41 704.91,430.41 705.40,430.41 705.90,430.41 706.39,430.41 706.89,430.41 707.38,430.41 707.88,430.41 708.37,430.41 708.87,430.41 709.36,430.41 709.86,430.41 710.35,430.41 710.85,430.41 711.34,430.41 711.84,430.41 712.33,430.41 712.83,430.41 713.32,430.41 713.82,430.41 714.32,430.41 714.81,430.41 715.31,430.41 715.80,430.41 716.30,430.41 716.79,430.41 717.29,430.41 717.78,430.41 718.28,430.41 718.77,430.41 719.27,430.41 719.76,430.41 720.26,430.41 720.75,430.41 721.25,430.41 721.74,430.41 722.24,430.41 722.73,430.41 723.23,430.41 723.72,430.41 724.22,430.41 724.71,430.41 725.21,430.41 725.71,430.41 726.20,430.41 726.70,430.41 727.19,430.41 727.69,430.41 728.18,430.41 728.68,430.41 729.17,430.41 729.67,430.41 730.16,430.41 730.66,430.41 731.15,430.41 731.65,430.41 732.14,430.41 732.64,430.41 733.13,430.41 733.63,430.41 734.12,430.41 734.62,430.41 735.11,430.41 735.61,430.41 736.10,430.41 736.60,430.41 737.10,430.41 737.59,430.41 738.09,430.41 738.58,430.41 739.08,430.41 739.57,430.41 740.07,430.41 740.56,430.41 741.06,430.41 741.55,430.41 742.05,430.41 742.54,430.41 743.04,430.41 743.53,430.41 744.03,430.41 744.52,430.41 745.02,430.41 745.51,430.41 746.01,430.41 746.50,430.41 747.00,430.41 747.49,430.41 747.99,430.41 748.49,430.41 748.98,430.41 749.48,430.41 749.97,430.41 750.47,430.41 750.96,430.41 751.46,430.41 751.95,430.41 752.45,430.41 752.94,430.41 753.44,430.41 753.93,430.41 754.43,430.41 754.92,430.41 755.42,430.41 755.91,430.41 756.41,430.41 756.90,430.41 757.40,430.41 757.89,430.41 758.39,430.41 758.88,430.41 759.38,430.41 759.88,430.41 760.37,430.41 760.87,430.41 761.36,430.41 761.86,430.41 762.35,430.41 762.85,430.41 763.34,430.41 763.84,430.41 764.33,430.41 764.83,430.41 765.32,430.41 765.82,430.41 766.31,430.41 766.81,430.41 767.30,430.41 767.80,430.41 768.29,430.41 768.79,430.41 769.28,430.41 769.78,430.41 770.27,430.41 770.77,430.41 771.27,430.41 771.76,430.41 772.26,430.41 772.75,430.41 773.25,430.41 773.74,430.41 774.24,430.41 774.73,430.41 775.23,430.41 775.72,430.41 776.22,430.41 776.71,430.41 777.21,430.41 777.70,430.41 778.20,430.41 778.69,430.41 779.19,430.41 779.68,430.41 780.18,430.41 780.67,430.41 781.17,430.41 781.66,430.41 782.16,430.41 782.66,430.41 783.15,430.41 783.65,430.41 784.14,430.41 784.64,430.41 785.13,430.41 785.63,430.41 786.12,430.41 786.62,430.41 787.11,430.41 787.61,430.41 788.10,430.41 788.60,430.41 789.09,430.41 789.59,430.41 790.08,430.41 790.58,430.41 791.07,430.41 791.57,430.41 792.06,430.41 792.56,430.41 793.05,430.41 793.55,430.41 794.05,430.41 794.54,430.41 795.04,430.41 795.53,430.41 796.03,430.41 796.52,430.41 797.02,430.41 797.51,430.41 798.01,430.41 798.50,430.38 799.00,430.33 799.49,430.24 799.99,430.10 800.48,429.91 800.98,429.66 801.47,429.33 801.97,428.93 802.46,428.44 802.96,427.83 803.45,427.07 803.95,426.50 804.44,425.15 804.94,424.60 805.44,422.84 805.93,422.17 806.43,420.14 806.92,419.28 807.42,417.00 807.91,415.93 808.41,413.43 808.90,412.14 809.40,409.44 809.89,407.90 810.39,405.00 810.88,403.22 811.38,400.12 811.87,398.10 812.37,394.81 812.86,392.54 813.36,389.08 813.85,386.57 814.35,382.94 814.84,380.20 815.34,376.43 815.83,373.46 816.33,369.57 816.82,366.38 817.32,362.37 817.82,358.97 818.31,354.86 818.81,351.25 819.30,347.05 819.80,343.23 820.29,338.94 820.79,334.85 821.28,330.47 821.78,326.16 822.27,321.68 822.77,317.19 823.26,312.62 823.76,307.98 824.25,303.33 824.75,298.57 825.24,293.87 825.74,289.01 826.23,284.23 826.73,279.30 827.22,274.47 827.72,269.49 828.21,264.64 828.71,259.63 829.21,254.78 829.70,249.78 830.20,244.95 830.69,239.98 831.19,235.17 831.68,230.24 832.18,225.46 832.67,220.54 833.17,215.82 833.66,210.96 834.16,206.32 834.65,201.56 835.15,197.02 835.64,192.38 836.14,187.93 836.63,183.42 837.13,179.06 837.62,174.69 838.12,170.45 838.61,166.23 839.11,162.12 839.60,158.06 840.10,154.09 840.60,150.20 841.09,146.40 841.59,142.68 842.08,139.06 842.58,135.55 843.07,132.12 843.57,128.83 844.06,125.60 844.56,122.53 845.05,119.49 845.55,116.66 846.04,113.82 846.54,111.23 847.03,108.64 847.53,106.30 848.02,103.97 848.52,101.87 849.01,99.80 849.51,97.95 850.00,96.15 850.50,94.55 850.99,93.02 851.49,91.68 851.99,90.43 852.48,89.35 852.98,88.38 853.47,87.58 853.97,86.89 854.46,86.36 854.96,85.96 855.45,85.71 855.95,85.60 856.44,85.62 856.94,85.80 857.43,86.10 857.93,86.57 858.42,87.13 858.92,87.90 859.41,88.73 859.91,89.78 860.40,90.89 860.90,92.22 861.39,93.61 861.89,95.21 862.38,96.88 862.88,98.75 863.38,100.69 863.87,102.81 864.37,105.01 864.86,107.38 865.36,109.85 865.85,112.46 866.35,115.17 866.84,118.02 867.34,120.96 867.83,124.04 868.33,127.21 868.82,130.50 869.32,133.89 869.81,137.39 870.31,140.97 870.80,144.66 871.30,148.44 871.79,152.31 872.29,156.26 872.78,160.29 873.28,164.39 873.77,168.57 874.27,172.82 874.77,177.13 875.26,181.50 875.76,185.92 876.25,190.40 876.75,194.92 877.24,199.48 877.74,204.08 878.23,208.70 878.73,213.34 879.22,218.01 879.72,222.68 880.21,227.37 880.71,232.05 881.20,236.72 881.70,241.39 882.19,246.03 882.69,250.65 883.18,255.24 883.68,259.79 884.17,264.30 884.67,268.75 885.16,273.15 885.66,277.47 886.16,281.73 886.65,285.90 887.15,289.98 887.64,293.96 888.14,430.40 888.63,430.39 889.13,430.37 889.62,430.36 890.12,430.35 890.61,430.34 891.11,430.33 891.60,430.33 892.10,430.32 892.59,430.31 893.09,430.31 893.58,430.30 894.08,430.30 894.57,430.29 895.07,430.29 895.56,430.29 896.06,430.28 896.55,430.28 897.05,430.28 897.55,430.28 898.04,430.28 898.54,430.28 899.03,430.28 899.53,430.28 900.02,430.28 900.52,430.28 901.01,430.28 901.51,430.28 902.00,430.28 902.50,430.28 902.99,430.28 903.49,430.29 903.98,430.29 904.48,430.29 904.97,430.29 905.47,430.30 905.96,430.30 906.46,430.30 906.95,430.31 907.45,430.31 907.94,430.31 908.44,430.32 908.94,430.32 909.43,430.32 909.93,430.33 910.42,430.33 910.92,430.33 911.41,430.34 911.91,430.34 912.40,430.35 912.90,430.35 913.39,430.35 913.89,430.36 914.38,430.36 914.88,430.36 915.37,430.37 915.87,430.37 916.36,430.37 916.86,430.38 917.35,430.38 917.85,430.38 918.34,430.38 918.84,430.39 919.33,430.39 919.83,430.39 920.33,430.39 920.82,430.40 921.32,430.40 921.81,430.40 922.31,430.40 922.80,430.41 923.30,430.41 923.79,430.41 924.29,430.41 924.78,430.41 925.28,430.41 925.77,430.41 926.27,430.41 926.76,430.41 927.26,430.41 927.75,430.41 928.25,430.41 928.74,430.41 929.24,430.40 929.73,430.40 930.23,430.40 930.72,430.40 931.22,430.40 931.72,430.40 932.21,430.40 932.71,430.40 933.20,430.40 933.70,430.40 934.19,430.40 934.69,430.40 935.18,430.40 935.68,430.40 936.17,430.40 936.67,430.40 937.16,430.40 937.66,430.40 938.15,430.40 938.65,430.40 939.14,430.40 939.64,430.40 940.13,430.40 940.63,430.40 941.12,430.40 941.62,430.40 942.11,430.40 942.61,430.40 943.11,430.40 943.60,430.40 944.10,430.40 944.59,430.40 945.09,430.40 945.58,430.40 946.08,430.40 946.57,430.41 947.07,430.41 947.56,430.41 948.06,430.41 948.55,430.41 949.05,430.41 949.54,430.41 950.04,430.41 950.53,430.41 951.03,430.41 951.52,430.41 952.02,430.41 952.51,430.41 953.01,430.41 953.50,430.41 954.00,430.41"/>
<polyline fill="none" stroke="#d62728" stroke-width="2.4" points="74.00,430.41 74.50,430.41 74.99,430.41 75.49,430.41 75.98,430.41 76.48,430.41 76.97,430.41 77.47,430.41 77.96,430.41 78.46,430.41 78.95,430.41 79.45,430.41 79.94,430.41 80.44,430.41 80.93,430.41 81.43,430.41 81.92,430.41 82.42,430.41 82.91,430.41 83.41,430.41 83.90,430.41 84.40,430.41 84.89,430.41 85.39,430.41 85.89,430.41 86.38,430.41 86.88,430.41 87.37,430.41 87.87,430.41 88.36,430.41 88.86,430.41 89.35,430.41 89.85,430.41 90.34,430.41 90.84,430.41 91.33,430.41 91.83,430.41 92.32,430.41 92.82,430.41 93.31,430.41 93.81,430.41 94.30,430.41 94.80,430.41 95.29,430.41 95.79,430.41 96.28,430.41 96.78,430.41 97.28,430.41 97.77,430.41 98.27,430.41 98.76,430.41 99.26,430.41 99.75,430.41 100.25,430.41 100.74,430.41 101.24,430.41 101.73,430.41 102.23,430.41 102.72,430.41 103.22,430.41 103.71,430.41 104.21,430.41 104.70,430.41 105.20,430.41 105.69,430.41 106.19,430.41 106.68,430.41 107.18,430.41 107.67,430.41 108.17,430.41 108.67,430.41 109.16,430.41 109.66,430.41 110.15,430.41 110.65,430.41 111.14,430.41 111.64,430.41 112.13,430.41 112.63,430.41 113.12,430.41 113.62,430.41 114.11,430.41 114.61,430.41 115.10,430.41 115.60,430.41 116.09,430.41 116.59,430.41 117.08,430.41 117.58,430.41 118.07,430.41 118.57,430.41 119.06,430.41 119.56,430.41 120.06,430.41 120.55,430.41 121.05,430.41 121.54,430.41 122.04,430.41 122.53,430.41 123.03,430.41 123.52,430.41 124.02,430.41 124.51,430.41 125.01,430.40 125.50,430.40 126.00,430.40 126.49,430.40 126.99,430.40 127.48,430.39 127.98,430.39 128.47,430.39 128.97,430.39 129.46,430.38 129.96,430.37 130.45,430.32 130.95,430.27 131.45,430.14 131.94,429.93 132.44,429.49 132.93,429.28 133.43,430.03 133.92,428.82 134.42,430.35 134.91,428.52 135.41,430.16 135.90,428.33 136.40,430.03 136.89,428.25 137.39,429.89 137.88,428.20 138.38,429.57 138.87,427.66 139.37,429.53 139.86,428.08 140.36,429.67 140.85,427.53 141.35,428.98 141.84,426.43 142.34,427.82 142.84,425.41 143.33,426.68 143.83,424.50 144.32,425.76 144.82,423.70 145.31,424.92 145.81,422.99 146.30,424.53 146.80,422.62 147.29,423.72 147.79,422.01 148.28,423.15 148.78,421.47 149.27,422.56 149.77,420.97 150.26,422.05 150.76,420.52 151.25,421.58 151.75,420.11 152.24,421.16 152.74,419.74 153.23,420.79 153.73,419.40 154.23,420.46 154.72,419.11 155.22,420.17 155.71,418.85 156.21,419.92 156.70,418.62 157.20,419.70 157.69,418.42 158.19,419.52 158.68,418.25 159.18,419.38 159.67,418.11 160.17,419.26 160.66,417.98 161.16,419.16 161.65,417.88 162.15,419.09 162.64,417.79 163.14,419.04 163.63,417.72 164.13,419.01 164.62,417.66 165.12,418.99 165.62,417.61 166.11,418.98 166.61,417.56 167.10,418.98 167.60,417.51 168.09,418.98 168.59,417.47 169.08,418.99 169.58,417.42 170.07,418.99 170.57,417.37 171.06,418.99 171.56,417.32 172.05,418.98 172.55,417.26 173.04,418.97 173.54,417.19 174.03,418.95 174.53,417.12 175.02,418.92 175.52,417.04 176.01,418.88 176.51,416.95 177.01,418.84 177.50,416.86 178.00,418.78 178.49,416.76 178.99,418.39 179.48,416.95 179.98,419.06 180.47,416.83 180.97,418.79 181.46,416.68 181.96,418.75 182.45,416.55 182.95,418.61 183.44,416.41 183.94,418.51 184.43,416.28 184.93,418.39 185.42,416.15 185.92,418.29 186.41,416.02 186.91,418.18 187.40,415.90 187.90,418.08 188.40,415.79 188.89,417.99 189.39,415.68 189.88,417.90 190.38,415.59 190.87,417.81 191.37,415.49 191.86,417.73 192.36,415.41 192.85,417.66 193.35,415.33 193.84,417.59 194.34,415.25 194.83,417.53 195.33,415.19 195.82,417.47 196.32,415.13 196.81,417.41 197.31,415.07 197.80,417.36 198.30,415.02 198.79,417.32 199.29,414.97 199.79,417.28 200.28,414.93 200.78,417.25 201.27,414.89 201.77,417.21 202.26,414.87 202.76,417.20 203.25,414.86 203.75,417.21 204.24,414.88 204.74,417.25 205.23,414.93 205.73,417.32 206.22,415.00 206.72,417.41 207.21,415.09 207.71,417.52 208.20,415.19 208.70,417.62 209.19,415.29 209.69,417.72 210.18,415.37 210.68,417.80 211.18,415.44 211.67,417.86 212.17,415.49 212.66,417.90 213.16,415.52 213.65,417.91 214.15,415.52 214.64,417.90 215.14,415.50 215.63,417.86 216.13,415.46 216.62,417.81 217.12,415.41 217.61,417.74 218.11,415.34 218.60,417.66 219.10,415.27 219.59,417.58 220.09,415.21 220.58,417.51 221.08,415.17 221.57,417.47 222.07,415.18 222.56,417.48 223.06,415.25 223.56,417.56 224.05,415.40 224.55,417.71 225.04,415.64 225.54,417.94 226.03,415.96 226.53,418.25 227.02,416.38 227.52,418.62 228.01,416.88 228.51,419.01 229.00,417.44 229.50,419.44 229.99,418.04 230.49,419.92 230.98,418.66 231.48,420.47 231.97,419.31 232.47,421.09 232.96,420.01 233.46,421.77 233.95,420.76 234.45,422.52 234.95,421.56 235.44,423.31 235.94,422.40 236.43,423.96 236.93,423.24 237.42,424.46 237.92,424.02 238.41,424.87 238.91,424.70 239.40,425.25 239.90,425.26 240.39,425.61 240.89,425.74 241.38,425.94 241.88,426.09 242.37,426.26 242.87,426.40 243.36,426.54 243.86,426.67 244.35,426.79 244.85,426.91 245.34,427.01 245.84,427.11 246.34,427.21 246.83,427.30 247.33,427.39 247.82,427.48 248.32,427.56 248.81,427.64 249.31,427.72 249.80,427.80 250.30,427.77 250.79,427.81 251.29,427.88 251.78,427.98 252.28,428.10 252.77,428.23 253.27,428.35 253.76,428.47 254.26,428.59 254.75,428.70 255.25,428.80 255.74,428.90 256.24,428.99 256.73,429.08 257.23,429.17 257.73,429.24 258.22,429.32 258.72,429.38 259.21,429.44 259.71,429.48 260.20,429.52 260.70,429.57 261.19,429.61 261.69,429.65 262.18,429.70 262.68,429.74 263.17,429.79 263.67,429.82 264.16,429.84 264.66,429.88 265.15,429.90 265.65,429.93 266.14,429.96 266.64,429.99 267.13,430.01 267.63,430.03 268.12,430.06 268.62,430.08 269.12,430.10 269.61,430.12 270.11,430.14 270.60,430.15 271.10,430.17 271.59,430.18 272.09,430.19 272.58,430.20 273.08,430.22 273.57,430.23 274.07,430.25 274.56,430.26 275.06,430.27 275.55,430.26 276.05,430.26 276.54,430.27 277.04,430.28 277.53,430.30 278.03,430.30 278.52,430.32 279.02,430.32 279.51,430.33 280.01,430.34 280.51,430.34 281.00,430.34 281.50,430.35 281.99,430.36 282.49,430.36 282.98,430.36 283.48,430.38 283.97,430.38 284.47,430.39 284.96,430.39 285.46,430.39 285.95,430.40 286.45,430.39 286.94,430.39 287.44,430.40 287.93,430.40 288.43,430.41 288.92,430.40 289.42,430.41 289.91,430.41 290.41,430.41 290.90,430.41 291.40,430.40 291.90,430.41 292.39,430.40 292.89,430.40 293.38,430.40 293.88,430.39 294.37,430.40 294.87,430.40 295.36,430.40 295.86,430.41 296.35,430.39 296.85,430.39 297.34,430.39 297.84,430.39 298.33,430.38 298.83,430.39 299.32,430.38 299.82,430.39 300.31,430.39 300.81,430.38 301.30,430.38 301.80,430.38 302.29,430.38 302.79,430.38 303.29,430.38 303.78,430.38 304.28,430.39 304.77,430.38 305.27,430.40 305.76,430.39 306.26,430.17 306.75,430.02 307.25,429.77 307.74,429.64 308.24,429.44 308.73,429.23 309.23,429.03 309.72,428.84 310.22,428.69 310.71,428.54 311.21,428.42 311.70,428.30 312.20,428.22 312.69,428.12 313.19,428.06 313.68,427.98 314.18,427.93 314.68,427.86 315.17,427.83 315.67,427.76 316.16,427.73 316.66,427.67 317.15,427.64 317.65,427.58 318.14,427.57 318.64,427.51 319.13,427.47 319.63,427.41 320.12,427.39 320.62,427.36 321.11,427.33 321.61,427.27 322.10,427.24 322.60,427.19 323.09,427.21 323.59,427.16 324.08,427.14 324.58,427.10 325.07,427.09 325.57,427.05 326.07,427.08 326.56,427.06 327.06,427.05 327.55,427.02 328.05,427.00 328.54,426.97 329.04,426.94 329.53,426.91 330.03,426.89 330.52,426.87 331.02,426.85 331.51,426.84 332.01,426.82 332.50,426.81 333.00,426.80 333.49,426.78 333.99,426.78 334.48,426.76 334.98,426.76 335.47,426.75 335.97,426.74 336.46,426.74 336.96,426.73 337.46,426.72 337.95,426.72 338.45,426.72 338.94,426.72 339.44,426.71 339.93,426.71 340.43,426.71 340.92,426.70 341.42,426.70 341.91,426.70 342.41,426.69 342.90,426.69 343.40,426.69 343.89,426.68 344.39,426.68 344.88,426.68 345.38,426.67 345.87,426.67 346.37,426.77 346.86,426.87 347.36,426.82 347.85,426.78 348.35,426.71 348.85,426.67 349.34,426.63 349.84,426.61 350.33,426.61 350.83,426.62 351.32,426.65 351.82,426.70 352.31,426.76 352.81,426.83 353.30,426.91 353.80,427.00 354.29,427.10 354.79,427.21 355.28,427.32 355.78,427.43 356.27,427.55 356.77,427.68 357.26,427.82 357.76,427.98 358.25,428.15 358.75,428.33 359.24,428.50 359.74,428.67 360.24,428.83 360.73,428.98 361.23,429.12 361.72,429.26 362.22,429.39 362.71,429.50 363.21,429.61 363.70,429.71 364.20,429.80 364.69,429.89 365.19,429.96 365.68,430.03 366.18,430.10 366.67,430.16 367.17,430.22 367.66,430.27 368.16,430.31 368.65,430.36 369.15,430.40 369.64,430.39 370.14,430.36 370.63,430.33 371.13,430.30 371.63,430.27 372.12,430.24 372.62,430.22 373.11,430.20 373.61,430.18 374.10,430.16 374.60,430.15 375.09,430.14 375.59,430.12 376.08,430.11 376.58,430.10 377.07,430.10 377.57,430.09 378.06,430.09 378.56,430.08 379.05,430.08 379.55,430.08 380.04,430.08 380.54,430.08 381.03,430.09 381.53,430.09 382.02,430.10 382.52,430.10 383.02,430.11 383.51,430.12 384.01,430.12 384.50,430.13 385.00,430.14 385.49,430.15 385.99,430.16 386.48,430.18 386.98,430.19 387.47,430.20 387.97,430.21 388.46,430.23 388.96,430.24 389.45,430.26 389.95,430.27 390.44,430.29 390.94,430.30 391.43,430.32 391.93,430.34 392.42,430.35 392.92,430.37 393.41,430.39 393.91,430.39 394.41,430.36 394.90,430.33 395.40,430.12 395.89,429.86 396.39,429.83 396.88,428.20 397.38,429.11 397.87,426.57 398.37,427.60 398.86,425.08 399.36,426.15 399.85,423.70 400.35,424.81 400.84,422.47 401.34,423.68 401.83,421.38 402.33,422.67 402.82,420.42 403.32,421.78 403.81,419.58 404.31,421.00 404.80,418.84 405.30,420.31 405.80,418.20 406.29,419.72 406.79,417.65 407.28,419.21 407.78,417.18 408.27,418.78 408.77,416.78 409.26,418.41 409.76,416.45 410.25,418.10 410.75,416.18 411.24,417.84 411.74,415.95 412.23,417.63 412.73,415.77 413.22,417.47 413.72,415.63 414.21,417.33 414.71,415.51 415.20,417.22 415.70,415.43 416.19,417.14 416.69,415.36 417.19,417.08 417.68,415.32 418.18,417.03 418.67,415.29 419.17,417.00 419.66,415.26 420.16,416.98 420.65,415.25 421.15,416.96 421.64,415.24 422.14,416.94 422.63,415.23 423.13,416.93 423.62,415.22 424.12,417.43 424.61,417.20 425.11,418.79 425.60,416.82 426.10,418.21 426.59,416.48 427.09,418.05 427.58,416.25 428.08,417.81 428.58,416.08 429.07,429.98 429.57,430.05 430.06,429.52 430.56,429.99 431.05,430.36 431.55,428.89 432.04,429.47 432.54,427.12 433.03,428.10 433.53,425.59 434.02,426.61 434.52,424.26 435.01,425.56 435.51,423.13 436.00,424.50 436.50,422.14 436.99,423.62 437.49,421.28 437.98,422.81 438.48,420.52 438.97,422.11 439.47,419.85 439.97,421.47 440.46,419.26 440.96,420.91 441.45,418.73 441.95,420.40 442.44,418.26 442.94,419.95 443.43,417.84 443.93,419.55 444.42,417.47 444.92,419.19 445.41,417.15 445.91,418.87 446.40,416.85 446.90,418.59 447.39,416.60 447.89,418.34 448.38,416.37 448.88,418.11 449.37,416.17 449.87,417.92 450.36,415.99 450.86,417.74 451.36,415.83 451.85,417.58 452.35,415.69 452.84,417.44 453.34,415.56 453.83,417.32 454.33,415.45 454.82,417.21 455.32,415.34 455.81,417.11 456.31,415.25 456.80,417.03 457.30,415.17 457.79,416.95 458.29,415.10 458.78,416.88 459.28,415.03 459.77,416.82 460.27,414.96 460.76,416.77 461.26,414.91 461.75,416.72 462.25,414.85 462.75,416.67 463.24,414.80 463.74,416.63 464.23,414.75 464.73,416.59 465.22,414.70 465.72,416.56 466.21,414.65 466.71,416.53 467.20,414.60 467.70,416.49 468.19,414.55 468.69,416.46 469.18,414.50 469.68,416.42 470.17,414.44 470.67,416.39 471.16,414.39 471.66,416.35 472.15,414.32 472.65,416.31 473.14,414.26 473.64,416.26 474.14,414.19 474.63,416.21 475.13,414.11 475.62,416.16 476.12,414.03 476.61,416.10 477.11,413.95 477.60,416.03 478.10,413.86 478.59,415.96 479.09,413.76 479.58,415.89 480.08,413.66 480.57,415.80 481.07,413.56 481.56,415.72 482.06,413.45 482.55,415.63 483.05,413.34 483.54,415.53 484.04,413.23 484.53,415.44 485.03,413.11 485.53,415.34 486.02,413.00 486.52,415.23 487.01,412.88 487.51,415.13 488.00,412.77 488.50,415.03 488.99,412.66 489.49,414.93 489.98,412.55 490.48,414.84 490.97,412.45 491.47,414.75 491.96,412.36 492.46,414.67 492.95,412.28 493.45,414.60 493.94,412.20 494.44,414.54 494.93,412.14 495.43,414.48 495.92,412.08 496.42,414.43 496.92,412.03 497.41,414.39 497.91,411.99 498.40,414.36 498.90,411.96 499.39,414.34 499.89,411.95 500.38,414.32 500.88,411.94 501.37,414.32 501.87,411.95 502.36,414.34 502.86,411.97 503.35,414.36 503.85,412.00 504.34,414.39 504.84,412.04 505.33,414.44 505.83,412.09 506.32,414.49 506.82,412.16 507.31,414.56 507.81,412.23 508.31,414.63 508.80,412.31 509.30,414.71 509.79,412.41 510.29,414.80 510.78,412.51 511.28,414.89 511.77,412.61 512.27,414.99 512.76,412.73 513.26,415.09 513.75,412.84 514.25,415.19 514.74,412.96 515.24,415.30 515.73,413.08 516.23,415.40 516.72,413.20 517.22,415.50 517.71,413.31 518.21,415.60 518.70,413.43 519.20,415.69 519.69,413.54 520.19,415.78 520.69,413.65 521.18,415.86 521.68,413.75 522.17,415.93 522.67,413.85 523.16,415.99 523.66,413.93 524.15,416.05 524.65,414.01 525.14,416.10 525.64,414.09 526.13,416.14 526.63,414.15 527.12,416.17 527.62,414.21 528.11,416.20 528.61,414.26 529.10,416.23 529.60,414.30 530.09,416.28 530.59,414.37 531.08,416.36 531.58,414.46 532.08,416.47 532.57,414.57 533.07,416.59 533.56,414.68 534.06,416.70 534.55,414.77 535.05,416.80 535.54,414.85 536.04,416.86 536.53,414.89 537.03,416.90 537.52,414.90 538.02,416.89 538.51,414.87 539.01,416.84 539.50,414.81 540.00,416.76 540.49,414.72 540.99,416.64 541.48,414.61 541.98,416.50 542.47,414.48 542.97,416.34 543.47,414.34 543.96,416.18 544.46,414.21 544.95,416.01 545.45,414.10 545.94,415.86 546.44,414.00 546.93,415.72 547.43,413.92 547.92,415.60 548.42,413.88 548.91,415.53 549.41,413.87 549.90,415.50 550.40,413.91 550.89,415.54 551.39,413.99 551.88,415.63 552.38,414.12 552.87,415.78 553.37,414.29 553.86,415.96 554.36,414.47 554.86,416.17 555.35,414.67 555.85,416.38 556.34,414.88 556.84,416.59 557.33,415.08 557.83,416.80 558.32,415.29 558.82,417.03 559.31,415.60 559.81,417.56 560.30,416.19 560.80,418.24 561.29,416.83 561.79,418.82 562.28,417.28 562.78,419.10 563.27,417.58 563.77,419.42 564.26,417.88 564.76,419.71 565.25,430.41 565.75,430.41 566.25,430.41 566.74,430.41 567.24,430.41 567.73,430.40 568.23,430.40 568.72,430.41 569.22,430.41 569.71,430.41 570.21,430.41 570.70,430.41 571.20,430.41 571.69,430.40 572.19,430.41 572.68,430.41 573.18,430.41 573.67,430.41 574.17,430.41 574.66,430.41 575.16,430.41 575.65,430.40 576.15,430.41 576.64,430.41 577.14,430.41 577.64,430.41 578.13,430.41 578.63,430.41 579.12,430.40 579.62,430.41 580.11,430.41 580.61,430.41 581.10,430.41 581.60,430.41 582.09,430.41 582.59,430.41 583.08,430.41 583.58,430.41 584.07,430.41 584.57,430.41 585.06,430.41 585.56,430.41 586.05,430.41 586.55,430.41 587.04,430.41 587.54,430.41 588.03,430.41 588.53,430.41 589.03,430.41 589.52,430.41 590.02,430.41 590.51,430.41 591.01,430.41 591.50,430.41 592.00,430.41 592.49,430.41 592.99,430.41 593.48,430.41 593.98,430.41 594.47,430.41 594.97,430.41 595.46,430.41 595.96,430.41 596.45,430.41 596.95,430.41 597.44,430.41 597.94,430.41 598.43,430.41 598.93,430.41 599.42,430.41 599.92,430.41 600.42,430.41 600.91,430.41 601.41,430.41 601.90,430.41 602.40,430.41 602.89,430.41 603.39,430.41 603.88,430.41 604.38,430.41 604.87,430.41 605.37,430.41 605.86,430.41 606.36,430.41 606.85,430.41 607.35,430.41 607.84,430.41 608.34,430.41 608.83,430.41 609.33,430.41 609.82,430.41 610.32,430.41 610.81,430.41 611.31,430.41 611.81,430.41 612.30,430.41 612.80,430.41 613.29,430.41 613.79,430.41 614.28,430.41 614.78,430.41 615.27,430.41 615.77,430.41 616.26,430.41 616.76,430.41 617.25,430.41 617.75,430.41 618.24,430.41 618.74,430.41 619.23,430.41 619.73,430.41 620.22,430.41 620.72,430.41 621.21,430.41 621.71,430.41 622.20,430.41 622.70,430.41 623.20,430.41 623.69,430.41 624.19,430.41 624.68,430.41 625.18,430.41 625.67,430.41 626.17,430.41 626.66,430.41 627.16,430.41 627.65,430.41 628.15,430.41 628.64,430.41 629.14,430.41 629.63,430.41 630.13,430.41 630.62,430.41 631.12,430.41 631.61,430.41 632.11,430.41 632.60,430.41 633.10,430.41 633.59,430.41 634.09,430.41 634.59,430.41 635.08,430.41 635.58,430.41 636.07,430.41 636.57,430.41 637.06,430.41 637.56,430.41 638.05,430.41 638.55,430.41 639.04,430.41 639.54,430.41 640.03,430.41 640.53,430.41 641.02,430.41 641.52,430.41 642.01,430.41 642.51,430.41 643.00,430.41 643.50,430.41 643.99,430.41 644.49,430.41 644.98,430.41 645.48,430.41 645.98,430.41 646.47,430.41 646.97,430.41 647.46,430.41 647.96,430.41 648.45,430.41 648.95,430.41 649.44,430.41 649.94,430.41 650.43,430.41 650.93,430.41 651.42,430.41 651.92,430.41 652.41,430.41 652.91,430.41 653.40,430.41 653.90,430.41 654.39,430.41 654.89,430.41 655.38,430.41 655.88,430.41 656.37,430.41 656.87,430.41 657.37,430.41 657.86,430.41 658.36,430.41 658.85,430.41 659.35,430.41 659.84,430.41 660.34,430.41 660.83,430.41 661.33,430.41 661.82,430.41 662.32,430.41 662.81,430.41 663.31,430.41 663.80,430.41 664.30,430.41 664.79,430.41 665.29,430.41 665.78,430.41 666.28,430.41 666.77,430.41 667.27,430.41 667.76,430.41 668.26,430.41 668.76,430.41 669.25,430.41 669.75,430.41 670.24,430.41 670.74,430.41 671.23,430.41 671.73,430.41 672.22,430.41 672.72,430.41 673.21,430.41 673.71,430.41 674.20,430.41 674.70,430.41 675.19,430.41 675.69,430.41 676.18,430.41 676.68,430.41 677.17,430.41 677.67,430.41 678.16,430.41 678.66,430.41 679.15,430.41 679.65,430.41 680.15,430.41 680.64,430.41 681.14,430.41 681.63,430.41 682.13,430.41 682.62,430.41 683.12,430.41 683.61,430.41 684.11,430.41 684.60,430.41 685.10,430.41 685.59,430.41 686.09,430.41 686.58,430.41 687.08,430.41 687.57,430.41 688.07,430.41 688.56,430.41 689.06,430.41 689.55,430.41 690.05,430.41 690.54,430.41 691.04,430.41 691.54,430.41 692.03,430.41 692.53,430.41 693.02,430.41 693.52,430.41 694.01,430.41 694.51,430.41 695.00,430.41 695.50,430.41 695.99,430.41 696.49,430.41 696.98,430.41 697.48,430.41 697.97,430.41 698.47,430.41 698.96,430.41 699.46,430.41 699.95,430.41 700.45,430.41 700.94,430.41 701.44,430.41 701.93,430.41 702.43,430.41 702.93,430.41 703.42,430.41 703.92,430.41 704.41,430.41 704.91,430.41 705.40,430.41 705.90,430.41 706.39,430.41 706.89,430.41 707.38,430.41 707.88,430.41 708.37,430.41 708.87,430.41 709.36,430.41 709.86,430.41 710.35,430.41 710.85,430.41 711.34,430.41 711.84,430.41 712.33,430.41 712.83,430.41 713.32,430.41 713.82,430.41 714.32,430.41 714.81,430.41 715.31,430.41 715.80,430.41 716.30,430.41 716.79,430.41 717.29,430.41 717.78,430.41 718.28,430.41 718.77,430.41 719.27,430.41 719.76,430.41 720.26,430.41 720.75,430.41 721.25,430.41 721.74,430.41 722.24,430.41 722.73,430.41 723.23,430.41 723.72,430.41 724.22,430.41 724.71,430.41 725.21,430.41 725.71,430.41 726.20,430.41 726.70,430.41 727.19,430.41 727.69,430.41 728.18,430.41 728.68,430.41 729.17,430.41 729.67,430.41 730.16,430.41 730.66,430.41 731.15,430.41 731.65,430.41 732.14,430.41 732.64,430.41 733.13,430.41 733.63,430.41 734.12,430.41 734.62,430.41 735.11,430.41 735.61,430.41 736.10,430.41 736.60,430.41 737.10,430.41 737.59,430.41 738.09,430.41 738.58,430.41 739.08,430.41 739.57,430.41 740.07,430.41 740.56,430.41 741.06,430.41 741.55,430.41 742.05,430.41 742.54,430.41 743.04,430.41 743.53,430.41 744.03,430.41 744.52,430.41 745.02,430.41 745.51,430.41 746.01,430.41 746.50,430.41 747.00,430.41 747.49,430.41 747.99,430.41 748.49,430.41 748.98,430.41 749.48,430.41 749.97,430.41 750.47,430.41 750.96,430.41 751.46,430.41 751.95,430.41 752.45,430.41 752.94,430.41 753.44,430.41 753.93,430.41 754.43,430.41 754.92,430.41 755.42,430.41 755.91,430.41 756.41,430.41 756.90,430.41 757.40,430.41 757.89,430.41 758.39,430.41 758.88,430.41 759.38,430.41 759.88,430.41 760.37,430.41 760.87,430.41 761.36,430.41 761.86,430.41 762.35,430.41 762.85,430.41 763.34,430.41 763.84,430.41 764.33,430.41 764.83,430.41 765.32,430.41 765.82,430.41 766.31,430.41 766.81,430.41 767.30,430.41 767.80,430.41 768.29,430.41 768.79,430.41 769.28,430.41 769.78,430.41 770.27,430.41 770.77,430.41 771.27,430.41 771.76,430.41 772.26,430.41 772.75,430.41 773.25,430.41 773.74,430.41 774.24,430.41 774.73,430.41 775.23,430.41 775.72,430.41 776.22,430.41 776.71,430.41 777.21,430.41 777.70,430.41 778.20,430.41 778.69,430.41 779.19,430.41 779.68,430.41 780.18,430.41 780.67,430.41 781.17,430.41 781.66,430.41 782.16,430.41 782.66,430.41 783.15,430.41 783.65,430.41 784.14,430.41 784.64,430.41 785.13,430.41 785.63,430.41 786.12,430.41 786.62,430.41 787.11,430.41 787.61,430.41 788.10,430.41 788.60,430.41 789.09,430.41 789.59,430.41 790.08,430.41 790.58,430.41 791.07,430.41 791.57,430.41 792.06,430.41 792.56,430.41 793.05,430.41 793.55,430.41 794.05,430.41 794.54,430.41 795.04,430.41 795.53,430.41 796.03,430.41 796.52,430.41 797.02,430.41 797.51,430.41 798.01,430.41 798.50,430.41 799.00,430.41 799.49,430.41 799.99,430.39 800.48,430.39 800.98,430.35 801.47,430.33 801.97,430.22 802.46,430.11 802.96,429.80 803.45,429.37 803.95,430.15 804.44,428.22 804.94,429.28 805.44,427.08 805.93,428.17 806.43,425.92 806.92,427.02 807.42,424.70 807.91,425.83 808.41,423.49 808.90,424.65 809.40,422.30 809.89,423.49 810.39,421.14 810.88,422.36 811.38,420.01 811.87,421.28 812.37,418.94 812.86,420.26 813.36,417.97 813.85,419.34 814.35,417.13 814.84,418.59 815.34,416.51 815.83,418.05 816.33,416.16 816.82,417.82 817.32,416.17 817.82,417.96 818.31,416.63 818.81,418.56 819.30,417.59 819.80,419.65 820.29,419.04 820.79,420.66 821.28,420.50 821.78,421.55 822.27,421.82 822.77,422.34 823.26,423.02 823.76,423.00 824.25,424.15 824.75,423.50 825.24,425.25 825.74,423.79 826.23,425.62 826.73,423.45 827.22,425.14 827.72,422.65 828.21,424.26 828.71,421.74 829.21,423.36 829.70,421.10 830.20,422.85 830.69,421.20 831.19,422.93 831.68,421.54 832.18,422.90 832.67,421.06 833.17,422.32 833.66,420.37 834.16,421.86 834.65,420.19 835.15,422.03 835.64,420.85 836.14,422.72 836.63,421.98 837.13,423.26 837.62,422.94 838.12,423.74 838.61,423.75 839.11,424.13 839.60,424.48 840.10,424.37 840.60,424.80 841.09,424.09 841.59,424.48 842.08,423.50 842.58,424.10 843.07,423.21 843.57,424.45 844.06,423.39 844.56,425.16 845.05,423.31 845.55,425.17 846.04,422.73 846.54,424.66 847.03,422.51 847.53,424.68 848.02,423.03 848.52,425.07 849.01,423.86 849.51,425.35 850.00,424.53 850.50,425.63 850.99,425.12 851.49,425.87 851.99,425.64 852.48,426.06 852.98,426.13 853.47,426.16 853.97,426.30 854.46,425.90 854.96,426.23 855.45,425.67 855.95,426.54 856.44,425.80 856.94,427.17 857.43,426.11 857.93,427.77 858.42,426.15 858.92,428.14 859.41,425.86 859.91,427.66 860.40,425.72 860.90,427.37 861.39,425.93 861.89,427.44 862.38,426.52 862.88,427.49 863.38,427.07 863.87,427.54 864.37,427.55 864.86,427.59 865.36,427.98 865.85,427.61 866.35,428.37 866.84,427.61 867.34,428.71 867.83,427.57 868.33,429.01 868.82,427.52 869.32,429.25 869.81,427.44 870.31,429.41 870.80,427.34 871.30,429.45 871.79,427.23 872.29,429.39 872.78,427.11 873.28,429.25 873.77,426.98 874.27,429.03 874.77,426.83 875.26,428.88 875.76,426.87 876.25,429.01 876.75,427.17 877.24,429.09 877.74,427.58 878.23,429.13 878.73,428.01 879.22,429.15 879.72,428.40 880.21,429.17 880.71,428.72 881.20,429.22 881.70,428.98 882.19,429.30 882.69,429.18 883.18,429.39 883.68,429.34 884.17,429.48 884.67,429.47 885.16,429.57 885.66,429.58 886.16,429.66 886.65,429.68 887.15,429.74 887.64,429.76 888.14,430.41 888.63,430.41 889.13,430.40 889.62,430.40 890.12,430.40 890.61,430.40 891.11,430.40 891.60,430.40 892.10,430.40 892.59,430.40 893.09,430.40 893.58,430.40 894.08,430.40 894.57,430.40 895.07,430.40 895.56,430.40 896.06,430.40 896.55,430.40 897.05,430.40 897.55,430.40 898.04,430.41 898.54,430.41 899.03,430.41 899.53,430.41 900.02,430.41 900.52,430.41 901.01,430.41 901.51,430.41 902.00,430.41 902.50,430.41 902.99,430.41 903.49,430.41 903.98,430.41 904.48,430.41 904.97,430.41 905.47,430.41 905.96,430.41 906.46,430.41 906.95,430.41 907.45,430.41 907.94,430.41 908.44,430.41 908.94,430.41 909.43,430.41 909.93,430.41 910.42,430.41 910.92,430.41 911.41,430.41 911.91,430.41 912.40,430.41 912.90,430.41 913.39,430.41 913.89,430.41 914.38,430.41 914.88,430.41 915.37,430.41 915.87,430.41 916.36,430.41 916.86,430.41 917.35,430.41 917.85,430.41 918.34,430.41 918.84,430.41 919.33,430.41 919.83,430.41 920.33,430.41 920.82,430.41 921.32,430.41 921.81,430.41 922.31,430.41 922.80,430.41 923.30,430.41 923.79,430.41 924.29,430.41 924.78,430.41 925.28,430.41 925.77,430.41 926.27,430.41 926.76,430.41 927.26,430.41 927.75,430.41 928.25,430.41 928.74,430.41 929.24,430.41 929.73,430.41 930.23,430.41 930.72,430.41 931.22,430.41 931.72,430.41 932.21,430.41 932.71,430.41 933.20,430.41 933.70,430.41 934.19,430.41 934.69,430.41 935.18,430.41 935.68,430.41 936.17,430.41 936.67,430.41 937.16,430.41 937.66,430.41 938.15,430.41 938.65,430.41 939.14,430.41 939.64,430.41 940.13,430.41 940.63,430.41 941.12,430.41 941.62,430.41 942.11,430.41 942.61,430.41 943.11,430.41 943.60,430.41 944.10,430.41 944.59,430.41 945.09,430.41 945.58,430.41 946.08,430.41 946.57,430.41 947.07,430.41 947.56,430.41 948.06,430.41 948.55,430.41 949.05,430.41 949.54,430.41 950.04,430.41 950.53,430.41 951.03,430.41 951.52,430.41 952.02,430.41 952.51,430.41 953.01,430.41 953.50,430.41 954.00,430.41"/>
<line x1="86" y1="76" x2="116" y2="76" stroke="#1f77b4" stroke-width="3"/>
<text x="124" y="80" font-family="Arial" font-size="13">arm q error norm</text>
<line x1="86" y1="98" x2="116" y2="98" stroke="#d62728" stroke-width="3"/>
<text x="124" y="102" font-family="Arial" font-size="13">joint3/4 error norm</text>
<text x="490.0" y="512" text-anchor="middle" font-family="Arial" font-size="14">time (s)</text>
<text x="20" y="260.0" transform="rotate(-90 20 260.0)" text-anchor="middle" font-family="Arial" font-size="14">error</text>
</svg>